%FSLAX45Y45*%
G04 Gerber Fmt 4.5, Leading zero omitted, Abs format (unit mm)*
G04 Created by KiCad (PCBNEW 4.0.7) date 07/05/18 15:34:08*
%MOMM*%
%LPD*%
G01*
G04 APERTURE LIST*
%ADD10C,0.127000*%
%ADD11C,0.150000*%
%ADD12C,0.200000*%
%ADD13C,0.300000*%
G04 APERTURE END LIST*
D10*
D11*
X18454044Y-8366760D02*
G75*
G03X18454044Y-8366760I-1499544J0D01*
G01*
D12*
X16148624Y-8248208D02*
X16188624Y-8288208D01*
X16188624Y-8248208D02*
X16148624Y-8288208D01*
X16156752Y-8079552D02*
X16196752Y-8119552D01*
X16196752Y-8079552D02*
X16156752Y-8119552D01*
X16168944Y-8378256D02*
X16208944Y-8418256D01*
X16208944Y-8378256D02*
X16168944Y-8418256D01*
X16187232Y-8715568D02*
X16227232Y-8755568D01*
X16227232Y-8715568D02*
X16187232Y-8755568D01*
X16292896Y-7705664D02*
X16332896Y-7745664D01*
X16332896Y-7705664D02*
X16292896Y-7745664D01*
X16404656Y-7780848D02*
X16444656Y-7820848D01*
X16444656Y-7780848D02*
X16404656Y-7820848D01*
X17018320Y-8250240D02*
X17058320Y-8290240D01*
X17058320Y-8250240D02*
X17018320Y-8290240D01*
X17020352Y-8378256D02*
X17060352Y-8418256D01*
X17060352Y-8378256D02*
X17020352Y-8418256D01*
X17026194Y-8501700D02*
X17066194Y-8541700D01*
X17066194Y-8501700D02*
X17026194Y-8541700D01*
X17028480Y-8630224D02*
X17068480Y-8670224D01*
X17068480Y-8630224D02*
X17028480Y-8670224D01*
X15907766Y-8256270D02*
G75*
G03X15907766Y-8256270I-152400J0D01*
G01*
X15983204Y-8770366D02*
G75*
G03X15983204Y-8770366I-152400J0D01*
G01*
X16067024Y-7750556D02*
G75*
G03X16067024Y-7750556I-152400J0D01*
G01*
X16307308Y-9256522D02*
G75*
G03X16307308Y-9256522I-152400J0D01*
G01*
X16430244Y-7376160D02*
G75*
G03X16430244Y-7376160I-152400J0D01*
G01*
X16757142Y-9516364D02*
G75*
G03X16757142Y-9516364I-152400J0D01*
G01*
X16920210Y-7178040D02*
G75*
G03X16920210Y-7178040I-152400J0D01*
G01*
X17282414Y-9558274D02*
G75*
G03X17282414Y-9558274I-152400J0D01*
G01*
X17445990Y-7212330D02*
G75*
G03X17445990Y-7212330I-152400J0D01*
G01*
X17771364Y-9373870D02*
G75*
G03X17771364Y-9373870I-152400J0D01*
G01*
X17905476Y-7468362D02*
G75*
G03X17905476Y-7468362I-152400J0D01*
G01*
X18131790Y-8999474D02*
G75*
G03X18131790Y-8999474I-152400J0D01*
G01*
X18210022Y-7895844D02*
G75*
G03X18210022Y-7895844I-152400J0D01*
G01*
X18313400Y-8418322D02*
G75*
G03X18313400Y-8418322I-152400J0D01*
G01*
D13*
X15718885Y-10339518D02*
X15718885Y-10039518D01*
X15790313Y-10039518D01*
X15833171Y-10053804D01*
X15861742Y-10082375D01*
X15876028Y-10110947D01*
X15890313Y-10168089D01*
X15890313Y-10210947D01*
X15876028Y-10268089D01*
X15861742Y-10296661D01*
X15833171Y-10325232D01*
X15790313Y-10339518D01*
X15718885Y-10339518D01*
X16018885Y-10339518D02*
X16018885Y-10139518D01*
X16018885Y-10196661D02*
X16033171Y-10168089D01*
X16047456Y-10153804D01*
X16076028Y-10139518D01*
X16104599Y-10139518D01*
X16204599Y-10339518D02*
X16204599Y-10139518D01*
X16204599Y-10039518D02*
X16190313Y-10053804D01*
X16204599Y-10068089D01*
X16218885Y-10053804D01*
X16204599Y-10039518D01*
X16204599Y-10068089D01*
X16390313Y-10339518D02*
X16361742Y-10325232D01*
X16347456Y-10296661D01*
X16347456Y-10039518D01*
X16547456Y-10339518D02*
X16518885Y-10325232D01*
X16504599Y-10296661D01*
X16504599Y-10039518D01*
X16890314Y-10339518D02*
X16890314Y-10039518D01*
X16990314Y-10253804D01*
X17090314Y-10039518D01*
X17090314Y-10339518D01*
X17361742Y-10339518D02*
X17361742Y-10182375D01*
X17347456Y-10153804D01*
X17318885Y-10139518D01*
X17261742Y-10139518D01*
X17233171Y-10153804D01*
X17361742Y-10325232D02*
X17333171Y-10339518D01*
X17261742Y-10339518D01*
X17233171Y-10325232D01*
X17218885Y-10296661D01*
X17218885Y-10268089D01*
X17233171Y-10239518D01*
X17261742Y-10225232D01*
X17333171Y-10225232D01*
X17361742Y-10210947D01*
X17504599Y-10139518D02*
X17504599Y-10439518D01*
X17504599Y-10153804D02*
X17533171Y-10139518D01*
X17590314Y-10139518D01*
X17618885Y-10153804D01*
X17633171Y-10168089D01*
X17647456Y-10196661D01*
X17647456Y-10282375D01*
X17633171Y-10310947D01*
X17618885Y-10325232D01*
X17590314Y-10339518D01*
X17533171Y-10339518D01*
X17504599Y-10325232D01*
X17776028Y-10310947D02*
X17790314Y-10325232D01*
X17776028Y-10339518D01*
X17761742Y-10325232D01*
X17776028Y-10310947D01*
X17776028Y-10339518D01*
X17776028Y-10153804D02*
X17790314Y-10168089D01*
X17776028Y-10182375D01*
X17761742Y-10168089D01*
X17776028Y-10153804D01*
X17776028Y-10182375D01*
X15407456Y-10813804D02*
X15447456Y-10853804D01*
X15447456Y-10813804D02*
X15407456Y-10853804D01*
X15776028Y-10669518D02*
X15804599Y-10669518D01*
X15833171Y-10683804D01*
X15847456Y-10698089D01*
X15861742Y-10726661D01*
X15876028Y-10783804D01*
X15876028Y-10855232D01*
X15861742Y-10912375D01*
X15847456Y-10940947D01*
X15833171Y-10955232D01*
X15804599Y-10969518D01*
X15776028Y-10969518D01*
X15747456Y-10955232D01*
X15733171Y-10940947D01*
X15718885Y-10912375D01*
X15704599Y-10855232D01*
X15704599Y-10783804D01*
X15718885Y-10726661D01*
X15733171Y-10698089D01*
X15747456Y-10683804D01*
X15776028Y-10669518D01*
X16004599Y-10940947D02*
X16018885Y-10955232D01*
X16004599Y-10969518D01*
X15990313Y-10955232D01*
X16004599Y-10940947D01*
X16004599Y-10969518D01*
X16276028Y-10769518D02*
X16276028Y-10969518D01*
X16204599Y-10655232D02*
X16133171Y-10869518D01*
X16318885Y-10869518D01*
X16490313Y-10669518D02*
X16518885Y-10669518D01*
X16547456Y-10683804D01*
X16561742Y-10698089D01*
X16576028Y-10726661D01*
X16590313Y-10783804D01*
X16590313Y-10855232D01*
X16576028Y-10912375D01*
X16561742Y-10940947D01*
X16547456Y-10955232D01*
X16518885Y-10969518D01*
X16490313Y-10969518D01*
X16461742Y-10955232D01*
X16447456Y-10940947D01*
X16433171Y-10912375D01*
X16418885Y-10855232D01*
X16418885Y-10783804D01*
X16433171Y-10726661D01*
X16447456Y-10698089D01*
X16461742Y-10683804D01*
X16490313Y-10669518D01*
X16718885Y-10969518D02*
X16718885Y-10769518D01*
X16718885Y-10798089D02*
X16733171Y-10783804D01*
X16761742Y-10769518D01*
X16804599Y-10769518D01*
X16833171Y-10783804D01*
X16847456Y-10812375D01*
X16847456Y-10969518D01*
X16847456Y-10812375D02*
X16861742Y-10783804D01*
X16890313Y-10769518D01*
X16933171Y-10769518D01*
X16961742Y-10783804D01*
X16976028Y-10812375D01*
X16976028Y-10969518D01*
X17118885Y-10969518D02*
X17118885Y-10769518D01*
X17118885Y-10798089D02*
X17133171Y-10783804D01*
X17161742Y-10769518D01*
X17204599Y-10769518D01*
X17233171Y-10783804D01*
X17247456Y-10812375D01*
X17247456Y-10969518D01*
X17247456Y-10812375D02*
X17261742Y-10783804D01*
X17290313Y-10769518D01*
X17333171Y-10769518D01*
X17361742Y-10783804D01*
X17376028Y-10812375D01*
X17376028Y-10969518D01*
X17961742Y-10655232D02*
X17704599Y-11040947D01*
X18347456Y-10669518D02*
X18376028Y-10669518D01*
X18404599Y-10683804D01*
X18418885Y-10698089D01*
X18433171Y-10726661D01*
X18447456Y-10783804D01*
X18447456Y-10855232D01*
X18433171Y-10912375D01*
X18418885Y-10940947D01*
X18404599Y-10955232D01*
X18376028Y-10969518D01*
X18347456Y-10969518D01*
X18318885Y-10955232D01*
X18304599Y-10940947D01*
X18290313Y-10912375D01*
X18276028Y-10855232D01*
X18276028Y-10783804D01*
X18290313Y-10726661D01*
X18304599Y-10698089D01*
X18318885Y-10683804D01*
X18347456Y-10669518D01*
X18576028Y-10940947D02*
X18590313Y-10955232D01*
X18576028Y-10969518D01*
X18561742Y-10955232D01*
X18576028Y-10940947D01*
X18576028Y-10969518D01*
X18776028Y-10669518D02*
X18804599Y-10669518D01*
X18833171Y-10683804D01*
X18847456Y-10698089D01*
X18861742Y-10726661D01*
X18876028Y-10783804D01*
X18876028Y-10855232D01*
X18861742Y-10912375D01*
X18847456Y-10940947D01*
X18833171Y-10955232D01*
X18804599Y-10969518D01*
X18776028Y-10969518D01*
X18747456Y-10955232D01*
X18733171Y-10940947D01*
X18718885Y-10912375D01*
X18704599Y-10855232D01*
X18704599Y-10783804D01*
X18718885Y-10726661D01*
X18733171Y-10698089D01*
X18747456Y-10683804D01*
X18776028Y-10669518D01*
X19161742Y-10969518D02*
X18990313Y-10969518D01*
X19076028Y-10969518D02*
X19076028Y-10669518D01*
X19047456Y-10712375D01*
X19018885Y-10740947D01*
X18990313Y-10755232D01*
X19418885Y-10669518D02*
X19361742Y-10669518D01*
X19333171Y-10683804D01*
X19318885Y-10698089D01*
X19290313Y-10740947D01*
X19276028Y-10798089D01*
X19276028Y-10912375D01*
X19290313Y-10940947D01*
X19304599Y-10955232D01*
X19333171Y-10969518D01*
X19390313Y-10969518D01*
X19418885Y-10955232D01*
X19433171Y-10940947D01*
X19447456Y-10912375D01*
X19447456Y-10840947D01*
X19433171Y-10812375D01*
X19418885Y-10798089D01*
X19390313Y-10783804D01*
X19333171Y-10783804D01*
X19304599Y-10798089D01*
X19290313Y-10812375D01*
X19276028Y-10840947D01*
X19561742Y-10669518D02*
X19561742Y-10726661D01*
X19676028Y-10669518D02*
X19676028Y-10726661D01*
X20118885Y-11083804D02*
X20104599Y-11069518D01*
X20076028Y-11026661D01*
X20061742Y-10998089D01*
X20047456Y-10955232D01*
X20033171Y-10883804D01*
X20033171Y-10826661D01*
X20047456Y-10755232D01*
X20061742Y-10712375D01*
X20076028Y-10683804D01*
X20104599Y-10640947D01*
X20118885Y-10626661D01*
X20390313Y-10969518D02*
X20218885Y-10969518D01*
X20304599Y-10969518D02*
X20304599Y-10669518D01*
X20276028Y-10712375D01*
X20247456Y-10740947D01*
X20218885Y-10755232D01*
X20576028Y-10669518D02*
X20604599Y-10669518D01*
X20633171Y-10683804D01*
X20647456Y-10698089D01*
X20661742Y-10726661D01*
X20676028Y-10783804D01*
X20676028Y-10855232D01*
X20661742Y-10912375D01*
X20647456Y-10940947D01*
X20633171Y-10955232D01*
X20604599Y-10969518D01*
X20576028Y-10969518D01*
X20547456Y-10955232D01*
X20533171Y-10940947D01*
X20518885Y-10912375D01*
X20504599Y-10855232D01*
X20504599Y-10783804D01*
X20518885Y-10726661D01*
X20533171Y-10698089D01*
X20547456Y-10683804D01*
X20576028Y-10669518D01*
X21033171Y-10969518D02*
X21033171Y-10669518D01*
X21161742Y-10969518D02*
X21161742Y-10812375D01*
X21147456Y-10783804D01*
X21118885Y-10769518D01*
X21076028Y-10769518D01*
X21047456Y-10783804D01*
X21033171Y-10798089D01*
X21347456Y-10969518D02*
X21318885Y-10955232D01*
X21304599Y-10940947D01*
X21290313Y-10912375D01*
X21290313Y-10826661D01*
X21304599Y-10798089D01*
X21318885Y-10783804D01*
X21347456Y-10769518D01*
X21390313Y-10769518D01*
X21418885Y-10783804D01*
X21433171Y-10798089D01*
X21447456Y-10826661D01*
X21447456Y-10912375D01*
X21433171Y-10940947D01*
X21418885Y-10955232D01*
X21390313Y-10969518D01*
X21347456Y-10969518D01*
X21618885Y-10969518D02*
X21590313Y-10955232D01*
X21576028Y-10926661D01*
X21576028Y-10669518D01*
X21847456Y-10955232D02*
X21818885Y-10969518D01*
X21761742Y-10969518D01*
X21733171Y-10955232D01*
X21718885Y-10926661D01*
X21718885Y-10812375D01*
X21733171Y-10783804D01*
X21761742Y-10769518D01*
X21818885Y-10769518D01*
X21847456Y-10783804D01*
X21861742Y-10812375D01*
X21861742Y-10840947D01*
X21718885Y-10869518D01*
X21976028Y-10955232D02*
X22004599Y-10969518D01*
X22061742Y-10969518D01*
X22090314Y-10955232D01*
X22104599Y-10926661D01*
X22104599Y-10912375D01*
X22090314Y-10883804D01*
X22061742Y-10869518D01*
X22018885Y-10869518D01*
X21990314Y-10855232D01*
X21976028Y-10826661D01*
X21976028Y-10812375D01*
X21990314Y-10783804D01*
X22018885Y-10769518D01*
X22061742Y-10769518D01*
X22090314Y-10783804D01*
X22204599Y-11083804D02*
X22218885Y-11069518D01*
X22247456Y-11026661D01*
X22261742Y-10998089D01*
X22276028Y-10955232D01*
X22290313Y-10883804D01*
X22290313Y-10826661D01*
X22276028Y-10755232D01*
X22261742Y-10712375D01*
X22247456Y-10683804D01*
X22218885Y-10640947D01*
X22204599Y-10626661D01*
X15447456Y-11229804D02*
G75*
G03X15447456Y-11229804I-152400J0D01*
G01*
X15690313Y-11065518D02*
X15876028Y-11065518D01*
X15776028Y-11179804D01*
X15818885Y-11179804D01*
X15847456Y-11194089D01*
X15861742Y-11208375D01*
X15876028Y-11236947D01*
X15876028Y-11308375D01*
X15861742Y-11336947D01*
X15847456Y-11351232D01*
X15818885Y-11365518D01*
X15733171Y-11365518D01*
X15704599Y-11351232D01*
X15690313Y-11336947D01*
X16004599Y-11336947D02*
X16018885Y-11351232D01*
X16004599Y-11365518D01*
X15990313Y-11351232D01*
X16004599Y-11336947D01*
X16004599Y-11365518D01*
X16204599Y-11065518D02*
X16233171Y-11065518D01*
X16261742Y-11079804D01*
X16276028Y-11094089D01*
X16290313Y-11122661D01*
X16304599Y-11179804D01*
X16304599Y-11251232D01*
X16290313Y-11308375D01*
X16276028Y-11336947D01*
X16261742Y-11351232D01*
X16233171Y-11365518D01*
X16204599Y-11365518D01*
X16176028Y-11351232D01*
X16161742Y-11336947D01*
X16147456Y-11308375D01*
X16133171Y-11251232D01*
X16133171Y-11179804D01*
X16147456Y-11122661D01*
X16161742Y-11094089D01*
X16176028Y-11079804D01*
X16204599Y-11065518D01*
X16576028Y-11065518D02*
X16433171Y-11065518D01*
X16418885Y-11208375D01*
X16433171Y-11194089D01*
X16461742Y-11179804D01*
X16533171Y-11179804D01*
X16561742Y-11194089D01*
X16576028Y-11208375D01*
X16590313Y-11236947D01*
X16590313Y-11308375D01*
X16576028Y-11336947D01*
X16561742Y-11351232D01*
X16533171Y-11365518D01*
X16461742Y-11365518D01*
X16433171Y-11351232D01*
X16418885Y-11336947D01*
X16718885Y-11365518D02*
X16718885Y-11165518D01*
X16718885Y-11194089D02*
X16733171Y-11179804D01*
X16761742Y-11165518D01*
X16804599Y-11165518D01*
X16833171Y-11179804D01*
X16847456Y-11208375D01*
X16847456Y-11365518D01*
X16847456Y-11208375D02*
X16861742Y-11179804D01*
X16890313Y-11165518D01*
X16933171Y-11165518D01*
X16961742Y-11179804D01*
X16976028Y-11208375D01*
X16976028Y-11365518D01*
X17118885Y-11365518D02*
X17118885Y-11165518D01*
X17118885Y-11194089D02*
X17133171Y-11179804D01*
X17161742Y-11165518D01*
X17204599Y-11165518D01*
X17233171Y-11179804D01*
X17247456Y-11208375D01*
X17247456Y-11365518D01*
X17247456Y-11208375D02*
X17261742Y-11179804D01*
X17290313Y-11165518D01*
X17333171Y-11165518D01*
X17361742Y-11179804D01*
X17376028Y-11208375D01*
X17376028Y-11365518D01*
X17961742Y-11051232D02*
X17704599Y-11436947D01*
X18347456Y-11065518D02*
X18376028Y-11065518D01*
X18404599Y-11079804D01*
X18418885Y-11094089D01*
X18433171Y-11122661D01*
X18447456Y-11179804D01*
X18447456Y-11251232D01*
X18433171Y-11308375D01*
X18418885Y-11336947D01*
X18404599Y-11351232D01*
X18376028Y-11365518D01*
X18347456Y-11365518D01*
X18318885Y-11351232D01*
X18304599Y-11336947D01*
X18290313Y-11308375D01*
X18276028Y-11251232D01*
X18276028Y-11179804D01*
X18290313Y-11122661D01*
X18304599Y-11094089D01*
X18318885Y-11079804D01*
X18347456Y-11065518D01*
X18576028Y-11336947D02*
X18590313Y-11351232D01*
X18576028Y-11365518D01*
X18561742Y-11351232D01*
X18576028Y-11336947D01*
X18576028Y-11365518D01*
X18876028Y-11365518D02*
X18704599Y-11365518D01*
X18790313Y-11365518D02*
X18790313Y-11065518D01*
X18761742Y-11108375D01*
X18733171Y-11136947D01*
X18704599Y-11151232D01*
X18990313Y-11094089D02*
X19004599Y-11079804D01*
X19033171Y-11065518D01*
X19104599Y-11065518D01*
X19133171Y-11079804D01*
X19147456Y-11094089D01*
X19161742Y-11122661D01*
X19161742Y-11151232D01*
X19147456Y-11194089D01*
X18976028Y-11365518D01*
X19161742Y-11365518D01*
X19347456Y-11065518D02*
X19376028Y-11065518D01*
X19404599Y-11079804D01*
X19418885Y-11094089D01*
X19433171Y-11122661D01*
X19447456Y-11179804D01*
X19447456Y-11251232D01*
X19433171Y-11308375D01*
X19418885Y-11336947D01*
X19404599Y-11351232D01*
X19376028Y-11365518D01*
X19347456Y-11365518D01*
X19318885Y-11351232D01*
X19304599Y-11336947D01*
X19290313Y-11308375D01*
X19276028Y-11251232D01*
X19276028Y-11179804D01*
X19290313Y-11122661D01*
X19304599Y-11094089D01*
X19318885Y-11079804D01*
X19347456Y-11065518D01*
X19561742Y-11065518D02*
X19561742Y-11122661D01*
X19676028Y-11065518D02*
X19676028Y-11122661D01*
X20118885Y-11479804D02*
X20104599Y-11465518D01*
X20076028Y-11422661D01*
X20061742Y-11394089D01*
X20047456Y-11351232D01*
X20033171Y-11279804D01*
X20033171Y-11222661D01*
X20047456Y-11151232D01*
X20061742Y-11108375D01*
X20076028Y-11079804D01*
X20104599Y-11036947D01*
X20118885Y-11022661D01*
X20390313Y-11365518D02*
X20218885Y-11365518D01*
X20304599Y-11365518D02*
X20304599Y-11065518D01*
X20276028Y-11108375D01*
X20247456Y-11136947D01*
X20218885Y-11151232D01*
X20647456Y-11165518D02*
X20647456Y-11365518D01*
X20576028Y-11051232D02*
X20504599Y-11265518D01*
X20690313Y-11265518D01*
X21033171Y-11365518D02*
X21033171Y-11065518D01*
X21161742Y-11365518D02*
X21161742Y-11208375D01*
X21147456Y-11179804D01*
X21118885Y-11165518D01*
X21076028Y-11165518D01*
X21047456Y-11179804D01*
X21033171Y-11194089D01*
X21347456Y-11365518D02*
X21318885Y-11351232D01*
X21304599Y-11336947D01*
X21290313Y-11308375D01*
X21290313Y-11222661D01*
X21304599Y-11194089D01*
X21318885Y-11179804D01*
X21347456Y-11165518D01*
X21390313Y-11165518D01*
X21418885Y-11179804D01*
X21433171Y-11194089D01*
X21447456Y-11222661D01*
X21447456Y-11308375D01*
X21433171Y-11336947D01*
X21418885Y-11351232D01*
X21390313Y-11365518D01*
X21347456Y-11365518D01*
X21618885Y-11365518D02*
X21590313Y-11351232D01*
X21576028Y-11322661D01*
X21576028Y-11065518D01*
X21847456Y-11351232D02*
X21818885Y-11365518D01*
X21761742Y-11365518D01*
X21733171Y-11351232D01*
X21718885Y-11322661D01*
X21718885Y-11208375D01*
X21733171Y-11179804D01*
X21761742Y-11165518D01*
X21818885Y-11165518D01*
X21847456Y-11179804D01*
X21861742Y-11208375D01*
X21861742Y-11236947D01*
X21718885Y-11265518D01*
X21976028Y-11351232D02*
X22004599Y-11365518D01*
X22061742Y-11365518D01*
X22090314Y-11351232D01*
X22104599Y-11322661D01*
X22104599Y-11308375D01*
X22090314Y-11279804D01*
X22061742Y-11265518D01*
X22018885Y-11265518D01*
X21990314Y-11251232D01*
X21976028Y-11222661D01*
X21976028Y-11208375D01*
X21990314Y-11179804D01*
X22018885Y-11165518D01*
X22061742Y-11165518D01*
X22090314Y-11179804D01*
X22204599Y-11479804D02*
X22218885Y-11465518D01*
X22247456Y-11422661D01*
X22261742Y-11394089D01*
X22276028Y-11351232D01*
X22290313Y-11279804D01*
X22290313Y-11222661D01*
X22276028Y-11151232D01*
X22261742Y-11108375D01*
X22247456Y-11079804D01*
X22218885Y-11036947D01*
X22204599Y-11022661D01*
M02*
