M48
;DRILL file {KiCad 4.0.7} date 07/05/18 15:34:08
;FORMAT={-:-/ absolute / metric / decimal}
FMAT,2
METRIC,TZ
T1C0.400
T2C3.048
%
G90
G05
M71
T1
X161.686Y-82.682
X161.768Y-80.996
X161.889Y-83.983
X162.072Y-87.356
X163.129Y-77.257
X164.247Y-78.008
X170.383Y-82.702
X170.404Y-83.983
X170.462Y-85.217
X170.485Y-86.502
T2
X157.554Y-82.563
X158.308Y-87.704
X159.146Y-77.506
X161.549Y-92.565
X162.778Y-73.762
X166.047Y-95.164
X167.678Y-71.78
X171.3Y-95.583
X172.936Y-72.123
X176.19Y-93.739
X177.531Y-74.684
X179.794Y-89.995
X180.576Y-78.958
X181.61Y-84.183
T0
M30
