G04 #@! TF.FileFunction,Soldermask,Top*
%FSLAX46Y46*%
G04 Gerber Fmt 4.6, Leading zero omitted, Abs format (unit mm)*
G04 Created by KiCad (PCBNEW 4.0.7) date 07/05/18 15:34:05*
%MOMM*%
%LPD*%
G01*
G04 APERTURE LIST*
%ADD10C,0.100000*%
%ADD11C,4.464000*%
%ADD12R,1.300000X1.300000*%
%ADD13R,1.900000X1.000000*%
G04 APERTURE END LIST*
D10*
D11*
X157553660Y-82562700D03*
X159146240Y-77505560D03*
X162778440Y-73761600D03*
X167678100Y-71780400D03*
X172935900Y-72123300D03*
X177530760Y-74683620D03*
X180576220Y-78958440D03*
X181610000Y-84183220D03*
X161549080Y-92565220D03*
X176189640Y-93738700D03*
X171300140Y-95582740D03*
X166047420Y-95163640D03*
X158308040Y-87703660D03*
X179793900Y-89994740D03*
D12*
X175121700Y-86534300D03*
X175121700Y-81334300D03*
X175121700Y-85214300D03*
X175121700Y-82654300D03*
X175121700Y-83934300D03*
X172121700Y-82654300D03*
X172121700Y-86534300D03*
X172121700Y-81334300D03*
X172121700Y-85214300D03*
X172121700Y-83934300D03*
D13*
X163377900Y-78879700D03*
X163377900Y-80149700D03*
X163377900Y-81419700D03*
X163377900Y-82689700D03*
X163377900Y-83959700D03*
X163377900Y-85229700D03*
X163377900Y-86499700D03*
X163377900Y-87769700D03*
X168777900Y-87769700D03*
X168777900Y-86499700D03*
X168777900Y-85229700D03*
X168777900Y-83959700D03*
X168777900Y-82689700D03*
X168777900Y-81419700D03*
X168777900Y-80149700D03*
X168777900Y-78879700D03*
M02*
