G04 #@! TF.FileFunction,Legend,Top*
%FSLAX46Y46*%
G04 Gerber Fmt 4.6, Leading zero omitted, Abs format (unit mm)*
G04 Created by KiCad (PCBNEW 4.0.7) date 07/05/18 15:34:05*
%MOMM*%
%LPD*%
G01*
G04 APERTURE LIST*
%ADD10C,0.100000*%
%ADD11C,0.120000*%
%ADD12C,0.150000*%
G04 APERTURE END LIST*
D10*
D11*
X159839660Y-82562700D02*
G75*
G03X159839660Y-82562700I-2286000J0D01*
G01*
X161432240Y-77505560D02*
G75*
G03X161432240Y-77505560I-2286000J0D01*
G01*
X165064440Y-73761600D02*
G75*
G03X165064440Y-73761600I-2286000J0D01*
G01*
X169964100Y-71780400D02*
G75*
G03X169964100Y-71780400I-2286000J0D01*
G01*
X175221900Y-72123300D02*
G75*
G03X175221900Y-72123300I-2286000J0D01*
G01*
X179816760Y-74683620D02*
G75*
G03X179816760Y-74683620I-2286000J0D01*
G01*
X182862220Y-78958440D02*
G75*
G03X182862220Y-78958440I-2286000J0D01*
G01*
X183896000Y-84183220D02*
G75*
G03X183896000Y-84183220I-2286000J0D01*
G01*
X163835080Y-92565220D02*
G75*
G03X163835080Y-92565220I-2286000J0D01*
G01*
X178475640Y-93738700D02*
G75*
G03X178475640Y-93738700I-2286000J0D01*
G01*
X173586140Y-95582740D02*
G75*
G03X173586140Y-95582740I-2286000J0D01*
G01*
X168333420Y-95163640D02*
G75*
G03X168333420Y-95163640I-2286000J0D01*
G01*
X160594040Y-87703660D02*
G75*
G03X160594040Y-87703660I-2286000J0D01*
G01*
X182079900Y-89994740D02*
G75*
G03X182079900Y-89994740I-2286000J0D01*
G01*
X172571700Y-80664300D02*
X174671700Y-80664300D01*
X172571700Y-87204300D02*
X174671700Y-87204300D01*
D12*
X164002900Y-78249700D02*
X164002900Y-78274700D01*
X168152900Y-78249700D02*
X168152900Y-78354700D01*
X168152900Y-88399700D02*
X168152900Y-88294700D01*
X164002900Y-88399700D02*
X164002900Y-88294700D01*
X164002900Y-78249700D02*
X168152900Y-78249700D01*
X164002900Y-88399700D02*
X168152900Y-88399700D01*
X164002900Y-78274700D02*
X162627900Y-78274700D01*
M02*
