G04 #@! TF.FileFunction,Copper,L1,Top,Signal*
%FSLAX46Y46*%
G04 Gerber Fmt 4.6, Leading zero omitted, Abs format (unit mm)*
G04 Created by KiCad (PCBNEW 4.0.7) date 07/05/18 15:34:05*
%MOMM*%
%LPD*%
G01*
G04 APERTURE LIST*
%ADD10C,0.100000*%
%ADD11C,4.064000*%
%ADD12R,0.900000X0.900000*%
%ADD13R,1.500000X0.600000*%
%ADD14C,0.600000*%
%ADD15C,0.250000*%
G04 APERTURE END LIST*
D10*
D11*
X157553660Y-82562700D03*
X159146240Y-77505560D03*
X162778440Y-73761600D03*
X167678100Y-71780400D03*
X172935900Y-72123300D03*
X177530760Y-74683620D03*
X180576220Y-78958440D03*
X181610000Y-84183220D03*
X161549080Y-92565220D03*
X176189640Y-93738700D03*
X171300140Y-95582740D03*
X166047420Y-95163640D03*
X158308040Y-87703660D03*
X179793900Y-89994740D03*
D12*
X175121700Y-86534300D03*
X175121700Y-81334300D03*
X175121700Y-85214300D03*
X175121700Y-82654300D03*
X175121700Y-83934300D03*
X172121700Y-82654300D03*
X172121700Y-86534300D03*
X172121700Y-81334300D03*
X172121700Y-85214300D03*
X172121700Y-83934300D03*
D13*
X163377900Y-78879700D03*
X163377900Y-80149700D03*
X163377900Y-81419700D03*
X163377900Y-82689700D03*
X163377900Y-83959700D03*
X163377900Y-85229700D03*
X163377900Y-86499700D03*
X163377900Y-87769700D03*
X168777900Y-87769700D03*
X168777900Y-86499700D03*
X168777900Y-85229700D03*
X168777900Y-83959700D03*
X168777900Y-82689700D03*
X168777900Y-81419700D03*
X168777900Y-80149700D03*
X168777900Y-78879700D03*
D14*
X161686240Y-82682080D03*
X161767520Y-80995520D03*
X163128960Y-77256640D03*
X164246560Y-78008480D03*
X170383200Y-82702400D03*
X170403520Y-83982560D03*
X170461940Y-85217000D03*
X170484800Y-86502240D03*
X162072320Y-87355680D03*
X161889440Y-83982560D03*
D15*
X161693860Y-82689700D02*
X163377900Y-82689700D01*
X161686240Y-82682080D02*
X161693860Y-82689700D01*
X175121700Y-85214300D02*
X174454660Y-85214300D01*
X164244020Y-82689700D02*
X163377900Y-82689700D01*
X164846000Y-82087720D02*
X164244020Y-82689700D01*
X164846000Y-78595220D02*
X164846000Y-82087720D01*
X165318018Y-78123202D02*
X164846000Y-78595220D01*
X172669200Y-78123202D02*
X165318018Y-78123202D01*
X173954440Y-79408442D02*
X172669200Y-78123202D01*
X173954440Y-84714080D02*
X173954440Y-79408442D01*
X174454660Y-85214300D02*
X173954440Y-84714080D01*
X161767520Y-80995520D02*
X161772600Y-81000600D01*
X161772600Y-81000600D02*
X161772600Y-81026000D01*
X175121700Y-83934300D02*
X175823880Y-83934300D01*
X162166300Y-81419700D02*
X163377900Y-81419700D01*
X161772600Y-81026000D02*
X162166300Y-81419700D01*
X161772600Y-77645260D02*
X161772600Y-81026000D01*
X162834320Y-76583540D02*
X161772600Y-77645260D01*
X173730920Y-76583540D02*
X162834320Y-76583540D01*
X176748440Y-79601060D02*
X173730920Y-76583540D01*
X176748440Y-83009740D02*
X176748440Y-79601060D01*
X175823880Y-83934300D02*
X176748440Y-83009740D01*
X163141660Y-77243940D02*
X163141660Y-77198220D01*
X163128960Y-77256640D02*
X163141660Y-77243940D01*
X175121700Y-82654300D02*
X175567180Y-82654300D01*
X175567180Y-82654300D02*
X176049940Y-82171540D01*
X176049940Y-82171540D02*
X176049940Y-79740760D01*
X176049940Y-79740760D02*
X173507400Y-77198220D01*
X173507400Y-77198220D02*
X163141660Y-77198220D01*
X163141660Y-77198220D02*
X162247580Y-78092300D01*
X162247580Y-78092300D02*
X162247580Y-80076040D01*
X162247580Y-80076040D02*
X162321240Y-80149700D01*
X162321240Y-80149700D02*
X163377900Y-80149700D01*
X164246560Y-78008480D02*
X164247840Y-78009760D01*
X164247840Y-78009760D02*
X164246560Y-78008480D01*
X164246560Y-78008480D02*
X164246560Y-78011040D01*
X175121700Y-81334300D02*
X175121700Y-79622780D01*
X164584400Y-77673200D02*
X164246560Y-78011040D01*
X164246560Y-78011040D02*
X163377900Y-78879700D01*
X173172120Y-77673200D02*
X164584400Y-77673200D01*
X175121700Y-79622780D02*
X173172120Y-77673200D01*
X170395900Y-82689700D02*
X170418760Y-82689700D01*
X170383200Y-82702400D02*
X170395900Y-82689700D01*
X172121700Y-81334300D02*
X171774160Y-81334300D01*
X171774160Y-81334300D02*
X170418760Y-82689700D01*
X170418760Y-82689700D02*
X168777900Y-82689700D01*
X170406060Y-83980020D02*
X170406060Y-83959700D01*
X170403520Y-83982560D02*
X170406060Y-83980020D01*
X172121700Y-82654300D02*
X171711460Y-82654300D01*
X171711460Y-82654300D02*
X170406060Y-83959700D01*
X170406060Y-83959700D02*
X168777900Y-83959700D01*
X170461940Y-85217000D02*
X170449240Y-85229700D01*
X172121700Y-83934300D02*
X171744640Y-83934300D01*
X171744640Y-83934300D02*
X170449240Y-85229700D01*
X170449240Y-85229700D02*
X168777900Y-85229700D01*
X170484800Y-86502240D02*
X170487340Y-86499700D01*
X170487340Y-86499700D02*
X170548300Y-86499700D01*
X172121700Y-85214300D02*
X171833700Y-85214300D01*
X171833700Y-85214300D02*
X170548300Y-86499700D01*
X170548300Y-86499700D02*
X168777900Y-86499700D01*
X162486340Y-87769700D02*
X163377900Y-87769700D01*
X162072320Y-87355680D02*
X162486340Y-87769700D01*
X161889440Y-83982560D02*
X161912300Y-83959700D01*
X161912300Y-83959700D02*
X163377900Y-83959700D01*
X176189640Y-93738700D02*
X174746900Y-93738700D01*
X174746900Y-93738700D02*
X168777900Y-87769700D01*
X171300140Y-95582740D02*
X171300140Y-94325440D01*
X171300140Y-94325440D02*
X165209220Y-88234520D01*
X165209220Y-88234520D02*
X165209220Y-86893400D01*
X165209220Y-86893400D02*
X164815520Y-86499700D01*
X164815520Y-86499700D02*
X163377900Y-86499700D01*
X166047420Y-95163640D02*
X166047420Y-92732860D01*
X162179000Y-85229700D02*
X163377900Y-85229700D01*
X161241740Y-86166960D02*
X162179000Y-85229700D01*
X161241740Y-87927180D02*
X161241740Y-86166960D01*
X166047420Y-92732860D02*
X161241740Y-87927180D01*
X179793900Y-89994740D02*
X178582140Y-89994740D01*
X178582140Y-89994740D02*
X175145520Y-86558120D01*
X175145520Y-86558120D02*
X174261780Y-86558120D01*
X174261780Y-86558120D02*
X173088300Y-85384640D01*
X173088300Y-85384640D02*
X173088300Y-79824580D01*
X173088300Y-79824580D02*
X172143420Y-78879700D01*
X172143420Y-78879700D02*
X168777900Y-78879700D01*
M02*
