M48
;DRILL file {KiCad 4.0.7} date 05/26/18 16:35:32
;FORMAT={-:-/ absolute / metric / decimal}
FMAT,2
METRIC,TZ
T1C0.400
T2C0.800
T3C1.000
%
G90
G05
M71
T1
X88.859Y-122.611
X93.012Y-121.204
X94.224Y-119.339
X95.639Y-114.554
X99.936Y-125.882
X100.584Y-132.324
X101.232Y-155.029
X102.921Y-123.444
X107.988Y-123.439
X108.267Y-153.335
X108.814Y-120.853
T2
X90.919Y-130.378
X90.919Y-135.258
X97.262Y-111.963
X97.262Y-114.503
X97.262Y-117.043
X97.262Y-119.583
X97.262Y-122.123
X97.262Y-124.663
X97.262Y-127.203
X97.262Y-129.743
X97.262Y-132.283
X97.262Y-134.823
X97.262Y-137.363
X97.262Y-139.903
X97.262Y-142.443
X97.262Y-144.983
X104.882Y-111.963
X104.882Y-114.503
X104.882Y-117.043
X104.882Y-119.583
X104.882Y-122.123
X104.882Y-124.663
X104.882Y-127.203
X104.882Y-129.743
X104.882Y-132.283
X104.882Y-134.823
X104.882Y-137.363
X104.882Y-139.903
X104.882Y-142.443
X104.882Y-144.983
X112.766Y-103.
X112.766Y-105.54
X112.766Y-108.08
X112.766Y-110.62
X112.766Y-113.16
X112.766Y-115.7
X112.766Y-118.24
X112.766Y-120.78
X112.766Y-123.32
X112.766Y-125.86
X112.766Y-128.4
X112.766Y-130.94
X112.766Y-133.48
X112.766Y-136.02
X112.766Y-138.56
X112.766Y-141.1
X112.766Y-143.64
X112.766Y-146.18
X112.766Y-148.72
X112.766Y-151.26
X120.366Y-100.416
X120.366Y-102.956
X120.366Y-105.496
X120.366Y-108.036
X120.366Y-110.576
X120.366Y-113.116
X120.366Y-115.656
X120.366Y-118.196
X120.366Y-120.736
X120.366Y-123.276
X120.366Y-125.816
X120.366Y-128.356
X120.366Y-130.896
X120.366Y-133.436
X120.366Y-135.976
X120.366Y-138.516
X120.366Y-141.056
X120.366Y-143.596
X120.366Y-146.136
X120.366Y-148.676
X120.366Y-151.216
X128.006Y-103.
X128.006Y-105.54
X128.006Y-108.08
X128.006Y-110.62
X128.006Y-113.16
X128.006Y-115.7
X128.006Y-118.24
X128.006Y-120.78
X128.006Y-123.32
X128.006Y-125.86
X128.006Y-128.4
X128.006Y-130.94
X128.006Y-133.48
X128.006Y-136.02
X128.006Y-138.56
X128.006Y-141.1
X128.006Y-143.64
X128.006Y-146.18
X128.006Y-148.72
X128.006Y-151.26
X135.606Y-100.416
X135.606Y-102.956
X135.606Y-105.496
X135.606Y-108.036
X135.606Y-110.576
X135.606Y-113.116
X135.606Y-115.656
X135.606Y-118.196
X135.606Y-120.736
X135.606Y-123.276
X135.606Y-125.816
X135.606Y-128.356
X135.606Y-130.896
X135.606Y-133.436
X135.606Y-135.976
X135.606Y-138.516
X135.606Y-141.056
X135.606Y-143.596
X135.606Y-146.136
X135.606Y-148.676
X135.606Y-151.216
T3
X86.804Y-111.328
X86.804Y-113.868
X86.804Y-116.408
X86.804Y-118.948
X89.344Y-111.328
X89.344Y-113.868
X89.344Y-116.408
X89.344Y-118.948
T0
M30
