G04 #@! TF.GenerationSoftware,KiCad,Pcbnew,(5.1.5)-2*
G04 #@! TF.CreationDate,2020-04-13T15:56:23+02:00*
G04 #@! TF.ProjectId,kickswitch,6b69636b-7377-4697-9463-682e6b696361,rev?*
G04 #@! TF.SameCoordinates,Original*
G04 #@! TF.FileFunction,Soldermask,Bot*
G04 #@! TF.FilePolarity,Negative*
%FSLAX46Y46*%
G04 Gerber Fmt 4.6, Leading zero omitted, Abs format (unit mm)*
G04 Created by KiCad (PCBNEW (5.1.5)-2) date 2020-04-13 15:56:23*
%MOMM*%
%LPD*%
G04 APERTURE LIST*
%ADD10R,1.460000X1.050000*%
%ADD11R,2.000000X2.000000*%
%ADD12O,2.000000X2.000000*%
%ADD13C,1.900000*%
%ADD14R,2.100000X2.100000*%
%ADD15O,2.100000X2.100000*%
G04 APERTURE END LIST*
D10*
X95348880Y-153111240D03*
X95348880Y-152161240D03*
X95348880Y-151211240D03*
X97548880Y-151211240D03*
X97548880Y-153111240D03*
X104345560Y-153111240D03*
X104345560Y-152161240D03*
X104345560Y-151211240D03*
X106545560Y-151211240D03*
X106545560Y-153111240D03*
D11*
X97261680Y-111963200D03*
D12*
X104881680Y-144983200D03*
X97261680Y-114503200D03*
X104881680Y-142443200D03*
X97261680Y-117043200D03*
X104881680Y-139903200D03*
X97261680Y-119583200D03*
X104881680Y-137363200D03*
X97261680Y-122123200D03*
X104881680Y-134823200D03*
X97261680Y-124663200D03*
X104881680Y-132283200D03*
X97261680Y-127203200D03*
X104881680Y-129743200D03*
X97261680Y-129743200D03*
X104881680Y-127203200D03*
X97261680Y-132283200D03*
X104881680Y-124663200D03*
X97261680Y-134823200D03*
X104881680Y-122123200D03*
X97261680Y-137363200D03*
X104881680Y-119583200D03*
X97261680Y-139903200D03*
X104881680Y-117043200D03*
X97261680Y-142443200D03*
X104881680Y-114503200D03*
X97261680Y-144983200D03*
X104881680Y-111963200D03*
D11*
X117520720Y-102954280D03*
D12*
X132760720Y-151214280D03*
X117520720Y-105494280D03*
X132760720Y-148674280D03*
X117520720Y-108034280D03*
X132760720Y-146134280D03*
X117520720Y-110574280D03*
X132760720Y-143594280D03*
X117520720Y-113114280D03*
X132760720Y-141054280D03*
X117520720Y-115654280D03*
X132760720Y-138514280D03*
X117520720Y-118194280D03*
X132760720Y-135974280D03*
X117520720Y-120734280D03*
X132760720Y-133434280D03*
X117520720Y-123274280D03*
X132760720Y-130894280D03*
X117520720Y-125814280D03*
X132760720Y-128354280D03*
X117520720Y-128354280D03*
X132760720Y-125814280D03*
X117520720Y-130894280D03*
X132760720Y-123274280D03*
X117520720Y-133434280D03*
X132760720Y-120734280D03*
X117520720Y-135974280D03*
X132760720Y-118194280D03*
X117520720Y-138514280D03*
X132760720Y-115654280D03*
X117520720Y-141054280D03*
X132760720Y-113114280D03*
X117520720Y-143594280D03*
X132760720Y-110574280D03*
X117520720Y-146134280D03*
X132760720Y-108034280D03*
X117520720Y-148674280D03*
X132760720Y-105494280D03*
X117520720Y-151214280D03*
X132760720Y-102954280D03*
D11*
X125120400Y-100370640D03*
D12*
X140360400Y-151170640D03*
X125120400Y-102910640D03*
X140360400Y-148630640D03*
X125120400Y-105450640D03*
X140360400Y-146090640D03*
X125120400Y-107990640D03*
X140360400Y-143550640D03*
X125120400Y-110530640D03*
X140360400Y-141010640D03*
X125120400Y-113070640D03*
X140360400Y-138470640D03*
X125120400Y-115610640D03*
X140360400Y-135930640D03*
X125120400Y-118150640D03*
X140360400Y-133390640D03*
X125120400Y-120690640D03*
X140360400Y-130850640D03*
X125120400Y-123230640D03*
X140360400Y-128310640D03*
X125120400Y-125770640D03*
X140360400Y-125770640D03*
X125120400Y-128310640D03*
X140360400Y-123230640D03*
X125120400Y-130850640D03*
X140360400Y-120690640D03*
X125120400Y-133390640D03*
X140360400Y-118150640D03*
X125120400Y-135930640D03*
X140360400Y-115610640D03*
X125120400Y-138470640D03*
X140360400Y-113070640D03*
X125120400Y-141010640D03*
X140360400Y-110530640D03*
X125120400Y-143550640D03*
X140360400Y-107990640D03*
X125120400Y-146090640D03*
X140360400Y-105450640D03*
X125120400Y-148630640D03*
X140360400Y-102910640D03*
X125120400Y-151170640D03*
X140360400Y-100370640D03*
D13*
X91683840Y-137993120D03*
X91683840Y-142873120D03*
D14*
X89352120Y-130312160D03*
D15*
X86812120Y-130312160D03*
X89352120Y-127772160D03*
X86812120Y-127772160D03*
X89352120Y-125232160D03*
X86812120Y-125232160D03*
X89352120Y-122692160D03*
X86812120Y-122692160D03*
X89352120Y-120152160D03*
X86812120Y-120152160D03*
X89352120Y-117612160D03*
X86812120Y-117612160D03*
X89352120Y-115072160D03*
X86812120Y-115072160D03*
X89352120Y-112532160D03*
X86812120Y-112532160D03*
X89352120Y-109992160D03*
X86812120Y-109992160D03*
X89352120Y-107452160D03*
X86812120Y-107452160D03*
D11*
X111815880Y-124109480D03*
D12*
X111815880Y-121569480D03*
X111815880Y-119029480D03*
X111815880Y-116489480D03*
X111815880Y-113949480D03*
X111815880Y-111409480D03*
X111815880Y-108869480D03*
X111815880Y-106329480D03*
X111815880Y-103789480D03*
D11*
X146070320Y-100416360D03*
D12*
X146070320Y-102956360D03*
X146070320Y-105496360D03*
X146070320Y-108036360D03*
X146070320Y-110576360D03*
X146070320Y-113116360D03*
X146070320Y-115656360D03*
X146070320Y-118196360D03*
X146070320Y-120736360D03*
X146070320Y-123276360D03*
D15*
X129250000Y-109650000D03*
X129250000Y-107110000D03*
D14*
X129250000Y-104570000D03*
M02*
