G04 #@! TF.FileFunction,Legend,Top*
%FSLAX46Y46*%
G04 Gerber Fmt 4.6, Leading zero omitted, Abs format (unit mm)*
G04 Created by KiCad (PCBNEW 4.0.7) date 07/05/18 11:36:52*
%MOMM*%
%LPD*%
G01*
G04 APERTURE LIST*
%ADD10C,0.100000*%
%ADD11C,0.300000*%
%ADD12C,0.120000*%
%ADD13C,0.150000*%
G04 APERTURE END LIST*
D10*
D11*
X81308083Y-106623420D02*
X81165226Y-106551991D01*
X80950940Y-106551991D01*
X80736655Y-106623420D01*
X80593797Y-106766277D01*
X80522369Y-106909134D01*
X80450940Y-107194849D01*
X80450940Y-107409134D01*
X80522369Y-107694849D01*
X80593797Y-107837706D01*
X80736655Y-107980563D01*
X80950940Y-108051991D01*
X81093797Y-108051991D01*
X81308083Y-107980563D01*
X81379512Y-107909134D01*
X81379512Y-107409134D01*
X81093797Y-107409134D01*
X82022369Y-108051991D02*
X82022369Y-106551991D01*
X82879512Y-108051991D01*
X82879512Y-106551991D01*
X83593798Y-108051991D02*
X83593798Y-106551991D01*
X83950941Y-106551991D01*
X84165226Y-106623420D01*
X84308084Y-106766277D01*
X84379512Y-106909134D01*
X84450941Y-107194849D01*
X84450941Y-107409134D01*
X84379512Y-107694849D01*
X84308084Y-107837706D01*
X84165226Y-107980563D01*
X83950941Y-108051991D01*
X83593798Y-108051991D01*
X79154769Y-110845991D02*
X78654769Y-110131706D01*
X78297626Y-110845991D02*
X78297626Y-109345991D01*
X78869054Y-109345991D01*
X79011912Y-109417420D01*
X79083340Y-109488849D01*
X79154769Y-109631706D01*
X79154769Y-109845991D01*
X79083340Y-109988849D01*
X79011912Y-110060277D01*
X78869054Y-110131706D01*
X78297626Y-110131706D01*
X79797626Y-110060277D02*
X80297626Y-110060277D01*
X80511912Y-110845991D02*
X79797626Y-110845991D01*
X79797626Y-109345991D01*
X80511912Y-109345991D01*
X81083340Y-110774563D02*
X81297626Y-110845991D01*
X81654769Y-110845991D01*
X81797626Y-110774563D01*
X81869055Y-110703134D01*
X81940483Y-110560277D01*
X81940483Y-110417420D01*
X81869055Y-110274563D01*
X81797626Y-110203134D01*
X81654769Y-110131706D01*
X81369055Y-110060277D01*
X81226197Y-109988849D01*
X81154769Y-109917420D01*
X81083340Y-109774563D01*
X81083340Y-109631706D01*
X81154769Y-109488849D01*
X81226197Y-109417420D01*
X81369055Y-109345991D01*
X81726197Y-109345991D01*
X81940483Y-109417420D01*
X82583340Y-110060277D02*
X83083340Y-110060277D01*
X83297626Y-110845991D02*
X82583340Y-110845991D01*
X82583340Y-109345991D01*
X83297626Y-109345991D01*
X83726197Y-109345991D02*
X84583340Y-109345991D01*
X84154769Y-110845991D02*
X84154769Y-109345991D01*
X77940483Y-109087420D02*
X84726197Y-109087420D01*
X81702401Y-113220891D02*
X81202401Y-112506606D01*
X80845258Y-113220891D02*
X80845258Y-111720891D01*
X81416686Y-111720891D01*
X81559544Y-111792320D01*
X81630972Y-111863749D01*
X81702401Y-112006606D01*
X81702401Y-112220891D01*
X81630972Y-112363749D01*
X81559544Y-112435177D01*
X81416686Y-112506606D01*
X80845258Y-112506606D01*
X82202401Y-111720891D02*
X83202401Y-113220891D01*
X83202401Y-111720891D02*
X82202401Y-113220891D01*
X83773829Y-113220891D02*
X83773829Y-111720891D01*
X84130972Y-111720891D01*
X84345257Y-111792320D01*
X84488115Y-111935177D01*
X84559543Y-112078034D01*
X84630972Y-112363749D01*
X84630972Y-112578034D01*
X84559543Y-112863749D01*
X84488115Y-113006606D01*
X84345257Y-113149463D01*
X84130972Y-113220891D01*
X83773829Y-113220891D01*
X80809543Y-114291371D02*
X81666686Y-114291371D01*
X81238115Y-115791371D02*
X81238115Y-114291371D01*
X82023829Y-114291371D02*
X83023829Y-115791371D01*
X83023829Y-114291371D02*
X82023829Y-115791371D01*
X83595257Y-115791371D02*
X83595257Y-114291371D01*
X83952400Y-114291371D01*
X84166685Y-114362800D01*
X84309543Y-114505657D01*
X84380971Y-114648514D01*
X84452400Y-114934229D01*
X84452400Y-115148514D01*
X84380971Y-115434229D01*
X84309543Y-115577086D01*
X84166685Y-115719943D01*
X83952400Y-115791371D01*
X83595257Y-115791371D01*
X81012898Y-118222151D02*
X81012898Y-116722151D01*
X81584326Y-116722151D01*
X81727184Y-116793580D01*
X81798612Y-116865009D01*
X81870041Y-117007866D01*
X81870041Y-117222151D01*
X81798612Y-117365009D01*
X81727184Y-117436437D01*
X81584326Y-117507866D01*
X81012898Y-117507866D01*
X82512898Y-118222151D02*
X82512898Y-116722151D01*
X82870041Y-116722151D01*
X83084326Y-116793580D01*
X83227184Y-116936437D01*
X83298612Y-117079294D01*
X83370041Y-117365009D01*
X83370041Y-117579294D01*
X83298612Y-117865009D01*
X83227184Y-118007866D01*
X83084326Y-118150723D01*
X82870041Y-118222151D01*
X82512898Y-118222151D01*
X83941469Y-116865009D02*
X84012898Y-116793580D01*
X84155755Y-116722151D01*
X84512898Y-116722151D01*
X84655755Y-116793580D01*
X84727184Y-116865009D01*
X84798612Y-117007866D01*
X84798612Y-117150723D01*
X84727184Y-117365009D01*
X83870041Y-118222151D01*
X84798612Y-118222151D01*
X80984958Y-120848511D02*
X80984958Y-119348511D01*
X81556386Y-119348511D01*
X81699244Y-119419940D01*
X81770672Y-119491369D01*
X81842101Y-119634226D01*
X81842101Y-119848511D01*
X81770672Y-119991369D01*
X81699244Y-120062797D01*
X81556386Y-120134226D01*
X80984958Y-120134226D01*
X82484958Y-120848511D02*
X82484958Y-119348511D01*
X82842101Y-119348511D01*
X83056386Y-119419940D01*
X83199244Y-119562797D01*
X83270672Y-119705654D01*
X83342101Y-119991369D01*
X83342101Y-120205654D01*
X83270672Y-120491369D01*
X83199244Y-120634226D01*
X83056386Y-120777083D01*
X82842101Y-120848511D01*
X82484958Y-120848511D01*
X83842101Y-119348511D02*
X84770672Y-119348511D01*
X84270672Y-119919940D01*
X84484958Y-119919940D01*
X84627815Y-119991369D01*
X84699244Y-120062797D01*
X84770672Y-120205654D01*
X84770672Y-120562797D01*
X84699244Y-120705654D01*
X84627815Y-120777083D01*
X84484958Y-120848511D01*
X84056386Y-120848511D01*
X83913529Y-120777083D01*
X83842101Y-120705654D01*
X81096718Y-123418991D02*
X81096718Y-121918991D01*
X81668146Y-121918991D01*
X81811004Y-121990420D01*
X81882432Y-122061849D01*
X81953861Y-122204706D01*
X81953861Y-122418991D01*
X81882432Y-122561849D01*
X81811004Y-122633277D01*
X81668146Y-122704706D01*
X81096718Y-122704706D01*
X82596718Y-123418991D02*
X82596718Y-121918991D01*
X82953861Y-121918991D01*
X83168146Y-121990420D01*
X83311004Y-122133277D01*
X83382432Y-122276134D01*
X83453861Y-122561849D01*
X83453861Y-122776134D01*
X83382432Y-123061849D01*
X83311004Y-123204706D01*
X83168146Y-123347563D01*
X82953861Y-123418991D01*
X82596718Y-123418991D01*
X84739575Y-122418991D02*
X84739575Y-123418991D01*
X84382432Y-121847563D02*
X84025289Y-122918991D01*
X84953861Y-122918991D01*
X81292298Y-125849771D02*
X81292298Y-124349771D01*
X81863726Y-124349771D01*
X82006584Y-124421200D01*
X82078012Y-124492629D01*
X82149441Y-124635486D01*
X82149441Y-124849771D01*
X82078012Y-124992629D01*
X82006584Y-125064057D01*
X81863726Y-125135486D01*
X81292298Y-125135486D01*
X82792298Y-125849771D02*
X82792298Y-124349771D01*
X83149441Y-124349771D01*
X83363726Y-124421200D01*
X83506584Y-124564057D01*
X83578012Y-124706914D01*
X83649441Y-124992629D01*
X83649441Y-125206914D01*
X83578012Y-125492629D01*
X83506584Y-125635486D01*
X83363726Y-125778343D01*
X83149441Y-125849771D01*
X82792298Y-125849771D01*
X85006584Y-124349771D02*
X84292298Y-124349771D01*
X84220869Y-125064057D01*
X84292298Y-124992629D01*
X84435155Y-124921200D01*
X84792298Y-124921200D01*
X84935155Y-124992629D01*
X85006584Y-125064057D01*
X85078012Y-125206914D01*
X85078012Y-125564057D01*
X85006584Y-125706914D01*
X84935155Y-125778343D01*
X84792298Y-125849771D01*
X84435155Y-125849771D01*
X84292298Y-125778343D01*
X84220869Y-125706914D01*
X81264358Y-128448191D02*
X81264358Y-126948191D01*
X81835786Y-126948191D01*
X81978644Y-127019620D01*
X82050072Y-127091049D01*
X82121501Y-127233906D01*
X82121501Y-127448191D01*
X82050072Y-127591049D01*
X81978644Y-127662477D01*
X81835786Y-127733906D01*
X81264358Y-127733906D01*
X82764358Y-128448191D02*
X82764358Y-126948191D01*
X83121501Y-126948191D01*
X83335786Y-127019620D01*
X83478644Y-127162477D01*
X83550072Y-127305334D01*
X83621501Y-127591049D01*
X83621501Y-127805334D01*
X83550072Y-128091049D01*
X83478644Y-128233906D01*
X83335786Y-128376763D01*
X83121501Y-128448191D01*
X82764358Y-128448191D01*
X84121501Y-126948191D02*
X85121501Y-126948191D01*
X84478644Y-128448191D01*
X81292298Y-131102491D02*
X81292298Y-129602491D01*
X81863726Y-129602491D01*
X82006584Y-129673920D01*
X82078012Y-129745349D01*
X82149441Y-129888206D01*
X82149441Y-130102491D01*
X82078012Y-130245349D01*
X82006584Y-130316777D01*
X81863726Y-130388206D01*
X81292298Y-130388206D01*
X83292298Y-130316777D02*
X83506584Y-130388206D01*
X83578012Y-130459634D01*
X83649441Y-130602491D01*
X83649441Y-130816777D01*
X83578012Y-130959634D01*
X83506584Y-131031063D01*
X83363726Y-131102491D01*
X82792298Y-131102491D01*
X82792298Y-129602491D01*
X83292298Y-129602491D01*
X83435155Y-129673920D01*
X83506584Y-129745349D01*
X83578012Y-129888206D01*
X83578012Y-130031063D01*
X83506584Y-130173920D01*
X83435155Y-130245349D01*
X83292298Y-130316777D01*
X82792298Y-130316777D01*
X84578012Y-129602491D02*
X84720869Y-129602491D01*
X84863726Y-129673920D01*
X84935155Y-129745349D01*
X85006584Y-129888206D01*
X85078012Y-130173920D01*
X85078012Y-130531063D01*
X85006584Y-130816777D01*
X84935155Y-130959634D01*
X84863726Y-131031063D01*
X84720869Y-131102491D01*
X84578012Y-131102491D01*
X84435155Y-131031063D01*
X84363726Y-130959634D01*
X84292298Y-130816777D01*
X84220869Y-130531063D01*
X84220869Y-130173920D01*
X84292298Y-129888206D01*
X84363726Y-129745349D01*
X84435155Y-129673920D01*
X84578012Y-129602491D01*
X90971929Y-130419303D02*
X92114786Y-130419303D01*
X91543357Y-130990731D02*
X91543357Y-129847874D01*
X93543358Y-129490731D02*
X92829072Y-129490731D01*
X92757643Y-130205017D01*
X92829072Y-130133589D01*
X92971929Y-130062160D01*
X93329072Y-130062160D01*
X93471929Y-130133589D01*
X93543358Y-130205017D01*
X93614786Y-130347874D01*
X93614786Y-130705017D01*
X93543358Y-130847874D01*
X93471929Y-130919303D01*
X93329072Y-130990731D01*
X92971929Y-130990731D01*
X92829072Y-130919303D01*
X92757643Y-130847874D01*
X94043357Y-129490731D02*
X94543357Y-130990731D01*
X95043357Y-129490731D01*
X91071298Y-128504071D02*
X91071298Y-127004071D01*
X91642726Y-127004071D01*
X91785584Y-127075500D01*
X91857012Y-127146929D01*
X91928441Y-127289786D01*
X91928441Y-127504071D01*
X91857012Y-127646929D01*
X91785584Y-127718357D01*
X91642726Y-127789786D01*
X91071298Y-127789786D01*
X92571298Y-128504071D02*
X92571298Y-127004071D01*
X92928441Y-127004071D01*
X93142726Y-127075500D01*
X93285584Y-127218357D01*
X93357012Y-127361214D01*
X93428441Y-127646929D01*
X93428441Y-127861214D01*
X93357012Y-128146929D01*
X93285584Y-128289786D01*
X93142726Y-128432643D01*
X92928441Y-128504071D01*
X92571298Y-128504071D01*
X94714155Y-127004071D02*
X94428441Y-127004071D01*
X94285584Y-127075500D01*
X94214155Y-127146929D01*
X94071298Y-127361214D01*
X93999869Y-127646929D01*
X93999869Y-128218357D01*
X94071298Y-128361214D01*
X94142726Y-128432643D01*
X94285584Y-128504071D01*
X94571298Y-128504071D01*
X94714155Y-128432643D01*
X94785584Y-128361214D01*
X94857012Y-128218357D01*
X94857012Y-127861214D01*
X94785584Y-127718357D01*
X94714155Y-127646929D01*
X94571298Y-127575500D01*
X94285584Y-127575500D01*
X94142726Y-127646929D01*
X94071298Y-127718357D01*
X93999869Y-127861214D01*
X91015418Y-125933591D02*
X91015418Y-124433591D01*
X91586846Y-124433591D01*
X91729704Y-124505020D01*
X91801132Y-124576449D01*
X91872561Y-124719306D01*
X91872561Y-124933591D01*
X91801132Y-125076449D01*
X91729704Y-125147877D01*
X91586846Y-125219306D01*
X91015418Y-125219306D01*
X93015418Y-125147877D02*
X93229704Y-125219306D01*
X93301132Y-125290734D01*
X93372561Y-125433591D01*
X93372561Y-125647877D01*
X93301132Y-125790734D01*
X93229704Y-125862163D01*
X93086846Y-125933591D01*
X92515418Y-125933591D01*
X92515418Y-124433591D01*
X93015418Y-124433591D01*
X93158275Y-124505020D01*
X93229704Y-124576449D01*
X93301132Y-124719306D01*
X93301132Y-124862163D01*
X93229704Y-125005020D01*
X93158275Y-125076449D01*
X93015418Y-125147877D01*
X92515418Y-125147877D01*
X94801132Y-125933591D02*
X93943989Y-125933591D01*
X94372561Y-125933591D02*
X94372561Y-124433591D01*
X94229704Y-124647877D01*
X94086846Y-124790734D01*
X93943989Y-124862163D01*
X90931598Y-123418991D02*
X90931598Y-121918991D01*
X91503026Y-121918991D01*
X91645884Y-121990420D01*
X91717312Y-122061849D01*
X91788741Y-122204706D01*
X91788741Y-122418991D01*
X91717312Y-122561849D01*
X91645884Y-122633277D01*
X91503026Y-122704706D01*
X90931598Y-122704706D01*
X92931598Y-122633277D02*
X93145884Y-122704706D01*
X93217312Y-122776134D01*
X93288741Y-122918991D01*
X93288741Y-123133277D01*
X93217312Y-123276134D01*
X93145884Y-123347563D01*
X93003026Y-123418991D01*
X92431598Y-123418991D01*
X92431598Y-121918991D01*
X92931598Y-121918991D01*
X93074455Y-121990420D01*
X93145884Y-122061849D01*
X93217312Y-122204706D01*
X93217312Y-122347563D01*
X93145884Y-122490420D01*
X93074455Y-122561849D01*
X92931598Y-122633277D01*
X92431598Y-122633277D01*
X93860169Y-122061849D02*
X93931598Y-121990420D01*
X94074455Y-121918991D01*
X94431598Y-121918991D01*
X94574455Y-121990420D01*
X94645884Y-122061849D01*
X94717312Y-122204706D01*
X94717312Y-122347563D01*
X94645884Y-122561849D01*
X93788741Y-123418991D01*
X94717312Y-123418991D01*
X90990397Y-120736751D02*
X90990397Y-119236751D01*
X91490397Y-120308180D01*
X91990397Y-119236751D01*
X91990397Y-120736751D01*
X92990397Y-119236751D02*
X93276111Y-119236751D01*
X93418969Y-119308180D01*
X93561826Y-119451037D01*
X93633254Y-119736751D01*
X93633254Y-120236751D01*
X93561826Y-120522466D01*
X93418969Y-120665323D01*
X93276111Y-120736751D01*
X92990397Y-120736751D01*
X92847540Y-120665323D01*
X92704683Y-120522466D01*
X92633254Y-120236751D01*
X92633254Y-119736751D01*
X92704683Y-119451037D01*
X92847540Y-119308180D01*
X92990397Y-119236751D01*
X94204683Y-120665323D02*
X94418969Y-120736751D01*
X94776112Y-120736751D01*
X94918969Y-120665323D01*
X94990398Y-120593894D01*
X95061826Y-120451037D01*
X95061826Y-120308180D01*
X94990398Y-120165323D01*
X94918969Y-120093894D01*
X94776112Y-120022466D01*
X94490398Y-119951037D01*
X94347540Y-119879609D01*
X94276112Y-119808180D01*
X94204683Y-119665323D01*
X94204683Y-119522466D01*
X94276112Y-119379609D01*
X94347540Y-119308180D01*
X94490398Y-119236751D01*
X94847540Y-119236751D01*
X95061826Y-119308180D01*
X95704683Y-120736751D02*
X95704683Y-119236751D01*
X91046277Y-118305971D02*
X91046277Y-116805971D01*
X91546277Y-117877400D01*
X92046277Y-116805971D01*
X92046277Y-118305971D01*
X92760563Y-118305971D02*
X92760563Y-116805971D01*
X93403420Y-118234543D02*
X93617706Y-118305971D01*
X93974849Y-118305971D01*
X94117706Y-118234543D01*
X94189135Y-118163114D01*
X94260563Y-118020257D01*
X94260563Y-117877400D01*
X94189135Y-117734543D01*
X94117706Y-117663114D01*
X93974849Y-117591686D01*
X93689135Y-117520257D01*
X93546277Y-117448829D01*
X93474849Y-117377400D01*
X93403420Y-117234543D01*
X93403420Y-117091686D01*
X93474849Y-116948829D01*
X93546277Y-116877400D01*
X93689135Y-116805971D01*
X94046277Y-116805971D01*
X94260563Y-116877400D01*
X95189134Y-116805971D02*
X95474848Y-116805971D01*
X95617706Y-116877400D01*
X95760563Y-117020257D01*
X95831991Y-117305971D01*
X95831991Y-117805971D01*
X95760563Y-118091686D01*
X95617706Y-118234543D01*
X95474848Y-118305971D01*
X95189134Y-118305971D01*
X95046277Y-118234543D01*
X94903420Y-118091686D01*
X94831991Y-117805971D01*
X94831991Y-117305971D01*
X94903420Y-117020257D01*
X95046277Y-116877400D01*
X95189134Y-116805971D01*
X91027809Y-115692003D02*
X91242095Y-115763431D01*
X91599238Y-115763431D01*
X91742095Y-115692003D01*
X91813524Y-115620574D01*
X91884952Y-115477717D01*
X91884952Y-115334860D01*
X91813524Y-115192003D01*
X91742095Y-115120574D01*
X91599238Y-115049146D01*
X91313524Y-114977717D01*
X91170666Y-114906289D01*
X91099238Y-114834860D01*
X91027809Y-114692003D01*
X91027809Y-114549146D01*
X91099238Y-114406289D01*
X91170666Y-114334860D01*
X91313524Y-114263431D01*
X91670666Y-114263431D01*
X91884952Y-114334860D01*
X93384952Y-115620574D02*
X93313523Y-115692003D01*
X93099237Y-115763431D01*
X92956380Y-115763431D01*
X92742095Y-115692003D01*
X92599237Y-115549146D01*
X92527809Y-115406289D01*
X92456380Y-115120574D01*
X92456380Y-114906289D01*
X92527809Y-114620574D01*
X92599237Y-114477717D01*
X92742095Y-114334860D01*
X92956380Y-114263431D01*
X93099237Y-114263431D01*
X93313523Y-114334860D01*
X93384952Y-114406289D01*
X94027809Y-115763431D02*
X94027809Y-114263431D01*
X94884952Y-115763431D02*
X94242095Y-114906289D01*
X94884952Y-114263431D02*
X94027809Y-115120574D01*
X91058669Y-112820260D02*
X91772955Y-112820260D01*
X90915812Y-113248831D02*
X91415812Y-111748831D01*
X91915812Y-113248831D01*
X93272955Y-113248831D02*
X92772955Y-112534546D01*
X92415812Y-113248831D02*
X92415812Y-111748831D01*
X92987240Y-111748831D01*
X93130098Y-111820260D01*
X93201526Y-111891689D01*
X93272955Y-112034546D01*
X93272955Y-112248831D01*
X93201526Y-112391689D01*
X93130098Y-112463117D01*
X92987240Y-112534546D01*
X92415812Y-112534546D01*
X93915812Y-112463117D02*
X94415812Y-112463117D01*
X94630098Y-113248831D02*
X93915812Y-113248831D01*
X93915812Y-111748831D01*
X94630098Y-111748831D01*
X95772955Y-112463117D02*
X95272955Y-112463117D01*
X95272955Y-113248831D02*
X95272955Y-111748831D01*
X95987241Y-111748831D01*
X91127178Y-110650411D02*
X91127178Y-109150411D01*
X91698606Y-109150411D01*
X91841464Y-109221840D01*
X91912892Y-109293269D01*
X91984321Y-109436126D01*
X91984321Y-109650411D01*
X91912892Y-109793269D01*
X91841464Y-109864697D01*
X91698606Y-109936126D01*
X91127178Y-109936126D01*
X93484321Y-110507554D02*
X93412892Y-110578983D01*
X93198606Y-110650411D01*
X93055749Y-110650411D01*
X92841464Y-110578983D01*
X92698606Y-110436126D01*
X92627178Y-110293269D01*
X92555749Y-110007554D01*
X92555749Y-109793269D01*
X92627178Y-109507554D01*
X92698606Y-109364697D01*
X92841464Y-109221840D01*
X93055749Y-109150411D01*
X93198606Y-109150411D01*
X93412892Y-109221840D01*
X93484321Y-109293269D01*
X94770035Y-109650411D02*
X94770035Y-110650411D01*
X94412892Y-109078983D02*
X94055749Y-110150411D01*
X94984321Y-110150411D01*
X91294818Y-108024051D02*
X91294818Y-106524051D01*
X91866246Y-106524051D01*
X92009104Y-106595480D01*
X92080532Y-106666909D01*
X92151961Y-106809766D01*
X92151961Y-107024051D01*
X92080532Y-107166909D01*
X92009104Y-107238337D01*
X91866246Y-107309766D01*
X91294818Y-107309766D01*
X93651961Y-107881194D02*
X93580532Y-107952623D01*
X93366246Y-108024051D01*
X93223389Y-108024051D01*
X93009104Y-107952623D01*
X92866246Y-107809766D01*
X92794818Y-107666909D01*
X92723389Y-107381194D01*
X92723389Y-107166909D01*
X92794818Y-106881194D01*
X92866246Y-106738337D01*
X93009104Y-106595480D01*
X93223389Y-106524051D01*
X93366246Y-106524051D01*
X93580532Y-106595480D01*
X93651961Y-106666909D01*
X95009104Y-106524051D02*
X94294818Y-106524051D01*
X94223389Y-107238337D01*
X94294818Y-107166909D01*
X94437675Y-107095480D01*
X94794818Y-107095480D01*
X94937675Y-107166909D01*
X95009104Y-107238337D01*
X95080532Y-107381194D01*
X95080532Y-107738337D01*
X95009104Y-107881194D01*
X94937675Y-107952623D01*
X94794818Y-108024051D01*
X94437675Y-108024051D01*
X94294818Y-107952623D01*
X94223389Y-107881194D01*
X90877957Y-96263851D02*
X90877957Y-94763851D01*
X91735100Y-96263851D02*
X91092243Y-95406709D01*
X91735100Y-94763851D02*
X90877957Y-95620994D01*
X92377957Y-96263851D02*
X92377957Y-95263851D01*
X92377957Y-94763851D02*
X92306528Y-94835280D01*
X92377957Y-94906709D01*
X92449385Y-94835280D01*
X92377957Y-94763851D01*
X92377957Y-94906709D01*
X93735100Y-96192423D02*
X93592243Y-96263851D01*
X93306529Y-96263851D01*
X93163671Y-96192423D01*
X93092243Y-96120994D01*
X93020814Y-95978137D01*
X93020814Y-95549566D01*
X93092243Y-95406709D01*
X93163671Y-95335280D01*
X93306529Y-95263851D01*
X93592243Y-95263851D01*
X93735100Y-95335280D01*
X94377957Y-96263851D02*
X94377957Y-94763851D01*
X94520814Y-95692423D02*
X94949385Y-96263851D01*
X94949385Y-95263851D02*
X94377957Y-95835280D01*
X95520814Y-96192423D02*
X95663671Y-96263851D01*
X95949386Y-96263851D01*
X96092243Y-96192423D01*
X96163671Y-96049566D01*
X96163671Y-95978137D01*
X96092243Y-95835280D01*
X95949386Y-95763851D01*
X95735100Y-95763851D01*
X95592243Y-95692423D01*
X95520814Y-95549566D01*
X95520814Y-95478137D01*
X95592243Y-95335280D01*
X95735100Y-95263851D01*
X95949386Y-95263851D01*
X96092243Y-95335280D01*
X96592243Y-95263851D02*
X97163672Y-95263851D01*
X96806529Y-94763851D02*
X96806529Y-96049566D01*
X96877957Y-96192423D01*
X97020815Y-96263851D01*
X97163672Y-96263851D01*
X98306529Y-96263851D02*
X98306529Y-95478137D01*
X98235100Y-95335280D01*
X98092243Y-95263851D01*
X97806529Y-95263851D01*
X97663672Y-95335280D01*
X98306529Y-96192423D02*
X98163672Y-96263851D01*
X97806529Y-96263851D01*
X97663672Y-96192423D01*
X97592243Y-96049566D01*
X97592243Y-95906709D01*
X97663672Y-95763851D01*
X97806529Y-95692423D01*
X98163672Y-95692423D01*
X98306529Y-95620994D01*
X99020815Y-96263851D02*
X99020815Y-95263851D01*
X99020815Y-95549566D02*
X99092243Y-95406709D01*
X99163672Y-95335280D01*
X99306529Y-95263851D01*
X99449386Y-95263851D01*
X99735100Y-95263851D02*
X100306529Y-95263851D01*
X99949386Y-94763851D02*
X99949386Y-96049566D01*
X100020814Y-96192423D01*
X100163672Y-96263851D01*
X100306529Y-96263851D01*
X101877957Y-96192423D02*
X102020814Y-96263851D01*
X102306529Y-96263851D01*
X102449386Y-96192423D01*
X102520814Y-96049566D01*
X102520814Y-95978137D01*
X102449386Y-95835280D01*
X102306529Y-95763851D01*
X102092243Y-95763851D01*
X101949386Y-95692423D01*
X101877957Y-95549566D01*
X101877957Y-95478137D01*
X101949386Y-95335280D01*
X102092243Y-95263851D01*
X102306529Y-95263851D01*
X102449386Y-95335280D01*
X103020815Y-95263851D02*
X103306529Y-96263851D01*
X103592243Y-95549566D01*
X103877958Y-96263851D01*
X104163672Y-95263851D01*
X104735101Y-96263851D02*
X104735101Y-95263851D01*
X104735101Y-94763851D02*
X104663672Y-94835280D01*
X104735101Y-94906709D01*
X104806529Y-94835280D01*
X104735101Y-94763851D01*
X104735101Y-94906709D01*
X105235101Y-95263851D02*
X105806530Y-95263851D01*
X105449387Y-94763851D02*
X105449387Y-96049566D01*
X105520815Y-96192423D01*
X105663673Y-96263851D01*
X105806530Y-96263851D01*
X106949387Y-96192423D02*
X106806530Y-96263851D01*
X106520816Y-96263851D01*
X106377958Y-96192423D01*
X106306530Y-96120994D01*
X106235101Y-95978137D01*
X106235101Y-95549566D01*
X106306530Y-95406709D01*
X106377958Y-95335280D01*
X106520816Y-95263851D01*
X106806530Y-95263851D01*
X106949387Y-95335280D01*
X107592244Y-96263851D02*
X107592244Y-94763851D01*
X108235101Y-96263851D02*
X108235101Y-95478137D01*
X108163672Y-95335280D01*
X108020815Y-95263851D01*
X107806530Y-95263851D01*
X107663672Y-95335280D01*
X107592244Y-95406709D01*
X109520815Y-96192423D02*
X109377958Y-96263851D01*
X109092244Y-96263851D01*
X108949387Y-96192423D01*
X108877958Y-96049566D01*
X108877958Y-95478137D01*
X108949387Y-95335280D01*
X109092244Y-95263851D01*
X109377958Y-95263851D01*
X109520815Y-95335280D01*
X109592244Y-95478137D01*
X109592244Y-95620994D01*
X108877958Y-95763851D01*
X110235101Y-96263851D02*
X110235101Y-95263851D01*
X110235101Y-95549566D02*
X110306529Y-95406709D01*
X110377958Y-95335280D01*
X110520815Y-95263851D01*
X110663672Y-95263851D01*
X113520815Y-95120994D02*
X113377957Y-95049566D01*
X113092243Y-95049566D01*
X112949386Y-95120994D01*
X112806529Y-95263851D01*
X112735100Y-95406709D01*
X112735100Y-95692423D01*
X112806529Y-95835280D01*
X112949386Y-95978137D01*
X113092243Y-96049566D01*
X113377957Y-96049566D01*
X113520815Y-95978137D01*
X113235100Y-94549566D02*
X112877957Y-94620994D01*
X112520815Y-94835280D01*
X112306529Y-95192423D01*
X112235100Y-95549566D01*
X112306529Y-95906709D01*
X112520815Y-96263851D01*
X112877957Y-96478137D01*
X113235100Y-96549566D01*
X113592243Y-96478137D01*
X113949386Y-96263851D01*
X114163672Y-95906709D01*
X114235100Y-95549566D01*
X114163672Y-95192423D01*
X113949386Y-94835280D01*
X113592243Y-94620994D01*
X113235100Y-94549566D01*
X115949386Y-94906709D02*
X116020815Y-94835280D01*
X116163672Y-94763851D01*
X116520815Y-94763851D01*
X116663672Y-94835280D01*
X116735101Y-94906709D01*
X116806529Y-95049566D01*
X116806529Y-95192423D01*
X116735101Y-95406709D01*
X115877958Y-96263851D01*
X116806529Y-96263851D01*
X117735100Y-94763851D02*
X117877957Y-94763851D01*
X118020814Y-94835280D01*
X118092243Y-94906709D01*
X118163672Y-95049566D01*
X118235100Y-95335280D01*
X118235100Y-95692423D01*
X118163672Y-95978137D01*
X118092243Y-96120994D01*
X118020814Y-96192423D01*
X117877957Y-96263851D01*
X117735100Y-96263851D01*
X117592243Y-96192423D01*
X117520814Y-96120994D01*
X117449386Y-95978137D01*
X117377957Y-95692423D01*
X117377957Y-95335280D01*
X117449386Y-95049566D01*
X117520814Y-94906709D01*
X117592243Y-94835280D01*
X117735100Y-94763851D01*
X119663671Y-96263851D02*
X118806528Y-96263851D01*
X119235100Y-96263851D02*
X119235100Y-94763851D01*
X119092243Y-94978137D01*
X118949385Y-95120994D01*
X118806528Y-95192423D01*
X120520814Y-95406709D02*
X120377956Y-95335280D01*
X120306528Y-95263851D01*
X120235099Y-95120994D01*
X120235099Y-95049566D01*
X120306528Y-94906709D01*
X120377956Y-94835280D01*
X120520814Y-94763851D01*
X120806528Y-94763851D01*
X120949385Y-94835280D01*
X121020814Y-94906709D01*
X121092242Y-95049566D01*
X121092242Y-95120994D01*
X121020814Y-95263851D01*
X120949385Y-95335280D01*
X120806528Y-95406709D01*
X120520814Y-95406709D01*
X120377956Y-95478137D01*
X120306528Y-95549566D01*
X120235099Y-95692423D01*
X120235099Y-95978137D01*
X120306528Y-96120994D01*
X120377956Y-96192423D01*
X120520814Y-96263851D01*
X120806528Y-96263851D01*
X120949385Y-96192423D01*
X121020814Y-96120994D01*
X121092242Y-95978137D01*
X121092242Y-95692423D01*
X121020814Y-95549566D01*
X120949385Y-95478137D01*
X120806528Y-95406709D01*
X122877956Y-96263851D02*
X122877956Y-94763851D01*
X122877956Y-95478137D02*
X123735099Y-95478137D01*
X123735099Y-96263851D02*
X123735099Y-94763851D01*
X125092242Y-96263851D02*
X125092242Y-95478137D01*
X125020813Y-95335280D01*
X124877956Y-95263851D01*
X124592242Y-95263851D01*
X124449385Y-95335280D01*
X125092242Y-96192423D02*
X124949385Y-96263851D01*
X124592242Y-96263851D01*
X124449385Y-96192423D01*
X124377956Y-96049566D01*
X124377956Y-95906709D01*
X124449385Y-95763851D01*
X124592242Y-95692423D01*
X124949385Y-95692423D01*
X125092242Y-95620994D01*
X125806528Y-95263851D02*
X125806528Y-96263851D01*
X125806528Y-95406709D02*
X125877956Y-95335280D01*
X126020814Y-95263851D01*
X126235099Y-95263851D01*
X126377956Y-95335280D01*
X126449385Y-95478137D01*
X126449385Y-96263851D01*
X127092242Y-96192423D02*
X127235099Y-96263851D01*
X127520814Y-96263851D01*
X127663671Y-96192423D01*
X127735099Y-96049566D01*
X127735099Y-95978137D01*
X127663671Y-95835280D01*
X127520814Y-95763851D01*
X127306528Y-95763851D01*
X127163671Y-95692423D01*
X127092242Y-95549566D01*
X127092242Y-95478137D01*
X127163671Y-95335280D01*
X127306528Y-95263851D01*
X127520814Y-95263851D01*
X127663671Y-95335280D01*
X129306528Y-95549566D02*
X129235100Y-95478137D01*
X129092243Y-95406709D01*
X128949385Y-95406709D01*
X128806528Y-95478137D01*
X128735100Y-95549566D01*
X128663671Y-95692423D01*
X128663671Y-95835280D01*
X128735100Y-95978137D01*
X128806528Y-96049566D01*
X128949385Y-96120994D01*
X129092243Y-96120994D01*
X129235100Y-96049566D01*
X129306528Y-95978137D01*
X129306528Y-95406709D02*
X129306528Y-95978137D01*
X129377957Y-96049566D01*
X129449385Y-96049566D01*
X129592243Y-95978137D01*
X129663671Y-95835280D01*
X129663671Y-95478137D01*
X129520814Y-95263851D01*
X129306528Y-95120994D01*
X129020814Y-95049566D01*
X128735100Y-95120994D01*
X128520814Y-95263851D01*
X128377957Y-95478137D01*
X128306528Y-95763851D01*
X128377957Y-96049566D01*
X128520814Y-96263851D01*
X128735100Y-96406709D01*
X129020814Y-96478137D01*
X129306528Y-96406709D01*
X129520814Y-96263851D01*
X131020814Y-96263851D02*
X130306528Y-96263851D01*
X130306528Y-94763851D01*
X131520814Y-96263851D02*
X131520814Y-95263851D01*
X131520814Y-94763851D02*
X131449385Y-94835280D01*
X131520814Y-94906709D01*
X131592242Y-94835280D01*
X131520814Y-94763851D01*
X131520814Y-94906709D01*
X132163671Y-96192423D02*
X132306528Y-96263851D01*
X132592243Y-96263851D01*
X132735100Y-96192423D01*
X132806528Y-96049566D01*
X132806528Y-95978137D01*
X132735100Y-95835280D01*
X132592243Y-95763851D01*
X132377957Y-95763851D01*
X132235100Y-95692423D01*
X132163671Y-95549566D01*
X132163671Y-95478137D01*
X132235100Y-95335280D01*
X132377957Y-95263851D01*
X132592243Y-95263851D01*
X132735100Y-95335280D01*
X133377957Y-96192423D02*
X133520814Y-96263851D01*
X133806529Y-96263851D01*
X133949386Y-96192423D01*
X134020814Y-96049566D01*
X134020814Y-95978137D01*
X133949386Y-95835280D01*
X133806529Y-95763851D01*
X133592243Y-95763851D01*
X133449386Y-95692423D01*
X133377957Y-95549566D01*
X133377957Y-95478137D01*
X133449386Y-95335280D01*
X133592243Y-95263851D01*
X133806529Y-95263851D01*
X133949386Y-95335280D01*
X134663672Y-96120994D02*
X134735100Y-96192423D01*
X134663672Y-96263851D01*
X134592243Y-96192423D01*
X134663672Y-96120994D01*
X134663672Y-96263851D01*
X135377958Y-95263851D02*
X135377958Y-96763851D01*
X135377958Y-95335280D02*
X135520815Y-95263851D01*
X135806529Y-95263851D01*
X135949386Y-95335280D01*
X136020815Y-95406709D01*
X136092244Y-95549566D01*
X136092244Y-95978137D01*
X136020815Y-96120994D01*
X135949386Y-96192423D01*
X135806529Y-96263851D01*
X135520815Y-96263851D01*
X135377958Y-96192423D01*
X136735101Y-95263851D02*
X136735101Y-96763851D01*
X136735101Y-95335280D02*
X136877958Y-95263851D01*
X137163672Y-95263851D01*
X137306529Y-95335280D01*
X137377958Y-95406709D01*
X137449387Y-95549566D01*
X137449387Y-95978137D01*
X137377958Y-96120994D01*
X137306529Y-96192423D01*
X137163672Y-96263851D01*
X136877958Y-96263851D01*
X136735101Y-96192423D01*
X138092244Y-96120994D02*
X138163672Y-96192423D01*
X138092244Y-96263851D01*
X138020815Y-96192423D01*
X138092244Y-96120994D01*
X138092244Y-96263851D01*
X138735101Y-96192423D02*
X138877958Y-96263851D01*
X139163673Y-96263851D01*
X139306530Y-96192423D01*
X139377958Y-96049566D01*
X139377958Y-95978137D01*
X139306530Y-95835280D01*
X139163673Y-95763851D01*
X138949387Y-95763851D01*
X138806530Y-95692423D01*
X138735101Y-95549566D01*
X138735101Y-95478137D01*
X138806530Y-95335280D01*
X138949387Y-95263851D01*
X139163673Y-95263851D01*
X139306530Y-95335280D01*
X140592244Y-96192423D02*
X140449387Y-96263851D01*
X140163673Y-96263851D01*
X140020816Y-96192423D01*
X139949387Y-96049566D01*
X139949387Y-95478137D01*
X140020816Y-95335280D01*
X140163673Y-95263851D01*
X140449387Y-95263851D01*
X140592244Y-95335280D01*
X140663673Y-95478137D01*
X140663673Y-95620994D01*
X139949387Y-95763851D01*
D12*
X91993200Y-134285280D02*
X91293200Y-134285280D01*
X91293200Y-133085280D02*
X91993200Y-133085280D01*
X91483700Y-146618400D02*
X92183700Y-146618400D01*
X92183700Y-147818400D02*
X91483700Y-147818400D01*
X92328480Y-103922120D02*
X91628480Y-103922120D01*
X91628480Y-102722120D02*
X92328480Y-102722120D01*
X89960960Y-99613360D02*
X87960960Y-99613360D01*
X87960960Y-99613360D02*
X87960960Y-103463360D01*
X89960960Y-99613360D02*
X89960960Y-103463360D01*
X91138120Y-99721120D02*
X92138120Y-99721120D01*
X92138120Y-101081120D02*
X91138120Y-101081120D01*
X102071680Y-110633200D02*
G75*
G02X100071680Y-110633200I-1000000J0D01*
G01*
X100071680Y-110633200D02*
X98421680Y-110633200D01*
X98421680Y-110633200D02*
X98421680Y-146313200D01*
X98421680Y-146313200D02*
X103721680Y-146313200D01*
X103721680Y-146313200D02*
X103721680Y-110633200D01*
X103721680Y-110633200D02*
X102071680Y-110633200D01*
X126140720Y-101624280D02*
G75*
G02X124140720Y-101624280I-1000000J0D01*
G01*
X124140720Y-101624280D02*
X118680720Y-101624280D01*
X118680720Y-101624280D02*
X118680720Y-152544280D01*
X118680720Y-152544280D02*
X131600720Y-152544280D01*
X131600720Y-152544280D02*
X131600720Y-101624280D01*
X131600720Y-101624280D02*
X126140720Y-101624280D01*
X116190720Y-101564280D02*
X116190720Y-152604280D01*
X116190720Y-152604280D02*
X134090720Y-152604280D01*
X134090720Y-152604280D02*
X134090720Y-101564280D01*
X134090720Y-101564280D02*
X116190720Y-101564280D01*
X133740400Y-99040640D02*
G75*
G02X131740400Y-99040640I-1000000J0D01*
G01*
X131740400Y-99040640D02*
X126280400Y-99040640D01*
X126280400Y-99040640D02*
X126280400Y-152500640D01*
X126280400Y-152500640D02*
X139200400Y-152500640D01*
X139200400Y-152500640D02*
X139200400Y-99040640D01*
X139200400Y-99040640D02*
X133740400Y-99040640D01*
X123790400Y-98980640D02*
X123790400Y-152560640D01*
X123790400Y-152560640D02*
X141690400Y-152560640D01*
X141690400Y-152560640D02*
X141690400Y-98980640D01*
X141690400Y-98980640D02*
X123790400Y-98980640D01*
X94208840Y-137233120D02*
X94208840Y-143633120D01*
X89158840Y-137233120D02*
X89158840Y-143633120D01*
X89158840Y-137233120D02*
G75*
G02X94208840Y-137233120I2525000J0D01*
G01*
X89158840Y-143633120D02*
G75*
G03X94208840Y-143633120I2525000J0D01*
G01*
X90682120Y-106122160D02*
X85482120Y-106122160D01*
X90682120Y-129042160D02*
X90682120Y-106122160D01*
X85482120Y-131642160D02*
X85482120Y-106122160D01*
X90682120Y-129042160D02*
X88082120Y-129042160D01*
X88082120Y-129042160D02*
X88082120Y-131642160D01*
X88082120Y-131642160D02*
X85482120Y-131642160D01*
X90682120Y-130312160D02*
X90682120Y-131642160D01*
X90682120Y-131642160D02*
X89352120Y-131642160D01*
X110415880Y-125549480D02*
X113215880Y-125549480D01*
X113215880Y-125549480D02*
X113215880Y-102349480D01*
X113215880Y-102349480D02*
X110415880Y-102349480D01*
X110415880Y-102349480D02*
X110415880Y-125549480D01*
X110415880Y-122839480D02*
X113215880Y-122839480D01*
X147470320Y-98976360D02*
X144670320Y-98976360D01*
X144670320Y-98976360D02*
X144670320Y-124716360D01*
X144670320Y-124716360D02*
X147470320Y-124716360D01*
X147470320Y-124716360D02*
X147470320Y-98976360D01*
X147470320Y-101686360D02*
X144670320Y-101686360D01*
D13*
X93932714Y-134057663D02*
X93885095Y-134105282D01*
X93742238Y-134152901D01*
X93647000Y-134152901D01*
X93504142Y-134105282D01*
X93408904Y-134010044D01*
X93361285Y-133914806D01*
X93313666Y-133724330D01*
X93313666Y-133581472D01*
X93361285Y-133390996D01*
X93408904Y-133295758D01*
X93504142Y-133200520D01*
X93647000Y-133152901D01*
X93742238Y-133152901D01*
X93885095Y-133200520D01*
X93932714Y-133248139D01*
X94885095Y-134152901D02*
X94313666Y-134152901D01*
X94599380Y-134152901D02*
X94599380Y-133152901D01*
X94504142Y-133295758D01*
X94408904Y-133390996D01*
X94313666Y-133438615D01*
X93612674Y-147674603D02*
X93565055Y-147722222D01*
X93422198Y-147769841D01*
X93326960Y-147769841D01*
X93184102Y-147722222D01*
X93088864Y-147626984D01*
X93041245Y-147531746D01*
X92993626Y-147341270D01*
X92993626Y-147198412D01*
X93041245Y-147007936D01*
X93088864Y-146912698D01*
X93184102Y-146817460D01*
X93326960Y-146769841D01*
X93422198Y-146769841D01*
X93565055Y-146817460D01*
X93612674Y-146865079D01*
X93993626Y-146865079D02*
X94041245Y-146817460D01*
X94136483Y-146769841D01*
X94374579Y-146769841D01*
X94469817Y-146817460D01*
X94517436Y-146865079D01*
X94565055Y-146960317D01*
X94565055Y-147055555D01*
X94517436Y-147198412D01*
X93946007Y-147769841D01*
X94565055Y-147769841D01*
X94283234Y-103722443D02*
X94235615Y-103770062D01*
X94092758Y-103817681D01*
X93997520Y-103817681D01*
X93854662Y-103770062D01*
X93759424Y-103674824D01*
X93711805Y-103579586D01*
X93664186Y-103389110D01*
X93664186Y-103246252D01*
X93711805Y-103055776D01*
X93759424Y-102960538D01*
X93854662Y-102865300D01*
X93997520Y-102817681D01*
X94092758Y-102817681D01*
X94235615Y-102865300D01*
X94283234Y-102912919D01*
X94616567Y-102817681D02*
X95235615Y-102817681D01*
X94902281Y-103198633D01*
X95045139Y-103198633D01*
X95140377Y-103246252D01*
X95187996Y-103293871D01*
X95235615Y-103389110D01*
X95235615Y-103627205D01*
X95187996Y-103722443D01*
X95140377Y-103770062D01*
X95045139Y-103817681D01*
X94759424Y-103817681D01*
X94664186Y-103770062D01*
X94616567Y-103722443D01*
X89377781Y-99874295D02*
X88377781Y-99874295D01*
X88377781Y-99636200D01*
X88425400Y-99493342D01*
X88520638Y-99398104D01*
X88615876Y-99350485D01*
X88806352Y-99302866D01*
X88949210Y-99302866D01*
X89139686Y-99350485D01*
X89234924Y-99398104D01*
X89330162Y-99493342D01*
X89377781Y-99636200D01*
X89377781Y-99874295D01*
X89377781Y-98350485D02*
X89377781Y-98921914D01*
X89377781Y-98636200D02*
X88377781Y-98636200D01*
X88520638Y-98731438D01*
X88615876Y-98826676D01*
X88663495Y-98921914D01*
X94130834Y-100769681D02*
X93797500Y-100293490D01*
X93559405Y-100769681D02*
X93559405Y-99769681D01*
X93940358Y-99769681D01*
X94035596Y-99817300D01*
X94083215Y-99864919D01*
X94130834Y-99960157D01*
X94130834Y-100103014D01*
X94083215Y-100198252D01*
X94035596Y-100245871D01*
X93940358Y-100293490D01*
X93559405Y-100293490D01*
X95083215Y-100769681D02*
X94511786Y-100769681D01*
X94797500Y-100769681D02*
X94797500Y-99769681D01*
X94702262Y-99912538D01*
X94607024Y-100007776D01*
X94511786Y-100055395D01*
X100309775Y-109085581D02*
X100309775Y-109895105D01*
X100357394Y-109990343D01*
X100405013Y-110037962D01*
X100500251Y-110085581D01*
X100690728Y-110085581D01*
X100785966Y-110037962D01*
X100833585Y-109990343D01*
X100881204Y-109895105D01*
X100881204Y-109085581D01*
X101262156Y-109085581D02*
X101881204Y-109085581D01*
X101547870Y-109466533D01*
X101690728Y-109466533D01*
X101785966Y-109514152D01*
X101833585Y-109561771D01*
X101881204Y-109657010D01*
X101881204Y-109895105D01*
X101833585Y-109990343D01*
X101785966Y-110037962D01*
X101690728Y-110085581D01*
X101405013Y-110085581D01*
X101309775Y-110037962D01*
X101262156Y-109990343D01*
X124378815Y-100076661D02*
X124378815Y-100886185D01*
X124426434Y-100981423D01*
X124474053Y-101029042D01*
X124569291Y-101076661D01*
X124759768Y-101076661D01*
X124855006Y-101029042D01*
X124902625Y-100981423D01*
X124950244Y-100886185D01*
X124950244Y-100076661D01*
X125855006Y-100409994D02*
X125855006Y-101076661D01*
X125616910Y-100029042D02*
X125378815Y-100743328D01*
X125997863Y-100743328D01*
X131978495Y-97493021D02*
X131978495Y-98302545D01*
X132026114Y-98397783D01*
X132073733Y-98445402D01*
X132168971Y-98493021D01*
X132359448Y-98493021D01*
X132454686Y-98445402D01*
X132502305Y-98397783D01*
X132549924Y-98302545D01*
X132549924Y-97493021D01*
X133502305Y-97493021D02*
X133026114Y-97493021D01*
X132978495Y-97969211D01*
X133026114Y-97921592D01*
X133121352Y-97873973D01*
X133359448Y-97873973D01*
X133454686Y-97921592D01*
X133502305Y-97969211D01*
X133549924Y-98064450D01*
X133549924Y-98302545D01*
X133502305Y-98397783D01*
X133454686Y-98445402D01*
X133359448Y-98493021D01*
X133121352Y-98493021D01*
X133026114Y-98445402D01*
X132978495Y-98397783D01*
X95185030Y-140909311D02*
X95661221Y-140909311D01*
X94661221Y-141242644D02*
X95185030Y-140909311D01*
X94661221Y-140575977D01*
X95661221Y-139718834D02*
X95661221Y-140290263D01*
X95661221Y-140004549D02*
X94661221Y-140004549D01*
X94804078Y-140099787D01*
X94899316Y-140195025D01*
X94946935Y-140290263D01*
X87748787Y-132094541D02*
X87748787Y-132808827D01*
X87701167Y-132951684D01*
X87605929Y-133046922D01*
X87463072Y-133094541D01*
X87367834Y-133094541D01*
X88748787Y-133094541D02*
X88177358Y-133094541D01*
X88463072Y-133094541D02*
X88463072Y-132094541D01*
X88367834Y-132237398D01*
X88272596Y-132332636D01*
X88177358Y-132380255D01*
X109868261Y-113369956D02*
X109392070Y-113703290D01*
X109868261Y-113941385D02*
X108868261Y-113941385D01*
X108868261Y-113560432D01*
X108915880Y-113465194D01*
X108963499Y-113417575D01*
X109058737Y-113369956D01*
X109201594Y-113369956D01*
X109296832Y-113417575D01*
X109344451Y-113465194D01*
X109392070Y-113560432D01*
X109392070Y-113941385D01*
X109868261Y-112941385D02*
X108868261Y-112941385D01*
X109868261Y-112369956D01*
X108868261Y-112369956D01*
X109868261Y-111369956D02*
X109868261Y-111941385D01*
X109868261Y-111655671D02*
X108868261Y-111655671D01*
X109011118Y-111750909D01*
X109106356Y-111846147D01*
X109153975Y-111941385D01*
X148922701Y-113806836D02*
X148446510Y-114140170D01*
X148922701Y-114378265D02*
X147922701Y-114378265D01*
X147922701Y-113997312D01*
X147970320Y-113902074D01*
X148017939Y-113854455D01*
X148113177Y-113806836D01*
X148256034Y-113806836D01*
X148351272Y-113854455D01*
X148398891Y-113902074D01*
X148446510Y-113997312D01*
X148446510Y-114378265D01*
X148922701Y-113378265D02*
X147922701Y-113378265D01*
X148922701Y-112806836D01*
X147922701Y-112806836D01*
X148017939Y-112378265D02*
X147970320Y-112330646D01*
X147922701Y-112235408D01*
X147922701Y-111997312D01*
X147970320Y-111902074D01*
X148017939Y-111854455D01*
X148113177Y-111806836D01*
X148208415Y-111806836D01*
X148351272Y-111854455D01*
X148922701Y-112425884D01*
X148922701Y-111806836D01*
M02*
