G04 #@! TF.GenerationSoftware,KiCad,Pcbnew,(5.1.5)-2*
G04 #@! TF.CreationDate,2020-04-13T15:56:23+02:00*
G04 #@! TF.ProjectId,kickswitch,6b69636b-7377-4697-9463-682e6b696361,rev?*
G04 #@! TF.SameCoordinates,Original*
G04 #@! TF.FileFunction,Legend,Top*
G04 #@! TF.FilePolarity,Positive*
%FSLAX46Y46*%
G04 Gerber Fmt 4.6, Leading zero omitted, Abs format (unit mm)*
G04 Created by KiCad (PCBNEW (5.1.5)-2) date 2020-04-13 15:56:23*
%MOMM*%
%LPD*%
G04 APERTURE LIST*
%ADD10C,0.150000*%
%ADD11C,0.300000*%
%ADD12C,0.120000*%
G04 APERTURE END LIST*
D10*
X88622380Y-142130476D02*
X88622380Y-142701904D01*
X88622380Y-142416190D02*
X87622380Y-142416190D01*
X87765238Y-142511428D01*
X87860476Y-142606666D01*
X87908095Y-142701904D01*
X87622380Y-141273333D02*
X87622380Y-141463809D01*
X87670000Y-141559047D01*
X87717619Y-141606666D01*
X87860476Y-141701904D01*
X88050952Y-141749523D01*
X88431904Y-141749523D01*
X88527142Y-141701904D01*
X88574761Y-141654285D01*
X88622380Y-141559047D01*
X88622380Y-141368571D01*
X88574761Y-141273333D01*
X88527142Y-141225714D01*
X88431904Y-141178095D01*
X88193809Y-141178095D01*
X88098571Y-141225714D01*
X88050952Y-141273333D01*
X88003333Y-141368571D01*
X88003333Y-141559047D01*
X88050952Y-141654285D01*
X88098571Y-141701904D01*
X88193809Y-141749523D01*
X88622380Y-140749523D02*
X87622380Y-140749523D01*
X88336666Y-140416190D01*
X87622380Y-140082857D01*
X88622380Y-140082857D01*
X88622380Y-139606666D02*
X87622380Y-139606666D01*
X88098571Y-139606666D02*
X88098571Y-139035238D01*
X88622380Y-139035238D02*
X87622380Y-139035238D01*
X87955714Y-138654285D02*
X87955714Y-138130476D01*
X88622380Y-138654285D01*
X88622380Y-138130476D01*
X88950000Y-102070000D02*
X88960000Y-102430000D01*
X88960000Y-101440000D02*
X88960000Y-101170000D01*
X89510000Y-101450000D02*
X88960000Y-101440000D01*
X88380000Y-101450000D02*
X89510000Y-101450000D01*
X88970000Y-101440000D02*
X88380000Y-101450000D01*
X88560000Y-102060000D02*
X88970000Y-101440000D01*
X89360000Y-102060000D02*
X88560000Y-102060000D01*
X88960000Y-101460000D02*
X89360000Y-102060000D01*
X91394761Y-99292380D02*
X90823333Y-99292380D01*
X91109047Y-99292380D02*
X91109047Y-98292380D01*
X91013809Y-98435238D01*
X90918571Y-98530476D01*
X90823333Y-98578095D01*
X92013809Y-98292380D02*
X92109047Y-98292380D01*
X92204285Y-98340000D01*
X92251904Y-98387619D01*
X92299523Y-98482857D01*
X92347142Y-98673333D01*
X92347142Y-98911428D01*
X92299523Y-99101904D01*
X92251904Y-99197142D01*
X92204285Y-99244761D01*
X92109047Y-99292380D01*
X92013809Y-99292380D01*
X91918571Y-99244761D01*
X91870952Y-99197142D01*
X91823333Y-99101904D01*
X91775714Y-98911428D01*
X91775714Y-98673333D01*
X91823333Y-98482857D01*
X91870952Y-98387619D01*
X91918571Y-98340000D01*
X92013809Y-98292380D01*
X92775714Y-99292380D02*
X92775714Y-98292380D01*
X92870952Y-98911428D02*
X93156666Y-99292380D01*
X93156666Y-98625714D02*
X92775714Y-99006666D01*
X90477142Y-104332380D02*
X90572380Y-104332380D01*
X90667619Y-104380000D01*
X90715238Y-104427619D01*
X90762857Y-104522857D01*
X90810476Y-104713333D01*
X90810476Y-104951428D01*
X90762857Y-105141904D01*
X90715238Y-105237142D01*
X90667619Y-105284761D01*
X90572380Y-105332380D01*
X90477142Y-105332380D01*
X90381904Y-105284761D01*
X90334285Y-105237142D01*
X90286666Y-105141904D01*
X90239047Y-104951428D01*
X90239047Y-104713333D01*
X90286666Y-104522857D01*
X90334285Y-104427619D01*
X90381904Y-104380000D01*
X90477142Y-104332380D01*
X91239047Y-105237142D02*
X91286666Y-105284761D01*
X91239047Y-105332380D01*
X91191428Y-105284761D01*
X91239047Y-105237142D01*
X91239047Y-105332380D01*
X92239047Y-105332380D02*
X91667619Y-105332380D01*
X91953333Y-105332380D02*
X91953333Y-104332380D01*
X91858095Y-104475238D01*
X91762857Y-104570476D01*
X91667619Y-104618095D01*
X93096190Y-104665714D02*
X93096190Y-105332380D01*
X92667619Y-104665714D02*
X92667619Y-105189523D01*
X92715238Y-105284761D01*
X92810476Y-105332380D01*
X92953333Y-105332380D01*
X93048571Y-105284761D01*
X93096190Y-105237142D01*
X93905714Y-104808571D02*
X93572380Y-104808571D01*
X93572380Y-105332380D02*
X93572380Y-104332380D01*
X94048571Y-104332380D01*
X90417142Y-131837619D02*
X90464761Y-131790000D01*
X90560000Y-131742380D01*
X90798095Y-131742380D01*
X90893333Y-131790000D01*
X90940952Y-131837619D01*
X90988571Y-131932857D01*
X90988571Y-132028095D01*
X90940952Y-132170952D01*
X90369523Y-132742380D01*
X90988571Y-132742380D01*
X91369523Y-131837619D02*
X91417142Y-131790000D01*
X91512380Y-131742380D01*
X91750476Y-131742380D01*
X91845714Y-131790000D01*
X91893333Y-131837619D01*
X91940952Y-131932857D01*
X91940952Y-132028095D01*
X91893333Y-132170952D01*
X91321904Y-132742380D01*
X91940952Y-132742380D01*
X92369523Y-132075714D02*
X92369523Y-133075714D01*
X92369523Y-132123333D02*
X92464761Y-132075714D01*
X92655238Y-132075714D01*
X92750476Y-132123333D01*
X92798095Y-132170952D01*
X92845714Y-132266190D01*
X92845714Y-132551904D01*
X92798095Y-132647142D01*
X92750476Y-132694761D01*
X92655238Y-132742380D01*
X92464761Y-132742380D01*
X92369523Y-132694761D01*
X93607619Y-132218571D02*
X93274285Y-132218571D01*
X93274285Y-132742380D02*
X93274285Y-131742380D01*
X93750476Y-131742380D01*
X90087142Y-148677619D02*
X90134761Y-148630000D01*
X90230000Y-148582380D01*
X90468095Y-148582380D01*
X90563333Y-148630000D01*
X90610952Y-148677619D01*
X90658571Y-148772857D01*
X90658571Y-148868095D01*
X90610952Y-149010952D01*
X90039523Y-149582380D01*
X90658571Y-149582380D01*
X91039523Y-148677619D02*
X91087142Y-148630000D01*
X91182380Y-148582380D01*
X91420476Y-148582380D01*
X91515714Y-148630000D01*
X91563333Y-148677619D01*
X91610952Y-148772857D01*
X91610952Y-148868095D01*
X91563333Y-149010952D01*
X90991904Y-149582380D01*
X91610952Y-149582380D01*
X92039523Y-148915714D02*
X92039523Y-149915714D01*
X92039523Y-148963333D02*
X92134761Y-148915714D01*
X92325238Y-148915714D01*
X92420476Y-148963333D01*
X92468095Y-149010952D01*
X92515714Y-149106190D01*
X92515714Y-149391904D01*
X92468095Y-149487142D01*
X92420476Y-149534761D01*
X92325238Y-149582380D01*
X92134761Y-149582380D01*
X92039523Y-149534761D01*
X93277619Y-149058571D02*
X92944285Y-149058571D01*
X92944285Y-149582380D02*
X92944285Y-148582380D01*
X93420476Y-148582380D01*
X78165000Y-127533333D02*
X78165000Y-126533333D01*
X79532380Y-126723809D02*
X79056190Y-127057142D01*
X79532380Y-127295238D02*
X78532380Y-127295238D01*
X78532380Y-126914285D01*
X78580000Y-126819047D01*
X78627619Y-126771428D01*
X78722857Y-126723809D01*
X78865714Y-126723809D01*
X78960952Y-126771428D01*
X79008571Y-126819047D01*
X79056190Y-126914285D01*
X79056190Y-127295238D01*
X78165000Y-126533333D02*
X78165000Y-125628571D01*
X79008571Y-126295238D02*
X79008571Y-125961904D01*
X79532380Y-125819047D02*
X79532380Y-126295238D01*
X78532380Y-126295238D01*
X78532380Y-125819047D01*
X78165000Y-125628571D02*
X78165000Y-124676190D01*
X79484761Y-125438095D02*
X79532380Y-125295238D01*
X79532380Y-125057142D01*
X79484761Y-124961904D01*
X79437142Y-124914285D01*
X79341904Y-124866666D01*
X79246666Y-124866666D01*
X79151428Y-124914285D01*
X79103809Y-124961904D01*
X79056190Y-125057142D01*
X79008571Y-125247619D01*
X78960952Y-125342857D01*
X78913333Y-125390476D01*
X78818095Y-125438095D01*
X78722857Y-125438095D01*
X78627619Y-125390476D01*
X78580000Y-125342857D01*
X78532380Y-125247619D01*
X78532380Y-125009523D01*
X78580000Y-124866666D01*
X78165000Y-124676190D02*
X78165000Y-123628571D01*
X78532380Y-124247619D02*
X78532380Y-124057142D01*
X78580000Y-123961904D01*
X78675238Y-123866666D01*
X78865714Y-123819047D01*
X79199047Y-123819047D01*
X79389523Y-123866666D01*
X79484761Y-123961904D01*
X79532380Y-124057142D01*
X79532380Y-124247619D01*
X79484761Y-124342857D01*
X79389523Y-124438095D01*
X79199047Y-124485714D01*
X78865714Y-124485714D01*
X78675238Y-124438095D01*
X78580000Y-124342857D01*
X78532380Y-124247619D01*
X78165000Y-123628571D02*
X78165000Y-122580952D01*
X78532380Y-123390476D02*
X79341904Y-123390476D01*
X79437142Y-123342857D01*
X79484761Y-123295238D01*
X79532380Y-123200000D01*
X79532380Y-123009523D01*
X79484761Y-122914285D01*
X79437142Y-122866666D01*
X79341904Y-122819047D01*
X78532380Y-122819047D01*
X78165000Y-122580952D02*
X78165000Y-121819047D01*
X78532380Y-122485714D02*
X78532380Y-121914285D01*
X79532380Y-122200000D02*
X78532380Y-122200000D01*
X78865714Y-120961904D02*
X78865714Y-120580952D01*
X78532380Y-120819047D02*
X79389523Y-120819047D01*
X79484761Y-120771428D01*
X79532380Y-120676190D01*
X79532380Y-120580952D01*
X79532380Y-120104761D02*
X79484761Y-120200000D01*
X79437142Y-120247619D01*
X79341904Y-120295238D01*
X79056190Y-120295238D01*
X78960952Y-120247619D01*
X78913333Y-120200000D01*
X78865714Y-120104761D01*
X78865714Y-119961904D01*
X78913333Y-119866666D01*
X78960952Y-119819047D01*
X79056190Y-119771428D01*
X79341904Y-119771428D01*
X79437142Y-119819047D01*
X79484761Y-119866666D01*
X79532380Y-119961904D01*
X79532380Y-120104761D01*
X79532380Y-118580952D02*
X78532380Y-118580952D01*
X78532380Y-118200000D01*
X78580000Y-118104761D01*
X78627619Y-118057142D01*
X78722857Y-118009523D01*
X78865714Y-118009523D01*
X78960952Y-118057142D01*
X79008571Y-118104761D01*
X79056190Y-118200000D01*
X79056190Y-118580952D01*
X79532380Y-117580952D02*
X78532380Y-117580952D01*
X78532380Y-117342857D01*
X78580000Y-117200000D01*
X78675238Y-117104761D01*
X78770476Y-117057142D01*
X78960952Y-117009523D01*
X79103809Y-117009523D01*
X79294285Y-117057142D01*
X79389523Y-117104761D01*
X79484761Y-117200000D01*
X79532380Y-117342857D01*
X79532380Y-117580952D01*
X78865714Y-116152380D02*
X79532380Y-116152380D01*
X78484761Y-116390476D02*
X79199047Y-116628571D01*
X79199047Y-116009523D01*
X126522380Y-135088690D02*
X127236666Y-135088690D01*
X127379523Y-135136309D01*
X127474761Y-135231547D01*
X127522380Y-135374404D01*
X127522380Y-135469642D01*
X126617619Y-134660119D02*
X126570000Y-134612500D01*
X126522380Y-134517261D01*
X126522380Y-134279166D01*
X126570000Y-134183928D01*
X126617619Y-134136309D01*
X126712857Y-134088690D01*
X126808095Y-134088690D01*
X126950952Y-134136309D01*
X127522380Y-134707738D01*
X127522380Y-134088690D01*
X127522380Y-132374404D02*
X127522380Y-132945833D01*
X127522380Y-132660119D02*
X126522380Y-132660119D01*
X126665238Y-132755357D01*
X126760476Y-132850595D01*
X126808095Y-132945833D01*
X127141428Y-131945833D02*
X127141428Y-131183928D01*
X126617619Y-130755357D02*
X126570000Y-130707738D01*
X126522380Y-130612500D01*
X126522380Y-130374404D01*
X126570000Y-130279166D01*
X126617619Y-130231547D01*
X126712857Y-130183928D01*
X126808095Y-130183928D01*
X126950952Y-130231547D01*
X127522380Y-130802976D01*
X127522380Y-130183928D01*
X126998571Y-128993452D02*
X126998571Y-128231547D01*
X127284285Y-128231547D02*
X127284285Y-128993452D01*
X126855714Y-126993452D02*
X127522380Y-126993452D01*
X126950952Y-126993452D02*
X126903333Y-126945833D01*
X126855714Y-126850595D01*
X126855714Y-126707738D01*
X126903333Y-126612500D01*
X126998571Y-126564880D01*
X127522380Y-126564880D01*
X127522380Y-125945833D02*
X127474761Y-126041071D01*
X127427142Y-126088690D01*
X127331904Y-126136309D01*
X127046190Y-126136309D01*
X126950952Y-126088690D01*
X126903333Y-126041071D01*
X126855714Y-125945833D01*
X126855714Y-125802976D01*
X126903333Y-125707738D01*
X126950952Y-125660119D01*
X127046190Y-125612500D01*
X127331904Y-125612500D01*
X127427142Y-125660119D01*
X127474761Y-125707738D01*
X127522380Y-125802976D01*
X127522380Y-125945833D01*
X127522380Y-125183928D02*
X126855714Y-125183928D01*
X127046190Y-125183928D02*
X126950952Y-125136309D01*
X126903333Y-125088690D01*
X126855714Y-124993452D01*
X126855714Y-124898214D01*
X127522380Y-124564880D02*
X126855714Y-124564880D01*
X126950952Y-124564880D02*
X126903333Y-124517261D01*
X126855714Y-124422023D01*
X126855714Y-124279166D01*
X126903333Y-124183928D01*
X126998571Y-124136309D01*
X127522380Y-124136309D01*
X126998571Y-124136309D02*
X126903333Y-124088690D01*
X126855714Y-123993452D01*
X126855714Y-123850595D01*
X126903333Y-123755357D01*
X126998571Y-123707738D01*
X127522380Y-123707738D01*
X127522380Y-122802976D02*
X126998571Y-122802976D01*
X126903333Y-122850595D01*
X126855714Y-122945833D01*
X126855714Y-123136309D01*
X126903333Y-123231547D01*
X127474761Y-122802976D02*
X127522380Y-122898214D01*
X127522380Y-123136309D01*
X127474761Y-123231547D01*
X127379523Y-123279166D01*
X127284285Y-123279166D01*
X127189047Y-123231547D01*
X127141428Y-123136309D01*
X127141428Y-122898214D01*
X127093809Y-122802976D01*
X127522380Y-122183928D02*
X127474761Y-122279166D01*
X127379523Y-122326785D01*
X126522380Y-122326785D01*
X128172380Y-135088690D02*
X128886666Y-135088690D01*
X129029523Y-135136309D01*
X129124761Y-135231547D01*
X129172380Y-135374404D01*
X129172380Y-135469642D01*
X128267619Y-134660119D02*
X128220000Y-134612500D01*
X128172380Y-134517261D01*
X128172380Y-134279166D01*
X128220000Y-134183928D01*
X128267619Y-134136309D01*
X128362857Y-134088690D01*
X128458095Y-134088690D01*
X128600952Y-134136309D01*
X129172380Y-134707738D01*
X129172380Y-134088690D01*
X128267619Y-132945833D02*
X128220000Y-132898214D01*
X128172380Y-132802976D01*
X128172380Y-132564880D01*
X128220000Y-132469642D01*
X128267619Y-132422023D01*
X128362857Y-132374404D01*
X128458095Y-132374404D01*
X128600952Y-132422023D01*
X129172380Y-132993452D01*
X129172380Y-132374404D01*
X128791428Y-131945833D02*
X128791428Y-131183928D01*
X128172380Y-130802976D02*
X128172380Y-130183928D01*
X128553333Y-130517261D01*
X128553333Y-130374404D01*
X128600952Y-130279166D01*
X128648571Y-130231547D01*
X128743809Y-130183928D01*
X128981904Y-130183928D01*
X129077142Y-130231547D01*
X129124761Y-130279166D01*
X129172380Y-130374404D01*
X129172380Y-130660119D01*
X129124761Y-130755357D01*
X129077142Y-130802976D01*
X128648571Y-128993452D02*
X128648571Y-128231547D01*
X128934285Y-128231547D02*
X128934285Y-128993452D01*
X129172380Y-126850595D02*
X129124761Y-126945833D01*
X129077142Y-126993452D01*
X128981904Y-127041071D01*
X128696190Y-127041071D01*
X128600952Y-126993452D01*
X128553333Y-126945833D01*
X128505714Y-126850595D01*
X128505714Y-126707738D01*
X128553333Y-126612500D01*
X128600952Y-126564880D01*
X128696190Y-126517261D01*
X128981904Y-126517261D01*
X129077142Y-126564880D01*
X129124761Y-126612500D01*
X129172380Y-126707738D01*
X129172380Y-126850595D01*
X129172380Y-125945833D02*
X129124761Y-126041071D01*
X129029523Y-126088690D01*
X128172380Y-126088690D01*
X129172380Y-125136309D02*
X128172380Y-125136309D01*
X129124761Y-125136309D02*
X129172380Y-125231547D01*
X129172380Y-125422023D01*
X129124761Y-125517261D01*
X129077142Y-125564880D01*
X128981904Y-125612500D01*
X128696190Y-125612500D01*
X128600952Y-125564880D01*
X128553333Y-125517261D01*
X128505714Y-125422023D01*
X128505714Y-125231547D01*
X128553333Y-125136309D01*
X128886666Y-123945833D02*
X128886666Y-123469642D01*
X129172380Y-124041071D02*
X128172380Y-123707738D01*
X129172380Y-123374404D01*
X128267619Y-123088690D02*
X128220000Y-123041071D01*
X128172380Y-122945833D01*
X128172380Y-122707738D01*
X128220000Y-122612500D01*
X128267619Y-122564880D01*
X128362857Y-122517261D01*
X128458095Y-122517261D01*
X128600952Y-122564880D01*
X129172380Y-123136309D01*
X129172380Y-122517261D01*
X128172380Y-121898214D02*
X128172380Y-121802976D01*
X128220000Y-121707738D01*
X128267619Y-121660119D01*
X128362857Y-121612500D01*
X128553333Y-121564880D01*
X128791428Y-121564880D01*
X128981904Y-121612500D01*
X129077142Y-121660119D01*
X129124761Y-121707738D01*
X129172380Y-121802976D01*
X129172380Y-121898214D01*
X129124761Y-121993452D01*
X129077142Y-122041071D01*
X128981904Y-122088690D01*
X128791428Y-122136309D01*
X128553333Y-122136309D01*
X128362857Y-122088690D01*
X128267619Y-122041071D01*
X128220000Y-121993452D01*
X128172380Y-121898214D01*
X128172380Y-120945833D02*
X128172380Y-120850595D01*
X128220000Y-120755357D01*
X128267619Y-120707738D01*
X128362857Y-120660119D01*
X128553333Y-120612500D01*
X128791428Y-120612500D01*
X128981904Y-120660119D01*
X129077142Y-120707738D01*
X129124761Y-120755357D01*
X129172380Y-120850595D01*
X129172380Y-120945833D01*
X129124761Y-121041071D01*
X129077142Y-121088690D01*
X128981904Y-121136309D01*
X128791428Y-121183928D01*
X128553333Y-121183928D01*
X128362857Y-121136309D01*
X128267619Y-121088690D01*
X128220000Y-121041071D01*
X128172380Y-120945833D01*
X128172380Y-119993452D02*
X128172380Y-119898214D01*
X128220000Y-119802976D01*
X128267619Y-119755357D01*
X128362857Y-119707738D01*
X128553333Y-119660119D01*
X128791428Y-119660119D01*
X128981904Y-119707738D01*
X129077142Y-119755357D01*
X129124761Y-119802976D01*
X129172380Y-119898214D01*
X129172380Y-119993452D01*
X129124761Y-120088690D01*
X129077142Y-120136309D01*
X128981904Y-120183928D01*
X128791428Y-120231547D01*
X128553333Y-120231547D01*
X128362857Y-120183928D01*
X128267619Y-120136309D01*
X128220000Y-120088690D01*
X128172380Y-119993452D01*
X128124761Y-118517261D02*
X129410476Y-119374404D01*
X128886666Y-118231547D02*
X128886666Y-117755357D01*
X129172380Y-118326785D02*
X128172380Y-117993452D01*
X129172380Y-117660119D01*
X128172380Y-116850595D02*
X128172380Y-117326785D01*
X128648571Y-117374404D01*
X128600952Y-117326785D01*
X128553333Y-117231547D01*
X128553333Y-116993452D01*
X128600952Y-116898214D01*
X128648571Y-116850595D01*
X128743809Y-116802976D01*
X128981904Y-116802976D01*
X129077142Y-116850595D01*
X129124761Y-116898214D01*
X129172380Y-116993452D01*
X129172380Y-117231547D01*
X129124761Y-117326785D01*
X129077142Y-117374404D01*
X128172380Y-116183928D02*
X128172380Y-116088690D01*
X128220000Y-115993452D01*
X128267619Y-115945833D01*
X128362857Y-115898214D01*
X128553333Y-115850595D01*
X128791428Y-115850595D01*
X128981904Y-115898214D01*
X129077142Y-115945833D01*
X129124761Y-115993452D01*
X129172380Y-116088690D01*
X129172380Y-116183928D01*
X129124761Y-116279166D01*
X129077142Y-116326785D01*
X128981904Y-116374404D01*
X128791428Y-116422023D01*
X128553333Y-116422023D01*
X128362857Y-116374404D01*
X128267619Y-116326785D01*
X128220000Y-116279166D01*
X128172380Y-116183928D01*
X128172380Y-115231547D02*
X128172380Y-115136309D01*
X128220000Y-115041071D01*
X128267619Y-114993452D01*
X128362857Y-114945833D01*
X128553333Y-114898214D01*
X128791428Y-114898214D01*
X128981904Y-114945833D01*
X129077142Y-114993452D01*
X129124761Y-115041071D01*
X129172380Y-115136309D01*
X129172380Y-115231547D01*
X129124761Y-115326785D01*
X129077142Y-115374404D01*
X128981904Y-115422023D01*
X128791428Y-115469642D01*
X128553333Y-115469642D01*
X128362857Y-115422023D01*
X128267619Y-115374404D01*
X128220000Y-115326785D01*
X128172380Y-115231547D01*
X131203333Y-135088690D02*
X131155714Y-135136309D01*
X131012857Y-135231547D01*
X130917619Y-135279166D01*
X130774761Y-135326785D01*
X130536666Y-135374404D01*
X130346190Y-135374404D01*
X130108095Y-135326785D01*
X129965238Y-135279166D01*
X129870000Y-135231547D01*
X129727142Y-135136309D01*
X129679523Y-135088690D01*
X130155714Y-134707738D02*
X131155714Y-134707738D01*
X130203333Y-134707738D02*
X130155714Y-134612500D01*
X130155714Y-134422023D01*
X130203333Y-134326785D01*
X130250952Y-134279166D01*
X130346190Y-134231547D01*
X130631904Y-134231547D01*
X130727142Y-134279166D01*
X130774761Y-134326785D01*
X130822380Y-134422023D01*
X130822380Y-134612500D01*
X130774761Y-134707738D01*
X130822380Y-133802976D02*
X130155714Y-133802976D01*
X129822380Y-133802976D02*
X129870000Y-133850595D01*
X129917619Y-133802976D01*
X129870000Y-133755357D01*
X129822380Y-133802976D01*
X129917619Y-133802976D01*
X130155714Y-133326785D02*
X130822380Y-133326785D01*
X130250952Y-133326785D02*
X130203333Y-133279166D01*
X130155714Y-133183928D01*
X130155714Y-133041071D01*
X130203333Y-132945833D01*
X130298571Y-132898214D01*
X130822380Y-132898214D01*
X129822380Y-131755357D02*
X129822380Y-131136309D01*
X130203333Y-131469642D01*
X130203333Y-131326785D01*
X130250952Y-131231547D01*
X130298571Y-131183928D01*
X130393809Y-131136309D01*
X130631904Y-131136309D01*
X130727142Y-131183928D01*
X130774761Y-131231547D01*
X130822380Y-131326785D01*
X130822380Y-131612500D01*
X130774761Y-131707738D01*
X130727142Y-131755357D01*
X130822380Y-130183928D02*
X130822380Y-130755357D01*
X130822380Y-130469642D02*
X129822380Y-130469642D01*
X129965238Y-130564880D01*
X130060476Y-130660119D01*
X130108095Y-130755357D01*
X130822380Y-128993452D02*
X130155714Y-128993452D01*
X129822380Y-128993452D02*
X129870000Y-129041071D01*
X129917619Y-128993452D01*
X129870000Y-128945833D01*
X129822380Y-128993452D01*
X129917619Y-128993452D01*
X130155714Y-128517261D02*
X130822380Y-128517261D01*
X130250952Y-128517261D02*
X130203333Y-128469642D01*
X130155714Y-128374404D01*
X130155714Y-128231547D01*
X130203333Y-128136309D01*
X130298571Y-128088690D01*
X130822380Y-128088690D01*
X130774761Y-127660119D02*
X130822380Y-127564880D01*
X130822380Y-127374404D01*
X130774761Y-127279166D01*
X130679523Y-127231547D01*
X130631904Y-127231547D01*
X130536666Y-127279166D01*
X130489047Y-127374404D01*
X130489047Y-127517261D01*
X130441428Y-127612500D01*
X130346190Y-127660119D01*
X130298571Y-127660119D01*
X130203333Y-127612500D01*
X130155714Y-127517261D01*
X130155714Y-127374404D01*
X130203333Y-127279166D01*
X130155714Y-126945833D02*
X130155714Y-126564880D01*
X129822380Y-126802976D02*
X130679523Y-126802976D01*
X130774761Y-126755357D01*
X130822380Y-126660119D01*
X130822380Y-126564880D01*
X130774761Y-125850595D02*
X130822380Y-125945833D01*
X130822380Y-126136309D01*
X130774761Y-126231547D01*
X130679523Y-126279166D01*
X130298571Y-126279166D01*
X130203333Y-126231547D01*
X130155714Y-126136309D01*
X130155714Y-125945833D01*
X130203333Y-125850595D01*
X130298571Y-125802976D01*
X130393809Y-125802976D01*
X130489047Y-126279166D01*
X130822380Y-124945833D02*
X130298571Y-124945833D01*
X130203333Y-124993452D01*
X130155714Y-125088690D01*
X130155714Y-125279166D01*
X130203333Y-125374404D01*
X130774761Y-124945833D02*
X130822380Y-125041071D01*
X130822380Y-125279166D01*
X130774761Y-125374404D01*
X130679523Y-125422023D01*
X130584285Y-125422023D01*
X130489047Y-125374404D01*
X130441428Y-125279166D01*
X130441428Y-125041071D01*
X130393809Y-124945833D01*
X130822380Y-124041071D02*
X129822380Y-124041071D01*
X130774761Y-124041071D02*
X130822380Y-124136309D01*
X130822380Y-124326785D01*
X130774761Y-124422023D01*
X130727142Y-124469642D01*
X130631904Y-124517261D01*
X130346190Y-124517261D01*
X130250952Y-124469642D01*
X130203333Y-124422023D01*
X130155714Y-124326785D01*
X130155714Y-124136309D01*
X130203333Y-124041071D01*
X130822380Y-122660119D02*
X130774761Y-122755357D01*
X130727142Y-122802976D01*
X130631904Y-122850595D01*
X130346190Y-122850595D01*
X130250952Y-122802976D01*
X130203333Y-122755357D01*
X130155714Y-122660119D01*
X130155714Y-122517261D01*
X130203333Y-122422023D01*
X130250952Y-122374404D01*
X130346190Y-122326785D01*
X130631904Y-122326785D01*
X130727142Y-122374404D01*
X130774761Y-122422023D01*
X130822380Y-122517261D01*
X130822380Y-122660119D01*
X130155714Y-122041071D02*
X130155714Y-121660119D01*
X130822380Y-121898214D02*
X129965238Y-121898214D01*
X129870000Y-121850595D01*
X129822380Y-121755357D01*
X129822380Y-121660119D01*
X130822380Y-120041071D02*
X130822380Y-120612500D01*
X130822380Y-120326785D02*
X129822380Y-120326785D01*
X129965238Y-120422023D01*
X130060476Y-120517261D01*
X130108095Y-120612500D01*
X130155714Y-118993452D02*
X130155714Y-118612500D01*
X130822380Y-118850595D02*
X129965238Y-118850595D01*
X129870000Y-118802976D01*
X129822380Y-118707738D01*
X129822380Y-118612500D01*
X130822380Y-118136309D02*
X130774761Y-118231547D01*
X130727142Y-118279166D01*
X130631904Y-118326785D01*
X130346190Y-118326785D01*
X130250952Y-118279166D01*
X130203333Y-118231547D01*
X130155714Y-118136309D01*
X130155714Y-117993452D01*
X130203333Y-117898214D01*
X130250952Y-117850595D01*
X130346190Y-117802976D01*
X130631904Y-117802976D01*
X130727142Y-117850595D01*
X130774761Y-117898214D01*
X130822380Y-117993452D01*
X130822380Y-118136309D01*
X130822380Y-117374404D02*
X130155714Y-117374404D01*
X130346190Y-117374404D02*
X130250952Y-117326785D01*
X130203333Y-117279166D01*
X130155714Y-117183928D01*
X130155714Y-117088690D01*
X130536666Y-116041071D02*
X130536666Y-115564880D01*
X130822380Y-116136309D02*
X129822380Y-115802976D01*
X130822380Y-115469642D01*
X130822380Y-114612500D02*
X130822380Y-115183928D01*
X130822380Y-114898214D02*
X129822380Y-114898214D01*
X129965238Y-114993452D01*
X130060476Y-115088690D01*
X130108095Y-115183928D01*
X129822380Y-114279166D02*
X129822380Y-113612500D01*
X130822380Y-114041071D01*
X131203333Y-113326785D02*
X131155714Y-113279166D01*
X131012857Y-113183928D01*
X130917619Y-113136309D01*
X130774761Y-113088690D01*
X130536666Y-113041071D01*
X130346190Y-113041071D01*
X130108095Y-113088690D01*
X129965238Y-113136309D01*
X129870000Y-113183928D01*
X129727142Y-113279166D01*
X129679523Y-113326785D01*
X126756666Y-109182380D02*
X127375714Y-109182380D01*
X127042380Y-109563333D01*
X127185238Y-109563333D01*
X127280476Y-109610952D01*
X127328095Y-109658571D01*
X127375714Y-109753809D01*
X127375714Y-109991904D01*
X127328095Y-110087142D01*
X127280476Y-110134761D01*
X127185238Y-110182380D01*
X126899523Y-110182380D01*
X126804285Y-110134761D01*
X126756666Y-110087142D01*
X126644285Y-106637619D02*
X126691904Y-106590000D01*
X126787142Y-106542380D01*
X127025238Y-106542380D01*
X127120476Y-106590000D01*
X127168095Y-106637619D01*
X127215714Y-106732857D01*
X127215714Y-106828095D01*
X127168095Y-106970952D01*
X126596666Y-107542380D01*
X127215714Y-107542380D01*
X127345714Y-104952380D02*
X126774285Y-104952380D01*
X127060000Y-104952380D02*
X127060000Y-103952380D01*
X126964761Y-104095238D01*
X126869523Y-104190476D01*
X126774285Y-104238095D01*
D11*
X81308082Y-106623420D02*
X81165225Y-106551991D01*
X80950940Y-106551991D01*
X80736654Y-106623420D01*
X80593797Y-106766277D01*
X80522368Y-106909134D01*
X80450940Y-107194848D01*
X80450940Y-107409134D01*
X80522368Y-107694848D01*
X80593797Y-107837705D01*
X80736654Y-107980562D01*
X80950940Y-108051991D01*
X81093797Y-108051991D01*
X81308082Y-107980562D01*
X81379511Y-107909134D01*
X81379511Y-107409134D01*
X81093797Y-107409134D01*
X82022368Y-108051991D02*
X82022368Y-106551991D01*
X82879511Y-108051991D01*
X82879511Y-106551991D01*
X83593797Y-108051991D02*
X83593797Y-106551991D01*
X83950940Y-106551991D01*
X84165225Y-106623420D01*
X84308082Y-106766277D01*
X84379511Y-106909134D01*
X84450940Y-107194848D01*
X84450940Y-107409134D01*
X84379511Y-107694848D01*
X84308082Y-107837705D01*
X84165225Y-107980562D01*
X83950940Y-108051991D01*
X83593797Y-108051991D01*
X77940482Y-108697420D02*
X79440482Y-108697420D01*
X79154768Y-110845991D02*
X78654768Y-110131705D01*
X78297625Y-110845991D02*
X78297625Y-109345991D01*
X78869054Y-109345991D01*
X79011911Y-109417420D01*
X79083340Y-109488848D01*
X79154768Y-109631705D01*
X79154768Y-109845991D01*
X79083340Y-109988848D01*
X79011911Y-110060277D01*
X78869054Y-110131705D01*
X78297625Y-110131705D01*
X79440482Y-108697420D02*
X80797625Y-108697420D01*
X79797625Y-110060277D02*
X80297625Y-110060277D01*
X80511911Y-110845991D02*
X79797625Y-110845991D01*
X79797625Y-109345991D01*
X80511911Y-109345991D01*
X80797625Y-108697420D02*
X82226197Y-108697420D01*
X81083340Y-110774562D02*
X81297625Y-110845991D01*
X81654768Y-110845991D01*
X81797625Y-110774562D01*
X81869054Y-110703134D01*
X81940482Y-110560277D01*
X81940482Y-110417420D01*
X81869054Y-110274562D01*
X81797625Y-110203134D01*
X81654768Y-110131705D01*
X81369054Y-110060277D01*
X81226197Y-109988848D01*
X81154768Y-109917420D01*
X81083340Y-109774562D01*
X81083340Y-109631705D01*
X81154768Y-109488848D01*
X81226197Y-109417420D01*
X81369054Y-109345991D01*
X81726197Y-109345991D01*
X81940482Y-109417420D01*
X82226197Y-108697420D02*
X83583340Y-108697420D01*
X82583340Y-110060277D02*
X83083340Y-110060277D01*
X83297625Y-110845991D02*
X82583340Y-110845991D01*
X82583340Y-109345991D01*
X83297625Y-109345991D01*
X83583340Y-108697420D02*
X84726197Y-108697420D01*
X83726197Y-109345991D02*
X84583340Y-109345991D01*
X84154768Y-110845991D02*
X84154768Y-109345991D01*
X81702400Y-113220891D02*
X81202400Y-112506605D01*
X80845257Y-113220891D02*
X80845257Y-111720891D01*
X81416685Y-111720891D01*
X81559542Y-111792320D01*
X81630971Y-111863748D01*
X81702400Y-112006605D01*
X81702400Y-112220891D01*
X81630971Y-112363748D01*
X81559542Y-112435177D01*
X81416685Y-112506605D01*
X80845257Y-112506605D01*
X82202400Y-111720891D02*
X83202400Y-113220891D01*
X83202400Y-111720891D02*
X82202400Y-113220891D01*
X83773828Y-113220891D02*
X83773828Y-111720891D01*
X84130971Y-111720891D01*
X84345257Y-111792320D01*
X84488114Y-111935177D01*
X84559542Y-112078034D01*
X84630971Y-112363748D01*
X84630971Y-112578034D01*
X84559542Y-112863748D01*
X84488114Y-113006605D01*
X84345257Y-113149462D01*
X84130971Y-113220891D01*
X83773828Y-113220891D01*
X80809542Y-114291371D02*
X81666685Y-114291371D01*
X81238114Y-115791371D02*
X81238114Y-114291371D01*
X82023828Y-114291371D02*
X83023828Y-115791371D01*
X83023828Y-114291371D02*
X82023828Y-115791371D01*
X83595257Y-115791371D02*
X83595257Y-114291371D01*
X83952400Y-114291371D01*
X84166685Y-114362800D01*
X84309542Y-114505657D01*
X84380971Y-114648514D01*
X84452400Y-114934228D01*
X84452400Y-115148514D01*
X84380971Y-115434228D01*
X84309542Y-115577085D01*
X84166685Y-115719942D01*
X83952400Y-115791371D01*
X83595257Y-115791371D01*
X81012897Y-118222151D02*
X81012897Y-116722151D01*
X81584325Y-116722151D01*
X81727182Y-116793580D01*
X81798611Y-116865008D01*
X81870040Y-117007865D01*
X81870040Y-117222151D01*
X81798611Y-117365008D01*
X81727182Y-117436437D01*
X81584325Y-117507865D01*
X81012897Y-117507865D01*
X82512897Y-118222151D02*
X82512897Y-116722151D01*
X82870040Y-116722151D01*
X83084325Y-116793580D01*
X83227182Y-116936437D01*
X83298611Y-117079294D01*
X83370040Y-117365008D01*
X83370040Y-117579294D01*
X83298611Y-117865008D01*
X83227182Y-118007865D01*
X83084325Y-118150722D01*
X82870040Y-118222151D01*
X82512897Y-118222151D01*
X83941468Y-116865008D02*
X84012897Y-116793580D01*
X84155754Y-116722151D01*
X84512897Y-116722151D01*
X84655754Y-116793580D01*
X84727182Y-116865008D01*
X84798611Y-117007865D01*
X84798611Y-117150722D01*
X84727182Y-117365008D01*
X83870040Y-118222151D01*
X84798611Y-118222151D01*
X80984957Y-120848511D02*
X80984957Y-119348511D01*
X81556385Y-119348511D01*
X81699242Y-119419940D01*
X81770671Y-119491368D01*
X81842100Y-119634225D01*
X81842100Y-119848511D01*
X81770671Y-119991368D01*
X81699242Y-120062797D01*
X81556385Y-120134225D01*
X80984957Y-120134225D01*
X82484957Y-120848511D02*
X82484957Y-119348511D01*
X82842100Y-119348511D01*
X83056385Y-119419940D01*
X83199242Y-119562797D01*
X83270671Y-119705654D01*
X83342100Y-119991368D01*
X83342100Y-120205654D01*
X83270671Y-120491368D01*
X83199242Y-120634225D01*
X83056385Y-120777082D01*
X82842100Y-120848511D01*
X82484957Y-120848511D01*
X83842100Y-119348511D02*
X84770671Y-119348511D01*
X84270671Y-119919940D01*
X84484957Y-119919940D01*
X84627814Y-119991368D01*
X84699242Y-120062797D01*
X84770671Y-120205654D01*
X84770671Y-120562797D01*
X84699242Y-120705654D01*
X84627814Y-120777082D01*
X84484957Y-120848511D01*
X84056385Y-120848511D01*
X83913528Y-120777082D01*
X83842100Y-120705654D01*
X81096717Y-123418991D02*
X81096717Y-121918991D01*
X81668145Y-121918991D01*
X81811002Y-121990420D01*
X81882431Y-122061848D01*
X81953860Y-122204705D01*
X81953860Y-122418991D01*
X81882431Y-122561848D01*
X81811002Y-122633277D01*
X81668145Y-122704705D01*
X81096717Y-122704705D01*
X82596717Y-123418991D02*
X82596717Y-121918991D01*
X82953860Y-121918991D01*
X83168145Y-121990420D01*
X83311002Y-122133277D01*
X83382431Y-122276134D01*
X83453860Y-122561848D01*
X83453860Y-122776134D01*
X83382431Y-123061848D01*
X83311002Y-123204705D01*
X83168145Y-123347562D01*
X82953860Y-123418991D01*
X82596717Y-123418991D01*
X84739574Y-122418991D02*
X84739574Y-123418991D01*
X84382431Y-121847562D02*
X84025288Y-122918991D01*
X84953860Y-122918991D01*
X81292297Y-125849771D02*
X81292297Y-124349771D01*
X81863725Y-124349771D01*
X82006582Y-124421200D01*
X82078011Y-124492628D01*
X82149440Y-124635485D01*
X82149440Y-124849771D01*
X82078011Y-124992628D01*
X82006582Y-125064057D01*
X81863725Y-125135485D01*
X81292297Y-125135485D01*
X82792297Y-125849771D02*
X82792297Y-124349771D01*
X83149440Y-124349771D01*
X83363725Y-124421200D01*
X83506582Y-124564057D01*
X83578011Y-124706914D01*
X83649440Y-124992628D01*
X83649440Y-125206914D01*
X83578011Y-125492628D01*
X83506582Y-125635485D01*
X83363725Y-125778342D01*
X83149440Y-125849771D01*
X82792297Y-125849771D01*
X85006582Y-124349771D02*
X84292297Y-124349771D01*
X84220868Y-125064057D01*
X84292297Y-124992628D01*
X84435154Y-124921200D01*
X84792297Y-124921200D01*
X84935154Y-124992628D01*
X85006582Y-125064057D01*
X85078011Y-125206914D01*
X85078011Y-125564057D01*
X85006582Y-125706914D01*
X84935154Y-125778342D01*
X84792297Y-125849771D01*
X84435154Y-125849771D01*
X84292297Y-125778342D01*
X84220868Y-125706914D01*
X81264357Y-128448191D02*
X81264357Y-126948191D01*
X81835785Y-126948191D01*
X81978642Y-127019620D01*
X82050071Y-127091048D01*
X82121500Y-127233905D01*
X82121500Y-127448191D01*
X82050071Y-127591048D01*
X81978642Y-127662477D01*
X81835785Y-127733905D01*
X81264357Y-127733905D01*
X82764357Y-128448191D02*
X82764357Y-126948191D01*
X83121500Y-126948191D01*
X83335785Y-127019620D01*
X83478642Y-127162477D01*
X83550071Y-127305334D01*
X83621500Y-127591048D01*
X83621500Y-127805334D01*
X83550071Y-128091048D01*
X83478642Y-128233905D01*
X83335785Y-128376762D01*
X83121500Y-128448191D01*
X82764357Y-128448191D01*
X84121500Y-126948191D02*
X85121500Y-126948191D01*
X84478642Y-128448191D01*
X81292297Y-131102491D02*
X81292297Y-129602491D01*
X81863725Y-129602491D01*
X82006582Y-129673920D01*
X82078011Y-129745348D01*
X82149440Y-129888205D01*
X82149440Y-130102491D01*
X82078011Y-130245348D01*
X82006582Y-130316777D01*
X81863725Y-130388205D01*
X81292297Y-130388205D01*
X83292297Y-130316777D02*
X83506582Y-130388205D01*
X83578011Y-130459634D01*
X83649440Y-130602491D01*
X83649440Y-130816777D01*
X83578011Y-130959634D01*
X83506582Y-131031062D01*
X83363725Y-131102491D01*
X82792297Y-131102491D01*
X82792297Y-129602491D01*
X83292297Y-129602491D01*
X83435154Y-129673920D01*
X83506582Y-129745348D01*
X83578011Y-129888205D01*
X83578011Y-130031062D01*
X83506582Y-130173920D01*
X83435154Y-130245348D01*
X83292297Y-130316777D01*
X82792297Y-130316777D01*
X84578011Y-129602491D02*
X84720868Y-129602491D01*
X84863725Y-129673920D01*
X84935154Y-129745348D01*
X85006582Y-129888205D01*
X85078011Y-130173920D01*
X85078011Y-130531062D01*
X85006582Y-130816777D01*
X84935154Y-130959634D01*
X84863725Y-131031062D01*
X84720868Y-131102491D01*
X84578011Y-131102491D01*
X84435154Y-131031062D01*
X84363725Y-130959634D01*
X84292297Y-130816777D01*
X84220868Y-130531062D01*
X84220868Y-130173920D01*
X84292297Y-129888205D01*
X84363725Y-129745348D01*
X84435154Y-129673920D01*
X84578011Y-129602491D01*
X90971928Y-130419302D02*
X92114785Y-130419302D01*
X91543357Y-130990731D02*
X91543357Y-129847874D01*
X93543357Y-129490731D02*
X92829071Y-129490731D01*
X92757642Y-130205017D01*
X92829071Y-130133588D01*
X92971928Y-130062160D01*
X93329071Y-130062160D01*
X93471928Y-130133588D01*
X93543357Y-130205017D01*
X93614785Y-130347874D01*
X93614785Y-130705017D01*
X93543357Y-130847874D01*
X93471928Y-130919302D01*
X93329071Y-130990731D01*
X92971928Y-130990731D01*
X92829071Y-130919302D01*
X92757642Y-130847874D01*
X94043357Y-129490731D02*
X94543357Y-130990731D01*
X95043357Y-129490731D01*
X91071297Y-128504071D02*
X91071297Y-127004071D01*
X91642725Y-127004071D01*
X91785582Y-127075500D01*
X91857011Y-127146928D01*
X91928440Y-127289785D01*
X91928440Y-127504071D01*
X91857011Y-127646928D01*
X91785582Y-127718357D01*
X91642725Y-127789785D01*
X91071297Y-127789785D01*
X92571297Y-128504071D02*
X92571297Y-127004071D01*
X92928440Y-127004071D01*
X93142725Y-127075500D01*
X93285582Y-127218357D01*
X93357011Y-127361214D01*
X93428440Y-127646928D01*
X93428440Y-127861214D01*
X93357011Y-128146928D01*
X93285582Y-128289785D01*
X93142725Y-128432642D01*
X92928440Y-128504071D01*
X92571297Y-128504071D01*
X94714154Y-127004071D02*
X94428440Y-127004071D01*
X94285582Y-127075500D01*
X94214154Y-127146928D01*
X94071297Y-127361214D01*
X93999868Y-127646928D01*
X93999868Y-128218357D01*
X94071297Y-128361214D01*
X94142725Y-128432642D01*
X94285582Y-128504071D01*
X94571297Y-128504071D01*
X94714154Y-128432642D01*
X94785582Y-128361214D01*
X94857011Y-128218357D01*
X94857011Y-127861214D01*
X94785582Y-127718357D01*
X94714154Y-127646928D01*
X94571297Y-127575500D01*
X94285582Y-127575500D01*
X94142725Y-127646928D01*
X94071297Y-127718357D01*
X93999868Y-127861214D01*
X91015417Y-125933591D02*
X91015417Y-124433591D01*
X91586845Y-124433591D01*
X91729702Y-124505020D01*
X91801131Y-124576448D01*
X91872560Y-124719305D01*
X91872560Y-124933591D01*
X91801131Y-125076448D01*
X91729702Y-125147877D01*
X91586845Y-125219305D01*
X91015417Y-125219305D01*
X93015417Y-125147877D02*
X93229702Y-125219305D01*
X93301131Y-125290734D01*
X93372560Y-125433591D01*
X93372560Y-125647877D01*
X93301131Y-125790734D01*
X93229702Y-125862162D01*
X93086845Y-125933591D01*
X92515417Y-125933591D01*
X92515417Y-124433591D01*
X93015417Y-124433591D01*
X93158274Y-124505020D01*
X93229702Y-124576448D01*
X93301131Y-124719305D01*
X93301131Y-124862162D01*
X93229702Y-125005020D01*
X93158274Y-125076448D01*
X93015417Y-125147877D01*
X92515417Y-125147877D01*
X94801131Y-125933591D02*
X93943988Y-125933591D01*
X94372560Y-125933591D02*
X94372560Y-124433591D01*
X94229702Y-124647877D01*
X94086845Y-124790734D01*
X93943988Y-124862162D01*
X90931597Y-123418991D02*
X90931597Y-121918991D01*
X91503025Y-121918991D01*
X91645882Y-121990420D01*
X91717311Y-122061848D01*
X91788740Y-122204705D01*
X91788740Y-122418991D01*
X91717311Y-122561848D01*
X91645882Y-122633277D01*
X91503025Y-122704705D01*
X90931597Y-122704705D01*
X92931597Y-122633277D02*
X93145882Y-122704705D01*
X93217311Y-122776134D01*
X93288740Y-122918991D01*
X93288740Y-123133277D01*
X93217311Y-123276134D01*
X93145882Y-123347562D01*
X93003025Y-123418991D01*
X92431597Y-123418991D01*
X92431597Y-121918991D01*
X92931597Y-121918991D01*
X93074454Y-121990420D01*
X93145882Y-122061848D01*
X93217311Y-122204705D01*
X93217311Y-122347562D01*
X93145882Y-122490420D01*
X93074454Y-122561848D01*
X92931597Y-122633277D01*
X92431597Y-122633277D01*
X93860168Y-122061848D02*
X93931597Y-121990420D01*
X94074454Y-121918991D01*
X94431597Y-121918991D01*
X94574454Y-121990420D01*
X94645882Y-122061848D01*
X94717311Y-122204705D01*
X94717311Y-122347562D01*
X94645882Y-122561848D01*
X93788740Y-123418991D01*
X94717311Y-123418991D01*
X90990397Y-120736751D02*
X90990397Y-119236751D01*
X91490397Y-120308180D01*
X91990397Y-119236751D01*
X91990397Y-120736751D01*
X92990397Y-119236751D02*
X93276111Y-119236751D01*
X93418968Y-119308180D01*
X93561825Y-119451037D01*
X93633254Y-119736751D01*
X93633254Y-120236751D01*
X93561825Y-120522465D01*
X93418968Y-120665322D01*
X93276111Y-120736751D01*
X92990397Y-120736751D01*
X92847540Y-120665322D01*
X92704682Y-120522465D01*
X92633254Y-120236751D01*
X92633254Y-119736751D01*
X92704682Y-119451037D01*
X92847540Y-119308180D01*
X92990397Y-119236751D01*
X94204682Y-120665322D02*
X94418968Y-120736751D01*
X94776111Y-120736751D01*
X94918968Y-120665322D01*
X94990397Y-120593894D01*
X95061825Y-120451037D01*
X95061825Y-120308180D01*
X94990397Y-120165322D01*
X94918968Y-120093894D01*
X94776111Y-120022465D01*
X94490397Y-119951037D01*
X94347540Y-119879608D01*
X94276111Y-119808180D01*
X94204682Y-119665322D01*
X94204682Y-119522465D01*
X94276111Y-119379608D01*
X94347540Y-119308180D01*
X94490397Y-119236751D01*
X94847540Y-119236751D01*
X95061825Y-119308180D01*
X95704682Y-120736751D02*
X95704682Y-119236751D01*
X91046277Y-118305971D02*
X91046277Y-116805971D01*
X91546277Y-117877400D01*
X92046277Y-116805971D01*
X92046277Y-118305971D01*
X92760562Y-118305971D02*
X92760562Y-116805971D01*
X93403420Y-118234542D02*
X93617705Y-118305971D01*
X93974848Y-118305971D01*
X94117705Y-118234542D01*
X94189134Y-118163114D01*
X94260562Y-118020257D01*
X94260562Y-117877400D01*
X94189134Y-117734542D01*
X94117705Y-117663114D01*
X93974848Y-117591685D01*
X93689134Y-117520257D01*
X93546277Y-117448828D01*
X93474848Y-117377400D01*
X93403420Y-117234542D01*
X93403420Y-117091685D01*
X93474848Y-116948828D01*
X93546277Y-116877400D01*
X93689134Y-116805971D01*
X94046277Y-116805971D01*
X94260562Y-116877400D01*
X95189134Y-116805971D02*
X95474848Y-116805971D01*
X95617705Y-116877400D01*
X95760562Y-117020257D01*
X95831991Y-117305971D01*
X95831991Y-117805971D01*
X95760562Y-118091685D01*
X95617705Y-118234542D01*
X95474848Y-118305971D01*
X95189134Y-118305971D01*
X95046277Y-118234542D01*
X94903420Y-118091685D01*
X94831991Y-117805971D01*
X94831991Y-117305971D01*
X94903420Y-117020257D01*
X95046277Y-116877400D01*
X95189134Y-116805971D01*
X91027808Y-115692002D02*
X91242094Y-115763431D01*
X91599237Y-115763431D01*
X91742094Y-115692002D01*
X91813522Y-115620574D01*
X91884951Y-115477717D01*
X91884951Y-115334860D01*
X91813522Y-115192002D01*
X91742094Y-115120574D01*
X91599237Y-115049145D01*
X91313522Y-114977717D01*
X91170665Y-114906288D01*
X91099237Y-114834860D01*
X91027808Y-114692002D01*
X91027808Y-114549145D01*
X91099237Y-114406288D01*
X91170665Y-114334860D01*
X91313522Y-114263431D01*
X91670665Y-114263431D01*
X91884951Y-114334860D01*
X93384951Y-115620574D02*
X93313522Y-115692002D01*
X93099237Y-115763431D01*
X92956380Y-115763431D01*
X92742094Y-115692002D01*
X92599237Y-115549145D01*
X92527808Y-115406288D01*
X92456380Y-115120574D01*
X92456380Y-114906288D01*
X92527808Y-114620574D01*
X92599237Y-114477717D01*
X92742094Y-114334860D01*
X92956380Y-114263431D01*
X93099237Y-114263431D01*
X93313522Y-114334860D01*
X93384951Y-114406288D01*
X94027808Y-115763431D02*
X94027808Y-114263431D01*
X94884951Y-115763431D02*
X94242094Y-114906288D01*
X94884951Y-114263431D02*
X94027808Y-115120574D01*
X91058668Y-112820260D02*
X91772954Y-112820260D01*
X90915811Y-113248831D02*
X91415811Y-111748831D01*
X91915811Y-113248831D01*
X93272954Y-113248831D02*
X92772954Y-112534545D01*
X92415811Y-113248831D02*
X92415811Y-111748831D01*
X92987240Y-111748831D01*
X93130097Y-111820260D01*
X93201525Y-111891688D01*
X93272954Y-112034545D01*
X93272954Y-112248831D01*
X93201525Y-112391688D01*
X93130097Y-112463117D01*
X92987240Y-112534545D01*
X92415811Y-112534545D01*
X93915811Y-112463117D02*
X94415811Y-112463117D01*
X94630097Y-113248831D02*
X93915811Y-113248831D01*
X93915811Y-111748831D01*
X94630097Y-111748831D01*
X95772954Y-112463117D02*
X95272954Y-112463117D01*
X95272954Y-113248831D02*
X95272954Y-111748831D01*
X95987240Y-111748831D01*
X91127177Y-110650411D02*
X91127177Y-109150411D01*
X91698605Y-109150411D01*
X91841462Y-109221840D01*
X91912891Y-109293268D01*
X91984320Y-109436125D01*
X91984320Y-109650411D01*
X91912891Y-109793268D01*
X91841462Y-109864697D01*
X91698605Y-109936125D01*
X91127177Y-109936125D01*
X93484320Y-110507554D02*
X93412891Y-110578982D01*
X93198605Y-110650411D01*
X93055748Y-110650411D01*
X92841462Y-110578982D01*
X92698605Y-110436125D01*
X92627177Y-110293268D01*
X92555748Y-110007554D01*
X92555748Y-109793268D01*
X92627177Y-109507554D01*
X92698605Y-109364697D01*
X92841462Y-109221840D01*
X93055748Y-109150411D01*
X93198605Y-109150411D01*
X93412891Y-109221840D01*
X93484320Y-109293268D01*
X94770034Y-109650411D02*
X94770034Y-110650411D01*
X94412891Y-109078982D02*
X94055748Y-110150411D01*
X94984320Y-110150411D01*
X91294817Y-108024051D02*
X91294817Y-106524051D01*
X91866245Y-106524051D01*
X92009102Y-106595480D01*
X92080531Y-106666908D01*
X92151960Y-106809765D01*
X92151960Y-107024051D01*
X92080531Y-107166908D01*
X92009102Y-107238337D01*
X91866245Y-107309765D01*
X91294817Y-107309765D01*
X93651960Y-107881194D02*
X93580531Y-107952622D01*
X93366245Y-108024051D01*
X93223388Y-108024051D01*
X93009102Y-107952622D01*
X92866245Y-107809765D01*
X92794817Y-107666908D01*
X92723388Y-107381194D01*
X92723388Y-107166908D01*
X92794817Y-106881194D01*
X92866245Y-106738337D01*
X93009102Y-106595480D01*
X93223388Y-106524051D01*
X93366245Y-106524051D01*
X93580531Y-106595480D01*
X93651960Y-106666908D01*
X95009102Y-106524051D02*
X94294817Y-106524051D01*
X94223388Y-107238337D01*
X94294817Y-107166908D01*
X94437674Y-107095480D01*
X94794817Y-107095480D01*
X94937674Y-107166908D01*
X95009102Y-107238337D01*
X95080531Y-107381194D01*
X95080531Y-107738337D01*
X95009102Y-107881194D01*
X94937674Y-107952622D01*
X94794817Y-108024051D01*
X94437674Y-108024051D01*
X94294817Y-107952622D01*
X94223388Y-107881194D01*
X90877957Y-96263851D02*
X90877957Y-94763851D01*
X91735100Y-96263851D02*
X91092242Y-95406708D01*
X91735100Y-94763851D02*
X90877957Y-95620994D01*
X92377957Y-96263851D02*
X92377957Y-95263851D01*
X92377957Y-94763851D02*
X92306528Y-94835280D01*
X92377957Y-94906708D01*
X92449385Y-94835280D01*
X92377957Y-94763851D01*
X92377957Y-94906708D01*
X93735100Y-96192422D02*
X93592242Y-96263851D01*
X93306528Y-96263851D01*
X93163671Y-96192422D01*
X93092242Y-96120994D01*
X93020814Y-95978137D01*
X93020814Y-95549565D01*
X93092242Y-95406708D01*
X93163671Y-95335280D01*
X93306528Y-95263851D01*
X93592242Y-95263851D01*
X93735100Y-95335280D01*
X94377957Y-96263851D02*
X94377957Y-94763851D01*
X94520814Y-95692422D02*
X94949385Y-96263851D01*
X94949385Y-95263851D02*
X94377957Y-95835280D01*
X95520814Y-96192422D02*
X95663671Y-96263851D01*
X95949385Y-96263851D01*
X96092242Y-96192422D01*
X96163671Y-96049565D01*
X96163671Y-95978137D01*
X96092242Y-95835280D01*
X95949385Y-95763851D01*
X95735100Y-95763851D01*
X95592242Y-95692422D01*
X95520814Y-95549565D01*
X95520814Y-95478137D01*
X95592242Y-95335280D01*
X95735100Y-95263851D01*
X95949385Y-95263851D01*
X96092242Y-95335280D01*
X96592242Y-95263851D02*
X97163671Y-95263851D01*
X96806528Y-94763851D02*
X96806528Y-96049565D01*
X96877957Y-96192422D01*
X97020814Y-96263851D01*
X97163671Y-96263851D01*
X98306528Y-96263851D02*
X98306528Y-95478137D01*
X98235100Y-95335280D01*
X98092242Y-95263851D01*
X97806528Y-95263851D01*
X97663671Y-95335280D01*
X98306528Y-96192422D02*
X98163671Y-96263851D01*
X97806528Y-96263851D01*
X97663671Y-96192422D01*
X97592242Y-96049565D01*
X97592242Y-95906708D01*
X97663671Y-95763851D01*
X97806528Y-95692422D01*
X98163671Y-95692422D01*
X98306528Y-95620994D01*
X99020814Y-96263851D02*
X99020814Y-95263851D01*
X99020814Y-95549565D02*
X99092242Y-95406708D01*
X99163671Y-95335280D01*
X99306528Y-95263851D01*
X99449385Y-95263851D01*
X99735100Y-95263851D02*
X100306528Y-95263851D01*
X99949385Y-94763851D02*
X99949385Y-96049565D01*
X100020814Y-96192422D01*
X100163671Y-96263851D01*
X100306528Y-96263851D01*
X101877957Y-96192422D02*
X102020814Y-96263851D01*
X102306528Y-96263851D01*
X102449385Y-96192422D01*
X102520814Y-96049565D01*
X102520814Y-95978137D01*
X102449385Y-95835280D01*
X102306528Y-95763851D01*
X102092242Y-95763851D01*
X101949385Y-95692422D01*
X101877957Y-95549565D01*
X101877957Y-95478137D01*
X101949385Y-95335280D01*
X102092242Y-95263851D01*
X102306528Y-95263851D01*
X102449385Y-95335280D01*
X103020814Y-95263851D02*
X103306528Y-96263851D01*
X103592242Y-95549565D01*
X103877957Y-96263851D01*
X104163671Y-95263851D01*
X104735100Y-96263851D02*
X104735100Y-95263851D01*
X104735100Y-94763851D02*
X104663671Y-94835280D01*
X104735100Y-94906708D01*
X104806528Y-94835280D01*
X104735100Y-94763851D01*
X104735100Y-94906708D01*
X105235100Y-95263851D02*
X105806528Y-95263851D01*
X105449385Y-94763851D02*
X105449385Y-96049565D01*
X105520814Y-96192422D01*
X105663671Y-96263851D01*
X105806528Y-96263851D01*
X106949385Y-96192422D02*
X106806528Y-96263851D01*
X106520814Y-96263851D01*
X106377957Y-96192422D01*
X106306528Y-96120994D01*
X106235100Y-95978137D01*
X106235100Y-95549565D01*
X106306528Y-95406708D01*
X106377957Y-95335280D01*
X106520814Y-95263851D01*
X106806528Y-95263851D01*
X106949385Y-95335280D01*
X107592242Y-96263851D02*
X107592242Y-94763851D01*
X108235100Y-96263851D02*
X108235100Y-95478137D01*
X108163671Y-95335280D01*
X108020814Y-95263851D01*
X107806528Y-95263851D01*
X107663671Y-95335280D01*
X107592242Y-95406708D01*
X109520814Y-96192422D02*
X109377957Y-96263851D01*
X109092242Y-96263851D01*
X108949385Y-96192422D01*
X108877957Y-96049565D01*
X108877957Y-95478137D01*
X108949385Y-95335280D01*
X109092242Y-95263851D01*
X109377957Y-95263851D01*
X109520814Y-95335280D01*
X109592242Y-95478137D01*
X109592242Y-95620994D01*
X108877957Y-95763851D01*
X110235100Y-96263851D02*
X110235100Y-95263851D01*
X110235100Y-95549565D02*
X110306528Y-95406708D01*
X110377957Y-95335280D01*
X110520814Y-95263851D01*
X110663671Y-95263851D01*
X113520814Y-95120994D02*
X113377957Y-95049565D01*
X113092242Y-95049565D01*
X112949385Y-95120994D01*
X112806528Y-95263851D01*
X112735100Y-95406708D01*
X112735100Y-95692422D01*
X112806528Y-95835280D01*
X112949385Y-95978137D01*
X113092242Y-96049565D01*
X113377957Y-96049565D01*
X113520814Y-95978137D01*
X113235100Y-94549565D02*
X112877957Y-94620994D01*
X112520814Y-94835280D01*
X112306528Y-95192422D01*
X112235100Y-95549565D01*
X112306528Y-95906708D01*
X112520814Y-96263851D01*
X112877957Y-96478137D01*
X113235100Y-96549565D01*
X113592242Y-96478137D01*
X113949385Y-96263851D01*
X114163671Y-95906708D01*
X114235100Y-95549565D01*
X114163671Y-95192422D01*
X113949385Y-94835280D01*
X113592242Y-94620994D01*
X113235100Y-94549565D01*
X115949385Y-94906708D02*
X116020814Y-94835280D01*
X116163671Y-94763851D01*
X116520814Y-94763851D01*
X116663671Y-94835280D01*
X116735100Y-94906708D01*
X116806528Y-95049565D01*
X116806528Y-95192422D01*
X116735100Y-95406708D01*
X115877957Y-96263851D01*
X116806528Y-96263851D01*
X117735100Y-94763851D02*
X117877957Y-94763851D01*
X118020814Y-94835280D01*
X118092242Y-94906708D01*
X118163671Y-95049565D01*
X118235100Y-95335280D01*
X118235100Y-95692422D01*
X118163671Y-95978137D01*
X118092242Y-96120994D01*
X118020814Y-96192422D01*
X117877957Y-96263851D01*
X117735100Y-96263851D01*
X117592242Y-96192422D01*
X117520814Y-96120994D01*
X117449385Y-95978137D01*
X117377957Y-95692422D01*
X117377957Y-95335280D01*
X117449385Y-95049565D01*
X117520814Y-94906708D01*
X117592242Y-94835280D01*
X117735100Y-94763851D01*
X119663671Y-96263851D02*
X118806528Y-96263851D01*
X119235100Y-96263851D02*
X119235100Y-94763851D01*
X119092242Y-94978137D01*
X118949385Y-95120994D01*
X118806528Y-95192422D01*
X120520814Y-95406708D02*
X120377957Y-95335280D01*
X120306528Y-95263851D01*
X120235100Y-95120994D01*
X120235100Y-95049565D01*
X120306528Y-94906708D01*
X120377957Y-94835280D01*
X120520814Y-94763851D01*
X120806528Y-94763851D01*
X120949385Y-94835280D01*
X121020814Y-94906708D01*
X121092242Y-95049565D01*
X121092242Y-95120994D01*
X121020814Y-95263851D01*
X120949385Y-95335280D01*
X120806528Y-95406708D01*
X120520814Y-95406708D01*
X120377957Y-95478137D01*
X120306528Y-95549565D01*
X120235100Y-95692422D01*
X120235100Y-95978137D01*
X120306528Y-96120994D01*
X120377957Y-96192422D01*
X120520814Y-96263851D01*
X120806528Y-96263851D01*
X120949385Y-96192422D01*
X121020814Y-96120994D01*
X121092242Y-95978137D01*
X121092242Y-95692422D01*
X121020814Y-95549565D01*
X120949385Y-95478137D01*
X120806528Y-95406708D01*
X122877957Y-96263851D02*
X122877957Y-94763851D01*
X122877957Y-95478137D02*
X123735100Y-95478137D01*
X123735100Y-96263851D02*
X123735100Y-94763851D01*
X125092242Y-96263851D02*
X125092242Y-95478137D01*
X125020814Y-95335280D01*
X124877957Y-95263851D01*
X124592242Y-95263851D01*
X124449385Y-95335280D01*
X125092242Y-96192422D02*
X124949385Y-96263851D01*
X124592242Y-96263851D01*
X124449385Y-96192422D01*
X124377957Y-96049565D01*
X124377957Y-95906708D01*
X124449385Y-95763851D01*
X124592242Y-95692422D01*
X124949385Y-95692422D01*
X125092242Y-95620994D01*
X125806528Y-95263851D02*
X125806528Y-96263851D01*
X125806528Y-95406708D02*
X125877957Y-95335280D01*
X126020814Y-95263851D01*
X126235100Y-95263851D01*
X126377957Y-95335280D01*
X126449385Y-95478137D01*
X126449385Y-96263851D01*
X127092242Y-96192422D02*
X127235100Y-96263851D01*
X127520814Y-96263851D01*
X127663671Y-96192422D01*
X127735100Y-96049565D01*
X127735100Y-95978137D01*
X127663671Y-95835280D01*
X127520814Y-95763851D01*
X127306528Y-95763851D01*
X127163671Y-95692422D01*
X127092242Y-95549565D01*
X127092242Y-95478137D01*
X127163671Y-95335280D01*
X127306528Y-95263851D01*
X127520814Y-95263851D01*
X127663671Y-95335280D01*
X129306528Y-95549565D02*
X129235100Y-95478137D01*
X129092242Y-95406708D01*
X128949385Y-95406708D01*
X128806528Y-95478137D01*
X128735100Y-95549565D01*
X128663671Y-95692422D01*
X128663671Y-95835280D01*
X128735100Y-95978137D01*
X128806528Y-96049565D01*
X128949385Y-96120994D01*
X129092242Y-96120994D01*
X129235100Y-96049565D01*
X129306528Y-95978137D01*
X129306528Y-95406708D02*
X129306528Y-95978137D01*
X129377957Y-96049565D01*
X129449385Y-96049565D01*
X129592242Y-95978137D01*
X129663671Y-95835280D01*
X129663671Y-95478137D01*
X129520814Y-95263851D01*
X129306528Y-95120994D01*
X129020814Y-95049565D01*
X128735100Y-95120994D01*
X128520814Y-95263851D01*
X128377957Y-95478137D01*
X128306528Y-95763851D01*
X128377957Y-96049565D01*
X128520814Y-96263851D01*
X128735100Y-96406708D01*
X129020814Y-96478137D01*
X129306528Y-96406708D01*
X129520814Y-96263851D01*
X131020814Y-96263851D02*
X130306528Y-96263851D01*
X130306528Y-94763851D01*
X131520814Y-96263851D02*
X131520814Y-95263851D01*
X131520814Y-94763851D02*
X131449385Y-94835280D01*
X131520814Y-94906708D01*
X131592242Y-94835280D01*
X131520814Y-94763851D01*
X131520814Y-94906708D01*
X132163671Y-96192422D02*
X132306528Y-96263851D01*
X132592242Y-96263851D01*
X132735100Y-96192422D01*
X132806528Y-96049565D01*
X132806528Y-95978137D01*
X132735100Y-95835280D01*
X132592242Y-95763851D01*
X132377957Y-95763851D01*
X132235100Y-95692422D01*
X132163671Y-95549565D01*
X132163671Y-95478137D01*
X132235100Y-95335280D01*
X132377957Y-95263851D01*
X132592242Y-95263851D01*
X132735100Y-95335280D01*
X133377957Y-96192422D02*
X133520814Y-96263851D01*
X133806528Y-96263851D01*
X133949385Y-96192422D01*
X134020814Y-96049565D01*
X134020814Y-95978137D01*
X133949385Y-95835280D01*
X133806528Y-95763851D01*
X133592242Y-95763851D01*
X133449385Y-95692422D01*
X133377957Y-95549565D01*
X133377957Y-95478137D01*
X133449385Y-95335280D01*
X133592242Y-95263851D01*
X133806528Y-95263851D01*
X133949385Y-95335280D01*
X134663671Y-96120994D02*
X134735100Y-96192422D01*
X134663671Y-96263851D01*
X134592242Y-96192422D01*
X134663671Y-96120994D01*
X134663671Y-96263851D01*
X135377957Y-95263851D02*
X135377957Y-96763851D01*
X135377957Y-95335280D02*
X135520814Y-95263851D01*
X135806528Y-95263851D01*
X135949385Y-95335280D01*
X136020814Y-95406708D01*
X136092242Y-95549565D01*
X136092242Y-95978137D01*
X136020814Y-96120994D01*
X135949385Y-96192422D01*
X135806528Y-96263851D01*
X135520814Y-96263851D01*
X135377957Y-96192422D01*
X136735100Y-95263851D02*
X136735100Y-96763851D01*
X136735100Y-95335280D02*
X136877957Y-95263851D01*
X137163671Y-95263851D01*
X137306528Y-95335280D01*
X137377957Y-95406708D01*
X137449385Y-95549565D01*
X137449385Y-95978137D01*
X137377957Y-96120994D01*
X137306528Y-96192422D01*
X137163671Y-96263851D01*
X136877957Y-96263851D01*
X136735100Y-96192422D01*
X138092242Y-96120994D02*
X138163671Y-96192422D01*
X138092242Y-96263851D01*
X138020814Y-96192422D01*
X138092242Y-96120994D01*
X138092242Y-96263851D01*
X138735100Y-96192422D02*
X138877957Y-96263851D01*
X139163671Y-96263851D01*
X139306528Y-96192422D01*
X139377957Y-96049565D01*
X139377957Y-95978137D01*
X139306528Y-95835280D01*
X139163671Y-95763851D01*
X138949385Y-95763851D01*
X138806528Y-95692422D01*
X138735100Y-95549565D01*
X138735100Y-95478137D01*
X138806528Y-95335280D01*
X138949385Y-95263851D01*
X139163671Y-95263851D01*
X139306528Y-95335280D01*
X140592242Y-96192422D02*
X140449385Y-96263851D01*
X140163671Y-96263851D01*
X140020814Y-96192422D01*
X139949385Y-96049565D01*
X139949385Y-95478137D01*
X140020814Y-95335280D01*
X140163671Y-95263851D01*
X140449385Y-95263851D01*
X140592242Y-95335280D01*
X140663671Y-95478137D01*
X140663671Y-95620994D01*
X139949385Y-95763851D01*
D12*
X91993200Y-134285280D02*
X91293200Y-134285280D01*
X91293200Y-133085280D02*
X91993200Y-133085280D01*
X91483700Y-146618400D02*
X92183700Y-146618400D01*
X92183700Y-147818400D02*
X91483700Y-147818400D01*
X92328480Y-103922120D02*
X91628480Y-103922120D01*
X91628480Y-102722120D02*
X92328480Y-102722120D01*
X89960960Y-99613360D02*
X87960960Y-99613360D01*
X87960960Y-99613360D02*
X87960960Y-103463360D01*
X89960960Y-99613360D02*
X89960960Y-103463360D01*
X91138120Y-99721120D02*
X92138120Y-99721120D01*
X92138120Y-101081120D02*
X91138120Y-101081120D01*
X102071680Y-110633200D02*
G75*
G02X100071680Y-110633200I-1000000J0D01*
G01*
X100071680Y-110633200D02*
X98421680Y-110633200D01*
X98421680Y-110633200D02*
X98421680Y-146313200D01*
X98421680Y-146313200D02*
X103721680Y-146313200D01*
X103721680Y-146313200D02*
X103721680Y-110633200D01*
X103721680Y-110633200D02*
X102071680Y-110633200D01*
X126140720Y-101624280D02*
G75*
G02X124140720Y-101624280I-1000000J0D01*
G01*
X124140720Y-101624280D02*
X118680720Y-101624280D01*
X118680720Y-101624280D02*
X118680720Y-152544280D01*
X118680720Y-152544280D02*
X131600720Y-152544280D01*
X131600720Y-152544280D02*
X131600720Y-101624280D01*
X131600720Y-101624280D02*
X126140720Y-101624280D01*
X116190720Y-101564280D02*
X116190720Y-152604280D01*
X116190720Y-152604280D02*
X134090720Y-152604280D01*
X134090720Y-152604280D02*
X134090720Y-101564280D01*
X134090720Y-101564280D02*
X116190720Y-101564280D01*
X133740400Y-99040640D02*
G75*
G02X131740400Y-99040640I-1000000J0D01*
G01*
X131740400Y-99040640D02*
X126280400Y-99040640D01*
X126280400Y-99040640D02*
X126280400Y-152500640D01*
X126280400Y-152500640D02*
X139200400Y-152500640D01*
X139200400Y-152500640D02*
X139200400Y-99040640D01*
X139200400Y-99040640D02*
X133740400Y-99040640D01*
X123790400Y-98980640D02*
X123790400Y-152560640D01*
X123790400Y-152560640D02*
X141690400Y-152560640D01*
X141690400Y-152560640D02*
X141690400Y-98980640D01*
X141690400Y-98980640D02*
X123790400Y-98980640D01*
X94208840Y-137233120D02*
X94208840Y-143633120D01*
X89158840Y-137233120D02*
X89158840Y-143633120D01*
X89158840Y-137233120D02*
G75*
G02X94208840Y-137233120I2525000J0D01*
G01*
X89158840Y-143633120D02*
G75*
G03X94208840Y-143633120I2525000J0D01*
G01*
X90682120Y-106122160D02*
X85482120Y-106122160D01*
X90682120Y-129042160D02*
X90682120Y-106122160D01*
X85482120Y-131642160D02*
X85482120Y-106122160D01*
X90682120Y-129042160D02*
X88082120Y-129042160D01*
X88082120Y-129042160D02*
X88082120Y-131642160D01*
X88082120Y-131642160D02*
X85482120Y-131642160D01*
X90682120Y-130312160D02*
X90682120Y-131642160D01*
X90682120Y-131642160D02*
X89352120Y-131642160D01*
X110415880Y-125549480D02*
X113215880Y-125549480D01*
X113215880Y-125549480D02*
X113215880Y-102349480D01*
X113215880Y-102349480D02*
X110415880Y-102349480D01*
X110415880Y-102349480D02*
X110415880Y-125549480D01*
X110415880Y-122839480D02*
X113215880Y-122839480D01*
X147470320Y-98976360D02*
X144670320Y-98976360D01*
X144670320Y-98976360D02*
X144670320Y-124716360D01*
X144670320Y-124716360D02*
X147470320Y-124716360D01*
X147470320Y-124716360D02*
X147470320Y-98976360D01*
X147470320Y-101686360D02*
X144670320Y-101686360D01*
X127920000Y-103240000D02*
X129250000Y-103240000D01*
X127920000Y-104570000D02*
X127920000Y-103240000D01*
X127920000Y-105840000D02*
X130580000Y-105840000D01*
X130580000Y-105840000D02*
X130580000Y-110980000D01*
X127920000Y-105840000D02*
X127920000Y-110980000D01*
X127920000Y-110980000D02*
X130580000Y-110980000D01*
D10*
X93932713Y-134057662D02*
X93885094Y-134105281D01*
X93742237Y-134152900D01*
X93646999Y-134152900D01*
X93504141Y-134105281D01*
X93408903Y-134010043D01*
X93361284Y-133914805D01*
X93313665Y-133724329D01*
X93313665Y-133581472D01*
X93361284Y-133390996D01*
X93408903Y-133295758D01*
X93504141Y-133200520D01*
X93646999Y-133152900D01*
X93742237Y-133152900D01*
X93885094Y-133200520D01*
X93932713Y-133248139D01*
X94885094Y-134152900D02*
X94313665Y-134152900D01*
X94599380Y-134152900D02*
X94599380Y-133152900D01*
X94504141Y-133295758D01*
X94408903Y-133390996D01*
X94313665Y-133438615D01*
X93612673Y-147674602D02*
X93565054Y-147722221D01*
X93422197Y-147769840D01*
X93326959Y-147769840D01*
X93184101Y-147722221D01*
X93088863Y-147626983D01*
X93041244Y-147531745D01*
X92993625Y-147341269D01*
X92993625Y-147198412D01*
X93041244Y-147007936D01*
X93088863Y-146912698D01*
X93184101Y-146817460D01*
X93326959Y-146769840D01*
X93422197Y-146769840D01*
X93565054Y-146817460D01*
X93612673Y-146865079D01*
X93993625Y-146865079D02*
X94041244Y-146817460D01*
X94136482Y-146769840D01*
X94374578Y-146769840D01*
X94469816Y-146817460D01*
X94517435Y-146865079D01*
X94565054Y-146960317D01*
X94565054Y-147055555D01*
X94517435Y-147198412D01*
X93946006Y-147769840D01*
X94565054Y-147769840D01*
X94283233Y-103722442D02*
X94235614Y-103770061D01*
X94092757Y-103817680D01*
X93997519Y-103817680D01*
X93854661Y-103770061D01*
X93759423Y-103674823D01*
X93711804Y-103579585D01*
X93664185Y-103389109D01*
X93664185Y-103246252D01*
X93711804Y-103055776D01*
X93759423Y-102960538D01*
X93854661Y-102865300D01*
X93997519Y-102817680D01*
X94092757Y-102817680D01*
X94235614Y-102865300D01*
X94283233Y-102912919D01*
X94616566Y-102817680D02*
X95235614Y-102817680D01*
X94902280Y-103198633D01*
X95045138Y-103198633D01*
X95140376Y-103246252D01*
X95187995Y-103293871D01*
X95235614Y-103389109D01*
X95235614Y-103627204D01*
X95187995Y-103722442D01*
X95140376Y-103770061D01*
X95045138Y-103817680D01*
X94759423Y-103817680D01*
X94664185Y-103770061D01*
X94616566Y-103722442D01*
X89377780Y-99874295D02*
X88377780Y-99874295D01*
X88377780Y-99636200D01*
X88425400Y-99493342D01*
X88520638Y-99398104D01*
X88615876Y-99350485D01*
X88806352Y-99302866D01*
X88949209Y-99302866D01*
X89139685Y-99350485D01*
X89234923Y-99398104D01*
X89330161Y-99493342D01*
X89377780Y-99636200D01*
X89377780Y-99874295D01*
X89377780Y-98350485D02*
X89377780Y-98921914D01*
X89377780Y-98636200D02*
X88377780Y-98636200D01*
X88520638Y-98731438D01*
X88615876Y-98826676D01*
X88663495Y-98921914D01*
X94130833Y-100769680D02*
X93797500Y-100293490D01*
X93559404Y-100769680D02*
X93559404Y-99769680D01*
X93940357Y-99769680D01*
X94035595Y-99817300D01*
X94083214Y-99864919D01*
X94130833Y-99960157D01*
X94130833Y-100103014D01*
X94083214Y-100198252D01*
X94035595Y-100245871D01*
X93940357Y-100293490D01*
X93559404Y-100293490D01*
X95083214Y-100769680D02*
X94511785Y-100769680D01*
X94797500Y-100769680D02*
X94797500Y-99769680D01*
X94702261Y-99912538D01*
X94607023Y-100007776D01*
X94511785Y-100055395D01*
X100309775Y-109085580D02*
X100309775Y-109895104D01*
X100357394Y-109990342D01*
X100405013Y-110037961D01*
X100500251Y-110085580D01*
X100690727Y-110085580D01*
X100785965Y-110037961D01*
X100833584Y-109990342D01*
X100881203Y-109895104D01*
X100881203Y-109085580D01*
X101262156Y-109085580D02*
X101881203Y-109085580D01*
X101547870Y-109466533D01*
X101690727Y-109466533D01*
X101785965Y-109514152D01*
X101833584Y-109561771D01*
X101881203Y-109657009D01*
X101881203Y-109895104D01*
X101833584Y-109990342D01*
X101785965Y-110037961D01*
X101690727Y-110085580D01*
X101405013Y-110085580D01*
X101309775Y-110037961D01*
X101262156Y-109990342D01*
X124378815Y-100076660D02*
X124378815Y-100886184D01*
X124426434Y-100981422D01*
X124474053Y-101029041D01*
X124569291Y-101076660D01*
X124759767Y-101076660D01*
X124855005Y-101029041D01*
X124902624Y-100981422D01*
X124950243Y-100886184D01*
X124950243Y-100076660D01*
X125855005Y-100409994D02*
X125855005Y-101076660D01*
X125616910Y-100029041D02*
X125378815Y-100743327D01*
X125997862Y-100743327D01*
X131978495Y-97493020D02*
X131978495Y-98302544D01*
X132026114Y-98397782D01*
X132073733Y-98445401D01*
X132168971Y-98493020D01*
X132359447Y-98493020D01*
X132454685Y-98445401D01*
X132502304Y-98397782D01*
X132549923Y-98302544D01*
X132549923Y-97493020D01*
X133502304Y-97493020D02*
X133026114Y-97493020D01*
X132978495Y-97969211D01*
X133026114Y-97921592D01*
X133121352Y-97873973D01*
X133359447Y-97873973D01*
X133454685Y-97921592D01*
X133502304Y-97969211D01*
X133549923Y-98064449D01*
X133549923Y-98302544D01*
X133502304Y-98397782D01*
X133454685Y-98445401D01*
X133359447Y-98493020D01*
X133121352Y-98493020D01*
X133026114Y-98445401D01*
X132978495Y-98397782D01*
X95185030Y-140909310D02*
X95661220Y-140909310D01*
X94661220Y-141242643D02*
X95185030Y-140909310D01*
X94661220Y-140575977D01*
X95661220Y-139718834D02*
X95661220Y-140290262D01*
X95661220Y-140004548D02*
X94661220Y-140004548D01*
X94804078Y-140099786D01*
X94899316Y-140195024D01*
X94946935Y-140290262D01*
X87748786Y-132094540D02*
X87748786Y-132808826D01*
X87701167Y-132951683D01*
X87605929Y-133046921D01*
X87463072Y-133094540D01*
X87367834Y-133094540D01*
X88748786Y-133094540D02*
X88177358Y-133094540D01*
X88463072Y-133094540D02*
X88463072Y-132094540D01*
X88367834Y-132237398D01*
X88272596Y-132332636D01*
X88177358Y-132380255D01*
X109868260Y-113369956D02*
X109392070Y-113703289D01*
X109868260Y-113941384D02*
X108868260Y-113941384D01*
X108868260Y-113560432D01*
X108915880Y-113465194D01*
X108963499Y-113417575D01*
X109058737Y-113369956D01*
X109201594Y-113369956D01*
X109296832Y-113417575D01*
X109344451Y-113465194D01*
X109392070Y-113560432D01*
X109392070Y-113941384D01*
X109868260Y-112941384D02*
X108868260Y-112941384D01*
X109868260Y-112369956D01*
X108868260Y-112369956D01*
X109868260Y-111369956D02*
X109868260Y-111941384D01*
X109868260Y-111655670D02*
X108868260Y-111655670D01*
X109011118Y-111750908D01*
X109106356Y-111846146D01*
X109153975Y-111941384D01*
X148922700Y-113806836D02*
X148446510Y-114140169D01*
X148922700Y-114378264D02*
X147922700Y-114378264D01*
X147922700Y-113997312D01*
X147970320Y-113902074D01*
X148017939Y-113854455D01*
X148113177Y-113806836D01*
X148256034Y-113806836D01*
X148351272Y-113854455D01*
X148398891Y-113902074D01*
X148446510Y-113997312D01*
X148446510Y-114378264D01*
X148922700Y-113378264D02*
X147922700Y-113378264D01*
X148922700Y-112806836D01*
X147922700Y-112806836D01*
X148017939Y-112378264D02*
X147970320Y-112330645D01*
X147922700Y-112235407D01*
X147922700Y-111997312D01*
X147970320Y-111902074D01*
X148017939Y-111854455D01*
X148113177Y-111806836D01*
X148208415Y-111806836D01*
X148351272Y-111854455D01*
X148922700Y-112425883D01*
X148922700Y-111806836D01*
X128916666Y-101692380D02*
X128916666Y-102406666D01*
X128869047Y-102549523D01*
X128773809Y-102644761D01*
X128630952Y-102692380D01*
X128535714Y-102692380D01*
X129345238Y-101787619D02*
X129392857Y-101740000D01*
X129488095Y-101692380D01*
X129726190Y-101692380D01*
X129821428Y-101740000D01*
X129869047Y-101787619D01*
X129916666Y-101882857D01*
X129916666Y-101978095D01*
X129869047Y-102120952D01*
X129297619Y-102692380D01*
X129916666Y-102692380D01*
M02*
