G04 #@! TF.FileFunction,Soldermask,Top*
%FSLAX46Y46*%
G04 Gerber Fmt 4.6, Leading zero omitted, Abs format (unit mm)*
G04 Created by KiCad (PCBNEW 4.0.7) date 07/05/18 11:36:52*
%MOMM*%
%LPD*%
G01*
G04 APERTURE LIST*
%ADD10C,0.100000*%
%ADD11R,1.200000X1.150000*%
%ADD12R,1.500000X1.500000*%
%ADD13R,0.900000X1.300000*%
%ADD14R,2.000000X2.000000*%
%ADD15O,2.000000X2.000000*%
%ADD16C,1.900000*%
%ADD17R,2.100000X2.100000*%
%ADD18O,2.100000X2.100000*%
G04 APERTURE END LIST*
D10*
D11*
X92393200Y-133685280D03*
X90893200Y-133685280D03*
X91083700Y-147218400D03*
X92583700Y-147218400D03*
X92728480Y-103322120D03*
X91228480Y-103322120D03*
D12*
X88960960Y-100413360D03*
X88960960Y-103213360D03*
D13*
X92388120Y-100401120D03*
X90888120Y-100401120D03*
D14*
X97261680Y-111963200D03*
D15*
X104881680Y-144983200D03*
X97261680Y-114503200D03*
X104881680Y-142443200D03*
X97261680Y-117043200D03*
X104881680Y-139903200D03*
X97261680Y-119583200D03*
X104881680Y-137363200D03*
X97261680Y-122123200D03*
X104881680Y-134823200D03*
X97261680Y-124663200D03*
X104881680Y-132283200D03*
X97261680Y-127203200D03*
X104881680Y-129743200D03*
X97261680Y-129743200D03*
X104881680Y-127203200D03*
X97261680Y-132283200D03*
X104881680Y-124663200D03*
X97261680Y-134823200D03*
X104881680Y-122123200D03*
X97261680Y-137363200D03*
X104881680Y-119583200D03*
X97261680Y-139903200D03*
X104881680Y-117043200D03*
X97261680Y-142443200D03*
X104881680Y-114503200D03*
X97261680Y-144983200D03*
X104881680Y-111963200D03*
D14*
X117520720Y-102954280D03*
D15*
X132760720Y-151214280D03*
X117520720Y-105494280D03*
X132760720Y-148674280D03*
X117520720Y-108034280D03*
X132760720Y-146134280D03*
X117520720Y-110574280D03*
X132760720Y-143594280D03*
X117520720Y-113114280D03*
X132760720Y-141054280D03*
X117520720Y-115654280D03*
X132760720Y-138514280D03*
X117520720Y-118194280D03*
X132760720Y-135974280D03*
X117520720Y-120734280D03*
X132760720Y-133434280D03*
X117520720Y-123274280D03*
X132760720Y-130894280D03*
X117520720Y-125814280D03*
X132760720Y-128354280D03*
X117520720Y-128354280D03*
X132760720Y-125814280D03*
X117520720Y-130894280D03*
X132760720Y-123274280D03*
X117520720Y-133434280D03*
X132760720Y-120734280D03*
X117520720Y-135974280D03*
X132760720Y-118194280D03*
X117520720Y-138514280D03*
X132760720Y-115654280D03*
X117520720Y-141054280D03*
X132760720Y-113114280D03*
X117520720Y-143594280D03*
X132760720Y-110574280D03*
X117520720Y-146134280D03*
X132760720Y-108034280D03*
X117520720Y-148674280D03*
X132760720Y-105494280D03*
X117520720Y-151214280D03*
X132760720Y-102954280D03*
D14*
X125120400Y-100370640D03*
D15*
X140360400Y-151170640D03*
X125120400Y-102910640D03*
X140360400Y-148630640D03*
X125120400Y-105450640D03*
X140360400Y-146090640D03*
X125120400Y-107990640D03*
X140360400Y-143550640D03*
X125120400Y-110530640D03*
X140360400Y-141010640D03*
X125120400Y-113070640D03*
X140360400Y-138470640D03*
X125120400Y-115610640D03*
X140360400Y-135930640D03*
X125120400Y-118150640D03*
X140360400Y-133390640D03*
X125120400Y-120690640D03*
X140360400Y-130850640D03*
X125120400Y-123230640D03*
X140360400Y-128310640D03*
X125120400Y-125770640D03*
X140360400Y-125770640D03*
X125120400Y-128310640D03*
X140360400Y-123230640D03*
X125120400Y-130850640D03*
X140360400Y-120690640D03*
X125120400Y-133390640D03*
X140360400Y-118150640D03*
X125120400Y-135930640D03*
X140360400Y-115610640D03*
X125120400Y-138470640D03*
X140360400Y-113070640D03*
X125120400Y-141010640D03*
X140360400Y-110530640D03*
X125120400Y-143550640D03*
X140360400Y-107990640D03*
X125120400Y-146090640D03*
X140360400Y-105450640D03*
X125120400Y-148630640D03*
X140360400Y-102910640D03*
X125120400Y-151170640D03*
X140360400Y-100370640D03*
D16*
X91683840Y-137993120D03*
X91683840Y-142873120D03*
D17*
X89352120Y-130312160D03*
D18*
X86812120Y-130312160D03*
X89352120Y-127772160D03*
X86812120Y-127772160D03*
X89352120Y-125232160D03*
X86812120Y-125232160D03*
X89352120Y-122692160D03*
X86812120Y-122692160D03*
X89352120Y-120152160D03*
X86812120Y-120152160D03*
X89352120Y-117612160D03*
X86812120Y-117612160D03*
X89352120Y-115072160D03*
X86812120Y-115072160D03*
X89352120Y-112532160D03*
X86812120Y-112532160D03*
X89352120Y-109992160D03*
X86812120Y-109992160D03*
X89352120Y-107452160D03*
X86812120Y-107452160D03*
D14*
X111815880Y-124109480D03*
D15*
X111815880Y-121569480D03*
X111815880Y-119029480D03*
X111815880Y-116489480D03*
X111815880Y-113949480D03*
X111815880Y-111409480D03*
X111815880Y-108869480D03*
X111815880Y-106329480D03*
X111815880Y-103789480D03*
D14*
X146070320Y-100416360D03*
D15*
X146070320Y-102956360D03*
X146070320Y-105496360D03*
X146070320Y-108036360D03*
X146070320Y-110576360D03*
X146070320Y-113116360D03*
X146070320Y-115656360D03*
X146070320Y-118196360D03*
X146070320Y-120736360D03*
X146070320Y-123276360D03*
M02*
