M48
; DRILL file {KiCad (5.1.5)-2} date 2020-04-13 15:56:25
; FORMAT={-:-/ absolute / metric / decimal}
; #@! TF.CreationDate,2020-04-13T15:56:25+02:00
; #@! TF.GenerationSoftware,Kicad,Pcbnew,(5.1.5)-2
; #@! TF.FileFunction,Plated,1,2,PTH
FMAT,2
METRIC
T1C0.400
T2C0.800
T3C1.000
%
G90
G05
T1
X85.776Y-103.238
X85.776Y-133.721
X85.804Y-131.877
X93.574Y-151.143
X93.955Y-152.133
X95.247Y-120.868
X98.936Y-107.122
X100.508Y-147.485
X100.947Y-136.431
X101.232Y-155.029
X102.146Y-151.181
X107.988Y-123.439
X108.471Y-153.124
X108.814Y-120.853
X110.223Y-132.296
X127.378Y-129.446
T2
X97.262Y-111.963
X97.262Y-114.503
X97.262Y-117.043
X97.262Y-119.583
X97.262Y-122.123
X97.262Y-124.663
X97.262Y-127.203
X97.262Y-129.743
X97.262Y-132.283
X97.262Y-134.823
X97.262Y-137.363
X97.262Y-139.903
X97.262Y-142.443
X97.262Y-144.983
X104.882Y-111.963
X104.882Y-114.503
X104.882Y-117.043
X104.882Y-119.583
X104.882Y-122.123
X104.882Y-124.663
X104.882Y-127.203
X104.882Y-129.743
X104.882Y-132.283
X104.882Y-134.823
X104.882Y-137.363
X104.882Y-139.903
X104.882Y-142.443
X104.882Y-144.983
X146.07Y-100.416
X146.07Y-102.956
X146.07Y-105.496
X146.07Y-108.036
X146.07Y-110.576
X146.07Y-113.116
X146.07Y-115.656
X146.07Y-118.196
X146.07Y-120.736
X146.07Y-123.276
X125.12Y-100.371
X125.12Y-102.911
X125.12Y-105.451
X125.12Y-107.991
X125.12Y-110.531
X125.12Y-113.071
X125.12Y-115.611
X125.12Y-118.151
X125.12Y-120.691
X125.12Y-123.231
X125.12Y-125.771
X125.12Y-128.311
X125.12Y-130.851
X125.12Y-133.391
X125.12Y-135.931
X125.12Y-138.471
X125.12Y-141.011
X125.12Y-143.551
X125.12Y-146.091
X125.12Y-148.631
X125.12Y-151.171
X140.36Y-100.371
X140.36Y-102.911
X140.36Y-105.451
X140.36Y-107.991
X140.36Y-110.531
X140.36Y-113.071
X140.36Y-115.611
X140.36Y-118.151
X140.36Y-120.691
X140.36Y-123.231
X140.36Y-125.771
X140.36Y-128.311
X140.36Y-130.851
X140.36Y-133.391
X140.36Y-135.931
X140.36Y-138.471
X140.36Y-141.011
X140.36Y-143.551
X140.36Y-146.091
X140.36Y-148.631
X140.36Y-151.171
X117.521Y-102.954
X117.521Y-105.494
X117.521Y-108.034
X117.521Y-110.574
X117.521Y-113.114
X117.521Y-115.654
X117.521Y-118.194
X117.521Y-120.734
X117.521Y-123.274
X117.521Y-125.814
X117.521Y-128.354
X117.521Y-130.894
X117.521Y-133.434
X117.521Y-135.974
X117.521Y-138.514
X117.521Y-141.054
X117.521Y-143.594
X117.521Y-146.134
X117.521Y-148.674
X117.521Y-151.214
X132.761Y-102.954
X132.761Y-105.494
X132.761Y-108.034
X132.761Y-110.574
X132.761Y-113.114
X132.761Y-115.654
X132.761Y-118.194
X132.761Y-120.734
X132.761Y-123.274
X132.761Y-125.814
X132.761Y-128.354
X132.761Y-130.894
X132.761Y-133.434
X132.761Y-135.974
X132.761Y-138.514
X132.761Y-141.054
X132.761Y-143.594
X132.761Y-146.134
X132.761Y-148.674
X132.761Y-151.214
X111.816Y-103.789
X111.816Y-106.329
X111.816Y-108.869
X111.816Y-111.409
X111.816Y-113.949
X111.816Y-116.489
X111.816Y-119.029
X111.816Y-121.569
X111.816Y-124.109
X91.684Y-137.993
X91.684Y-142.873
T3
X86.812Y-107.452
X86.812Y-109.992
X86.812Y-112.532
X86.812Y-115.072
X86.812Y-117.612
X86.812Y-120.152
X86.812Y-122.692
X86.812Y-125.232
X86.812Y-127.772
X86.812Y-130.312
X89.352Y-107.452
X89.352Y-109.992
X89.352Y-112.532
X89.352Y-115.072
X89.352Y-117.612
X89.352Y-120.152
X89.352Y-122.692
X89.352Y-125.232
X89.352Y-127.772
X89.352Y-130.312
X129.25Y-104.57
X129.25Y-107.11
X129.25Y-109.65
T0
M30
