G04 #@! TF.GenerationSoftware,KiCad,Pcbnew,(5.1.5)-2*
G04 #@! TF.CreationDate,2020-04-13T15:56:23+02:00*
G04 #@! TF.ProjectId,kickswitch,6b69636b-7377-4697-9463-682e6b696361,rev?*
G04 #@! TF.SameCoordinates,Original*
G04 #@! TF.FileFunction,Legend,Bot*
G04 #@! TF.FilePolarity,Positive*
%FSLAX46Y46*%
G04 Gerber Fmt 4.6, Leading zero omitted, Abs format (unit mm)*
G04 Created by KiCad (PCBNEW (5.1.5)-2) date 2020-04-13 15:56:23*
%MOMM*%
%LPD*%
G04 APERTURE LIST*
%ADD10C,0.300000*%
%ADD11C,0.120000*%
%ADD12C,0.150000*%
G04 APERTURE END LIST*
D10*
X106473605Y-97511920D02*
X105759320Y-97511920D01*
X106616462Y-97940491D02*
X106116462Y-96440491D01*
X105616462Y-97940491D01*
X104330748Y-97940491D02*
X105187891Y-97940491D01*
X104759320Y-97940491D02*
X104759320Y-96440491D01*
X104902177Y-96654777D01*
X105045034Y-96797634D01*
X105187891Y-96869062D01*
X103830748Y-96440491D02*
X102830748Y-96440491D01*
X103473605Y-97940491D01*
X102259320Y-97797634D02*
X102187891Y-97869062D01*
X102259320Y-97940491D01*
X102330748Y-97869062D01*
X102259320Y-97797634D01*
X102259320Y-97940491D01*
X102259320Y-97011920D02*
X102187891Y-97083348D01*
X102259320Y-97154777D01*
X102330748Y-97083348D01*
X102259320Y-97011920D01*
X102259320Y-97154777D01*
X100402177Y-97940491D02*
X100402177Y-96440491D01*
X99830748Y-96440491D01*
X99687891Y-96511920D01*
X99616462Y-96583348D01*
X99545034Y-96726205D01*
X99545034Y-96940491D01*
X99616462Y-97083348D01*
X99687891Y-97154777D01*
X99830748Y-97226205D01*
X100402177Y-97226205D01*
X98045034Y-97797634D02*
X98116462Y-97869062D01*
X98330748Y-97940491D01*
X98473605Y-97940491D01*
X98687891Y-97869062D01*
X98830748Y-97726205D01*
X98902177Y-97583348D01*
X98973605Y-97297634D01*
X98973605Y-97083348D01*
X98902177Y-96797634D01*
X98830748Y-96654777D01*
X98687891Y-96511920D01*
X98473605Y-96440491D01*
X98330748Y-96440491D01*
X98116462Y-96511920D01*
X98045034Y-96583348D01*
X97116462Y-96440491D02*
X96973605Y-96440491D01*
X96830748Y-96511920D01*
X96759320Y-96583348D01*
X96687891Y-96726205D01*
X96616462Y-97011920D01*
X96616462Y-97369062D01*
X96687891Y-97654777D01*
X96759320Y-97797634D01*
X96830748Y-97869062D01*
X96973605Y-97940491D01*
X97116462Y-97940491D01*
X97259320Y-97869062D01*
X97330748Y-97797634D01*
X97402177Y-97654777D01*
X97473605Y-97369062D01*
X97473605Y-97011920D01*
X97402177Y-96726205D01*
X97330748Y-96583348D01*
X97259320Y-96511920D01*
X97116462Y-96440491D01*
X94830748Y-97154777D02*
X93687891Y-97154777D01*
X93687891Y-97583348D02*
X94830748Y-97583348D01*
X91902177Y-97511920D02*
X91187891Y-97511920D01*
X92045034Y-97940491D02*
X91545034Y-96440491D01*
X91045034Y-97940491D01*
X89759320Y-97940491D02*
X90616462Y-97940491D01*
X90187891Y-97940491D02*
X90187891Y-96440491D01*
X90330748Y-96654777D01*
X90473605Y-96797634D01*
X90616462Y-96869062D01*
X89259320Y-96440491D02*
X88259320Y-96440491D01*
X88902177Y-97940491D01*
X87687891Y-97940491D02*
X87687891Y-96940491D01*
X87687891Y-96440491D02*
X87759320Y-96511920D01*
X87687891Y-96583348D01*
X87616462Y-96511920D01*
X87687891Y-96440491D01*
X87687891Y-96583348D01*
X86973605Y-96940491D02*
X86973605Y-97940491D01*
X86973605Y-97083348D02*
X86902177Y-97011920D01*
X86759320Y-96940491D01*
X86545034Y-96940491D01*
X86402177Y-97011920D01*
X86330748Y-97154777D01*
X86330748Y-97940491D01*
X103902177Y-100490491D02*
X104045034Y-100419062D01*
X104116462Y-100347634D01*
X104187891Y-100204777D01*
X104187891Y-99776205D01*
X104116462Y-99633348D01*
X104045034Y-99561920D01*
X103902177Y-99490491D01*
X103687891Y-99490491D01*
X103545034Y-99561920D01*
X103473605Y-99633348D01*
X103402177Y-99776205D01*
X103402177Y-100204777D01*
X103473605Y-100347634D01*
X103545034Y-100419062D01*
X103687891Y-100490491D01*
X103902177Y-100490491D01*
X102759320Y-100490491D02*
X102759320Y-99490491D01*
X102759320Y-99776205D02*
X102687891Y-99633348D01*
X102616462Y-99561920D01*
X102473605Y-99490491D01*
X102330748Y-99490491D01*
X100687891Y-100490491D02*
X100687891Y-98990491D01*
X100116462Y-98990491D01*
X99973605Y-99061920D01*
X99902177Y-99133348D01*
X99830748Y-99276205D01*
X99830748Y-99490491D01*
X99902177Y-99633348D01*
X99973605Y-99704777D01*
X100116462Y-99776205D01*
X100687891Y-99776205D01*
X98330748Y-100347634D02*
X98402177Y-100419062D01*
X98616462Y-100490491D01*
X98759320Y-100490491D01*
X98973605Y-100419062D01*
X99116462Y-100276205D01*
X99187891Y-100133348D01*
X99259320Y-99847634D01*
X99259320Y-99633348D01*
X99187891Y-99347634D01*
X99116462Y-99204777D01*
X98973605Y-99061920D01*
X98759320Y-98990491D01*
X98616462Y-98990491D01*
X98402177Y-99061920D01*
X98330748Y-99133348D01*
X96902177Y-100490491D02*
X97759320Y-100490491D01*
X97330748Y-100490491D02*
X97330748Y-98990491D01*
X97473605Y-99204777D01*
X97616462Y-99347634D01*
X97759320Y-99419062D01*
X95116462Y-99704777D02*
X93973605Y-99704777D01*
X93973605Y-100133348D02*
X95116462Y-100133348D01*
X92330748Y-99490491D02*
X91759320Y-99490491D01*
X92116462Y-100490491D02*
X92116462Y-99204777D01*
X92045034Y-99061920D01*
X91902177Y-98990491D01*
X91759320Y-98990491D01*
X91259320Y-100490491D02*
X91259320Y-99490491D01*
X91259320Y-98990491D02*
X91330748Y-99061920D01*
X91259320Y-99133348D01*
X91187891Y-99061920D01*
X91259320Y-98990491D01*
X91259320Y-99133348D01*
X90687891Y-100490491D02*
X89902177Y-99490491D01*
X90687891Y-99490491D02*
X89902177Y-100490491D01*
X88759320Y-100419062D02*
X88902177Y-100490491D01*
X89187891Y-100490491D01*
X89330748Y-100419062D01*
X89402177Y-100276205D01*
X89402177Y-99704777D01*
X89330748Y-99561920D01*
X89187891Y-99490491D01*
X88902177Y-99490491D01*
X88759320Y-99561920D01*
X88687891Y-99704777D01*
X88687891Y-99847634D01*
X89402177Y-99990491D01*
X87402177Y-100490491D02*
X87402177Y-98990491D01*
X87402177Y-100419062D02*
X87545034Y-100490491D01*
X87830748Y-100490491D01*
X87973605Y-100419062D01*
X88045034Y-100347634D01*
X88116462Y-100204777D01*
X88116462Y-99776205D01*
X88045034Y-99633348D01*
X87973605Y-99561920D01*
X87830748Y-99490491D01*
X87545034Y-99490491D01*
X87402177Y-99561920D01*
X106473605Y-102611920D02*
X105759320Y-102611920D01*
X106616462Y-103040491D02*
X106116462Y-101540491D01*
X105616462Y-103040491D01*
X104330748Y-103040491D02*
X105187891Y-103040491D01*
X104759320Y-103040491D02*
X104759320Y-101540491D01*
X104902177Y-101754777D01*
X105045034Y-101897634D01*
X105187891Y-101969062D01*
X103473605Y-102183348D02*
X103616462Y-102111920D01*
X103687891Y-102040491D01*
X103759320Y-101897634D01*
X103759320Y-101826205D01*
X103687891Y-101683348D01*
X103616462Y-101611920D01*
X103473605Y-101540491D01*
X103187891Y-101540491D01*
X103045034Y-101611920D01*
X102973605Y-101683348D01*
X102902177Y-101826205D01*
X102902177Y-101897634D01*
X102973605Y-102040491D01*
X103045034Y-102111920D01*
X103187891Y-102183348D01*
X103473605Y-102183348D01*
X103616462Y-102254777D01*
X103687891Y-102326205D01*
X103759320Y-102469062D01*
X103759320Y-102754777D01*
X103687891Y-102897634D01*
X103616462Y-102969062D01*
X103473605Y-103040491D01*
X103187891Y-103040491D01*
X103045034Y-102969062D01*
X102973605Y-102897634D01*
X102902177Y-102754777D01*
X102902177Y-102469062D01*
X102973605Y-102326205D01*
X103045034Y-102254777D01*
X103187891Y-102183348D01*
X102259320Y-102897634D02*
X102187891Y-102969062D01*
X102259320Y-103040491D01*
X102330748Y-102969062D01*
X102259320Y-102897634D01*
X102259320Y-103040491D01*
X102259320Y-102111920D02*
X102187891Y-102183348D01*
X102259320Y-102254777D01*
X102330748Y-102183348D01*
X102259320Y-102111920D01*
X102259320Y-102254777D01*
X100402177Y-103040491D02*
X100402177Y-101540491D01*
X99830748Y-101540491D01*
X99687891Y-101611920D01*
X99616462Y-101683348D01*
X99545034Y-101826205D01*
X99545034Y-102040491D01*
X99616462Y-102183348D01*
X99687891Y-102254777D01*
X99830748Y-102326205D01*
X100402177Y-102326205D01*
X98045034Y-102897634D02*
X98116462Y-102969062D01*
X98330748Y-103040491D01*
X98473605Y-103040491D01*
X98687891Y-102969062D01*
X98830748Y-102826205D01*
X98902177Y-102683348D01*
X98973605Y-102397634D01*
X98973605Y-102183348D01*
X98902177Y-101897634D01*
X98830748Y-101754777D01*
X98687891Y-101611920D01*
X98473605Y-101540491D01*
X98330748Y-101540491D01*
X98116462Y-101611920D01*
X98045034Y-101683348D01*
X97473605Y-101683348D02*
X97402177Y-101611920D01*
X97259320Y-101540491D01*
X96902177Y-101540491D01*
X96759320Y-101611920D01*
X96687891Y-101683348D01*
X96616462Y-101826205D01*
X96616462Y-101969062D01*
X96687891Y-102183348D01*
X97545034Y-103040491D01*
X96616462Y-103040491D01*
X106473605Y-105161920D02*
X105759320Y-105161920D01*
X106616462Y-105590491D02*
X106116462Y-104090491D01*
X105616462Y-105590491D01*
X104330748Y-105590491D02*
X105187891Y-105590491D01*
X104759320Y-105590491D02*
X104759320Y-104090491D01*
X104902177Y-104304777D01*
X105045034Y-104447634D01*
X105187891Y-104519062D01*
X103616462Y-105590491D02*
X103330748Y-105590491D01*
X103187891Y-105519062D01*
X103116462Y-105447634D01*
X102973605Y-105233348D01*
X102902177Y-104947634D01*
X102902177Y-104376205D01*
X102973605Y-104233348D01*
X103045034Y-104161920D01*
X103187891Y-104090491D01*
X103473605Y-104090491D01*
X103616462Y-104161920D01*
X103687891Y-104233348D01*
X103759320Y-104376205D01*
X103759320Y-104733348D01*
X103687891Y-104876205D01*
X103616462Y-104947634D01*
X103473605Y-105019062D01*
X103187891Y-105019062D01*
X103045034Y-104947634D01*
X102973605Y-104876205D01*
X102902177Y-104733348D01*
X102259320Y-105447634D02*
X102187891Y-105519062D01*
X102259320Y-105590491D01*
X102330748Y-105519062D01*
X102259320Y-105447634D01*
X102259320Y-105590491D01*
X102259320Y-104661920D02*
X102187891Y-104733348D01*
X102259320Y-104804777D01*
X102330748Y-104733348D01*
X102259320Y-104661920D01*
X102259320Y-104804777D01*
X100402177Y-105590491D02*
X100402177Y-104090491D01*
X99830748Y-104090491D01*
X99687891Y-104161920D01*
X99616462Y-104233348D01*
X99545034Y-104376205D01*
X99545034Y-104590491D01*
X99616462Y-104733348D01*
X99687891Y-104804777D01*
X99830748Y-104876205D01*
X100402177Y-104876205D01*
X98045034Y-105447634D02*
X98116462Y-105519062D01*
X98330748Y-105590491D01*
X98473605Y-105590491D01*
X98687891Y-105519062D01*
X98830748Y-105376205D01*
X98902177Y-105233348D01*
X98973605Y-104947634D01*
X98973605Y-104733348D01*
X98902177Y-104447634D01*
X98830748Y-104304777D01*
X98687891Y-104161920D01*
X98473605Y-104090491D01*
X98330748Y-104090491D01*
X98116462Y-104161920D01*
X98045034Y-104233348D01*
X97545034Y-104090491D02*
X96616462Y-104090491D01*
X97116462Y-104661920D01*
X96902177Y-104661920D01*
X96759320Y-104733348D01*
X96687891Y-104804777D01*
X96616462Y-104947634D01*
X96616462Y-105304777D01*
X96687891Y-105447634D01*
X96759320Y-105519062D01*
X96902177Y-105590491D01*
X97330748Y-105590491D01*
X97473605Y-105519062D01*
X97545034Y-105447634D01*
D11*
X95548880Y-150551240D02*
X97348880Y-150551240D01*
X97348880Y-153771240D02*
X94898880Y-153771240D01*
X104545560Y-150551240D02*
X106345560Y-150551240D01*
X106345560Y-153771240D02*
X103895560Y-153771240D01*
D12*
X97210784Y-154513620D02*
X97210784Y-155323144D01*
X97163165Y-155418382D01*
X97115546Y-155466001D01*
X97020308Y-155513620D01*
X96829832Y-155513620D01*
X96734594Y-155466001D01*
X96686975Y-155418382D01*
X96639356Y-155323144D01*
X96639356Y-154513620D01*
X95639356Y-155513620D02*
X96210784Y-155513620D01*
X95925070Y-155513620D02*
X95925070Y-154513620D01*
X96020308Y-154656478D01*
X96115546Y-154751716D01*
X96210784Y-154799335D01*
X106179524Y-148987260D02*
X106179524Y-149796784D01*
X106131905Y-149892022D01*
X106084286Y-149939641D01*
X105989048Y-149987260D01*
X105798572Y-149987260D01*
X105703334Y-149939641D01*
X105655715Y-149892022D01*
X105608096Y-149796784D01*
X105608096Y-148987260D01*
X105179524Y-149082499D02*
X105131905Y-149034880D01*
X105036667Y-148987260D01*
X104798572Y-148987260D01*
X104703334Y-149034880D01*
X104655715Y-149082499D01*
X104608096Y-149177737D01*
X104608096Y-149272975D01*
X104655715Y-149415832D01*
X105227143Y-149987260D01*
X104608096Y-149987260D01*
M02*
