G04 #@! TF.FileFunction,Soldermask,Top*
%FSLAX46Y46*%
G04 Gerber Fmt 4.6, Leading zero omitted, Abs format (unit mm)*
G04 Created by KiCad (PCBNEW 4.0.7) date 05/26/18 16:35:29*
%MOMM*%
%LPD*%
G01*
G04 APERTURE LIST*
%ADD10C,0.100000*%
%ADD11R,1.200000X1.150000*%
%ADD12R,1.500000X1.500000*%
%ADD13R,2.100000X2.100000*%
%ADD14O,2.100000X2.100000*%
%ADD15R,0.900000X1.300000*%
%ADD16R,1.950000X1.700000*%
%ADD17R,2.000000X2.000000*%
%ADD18O,2.000000X2.000000*%
%ADD19C,1.900000*%
G04 APERTURE END LIST*
D10*
D11*
X92304300Y-123774200D03*
X90804300Y-123774200D03*
X90931300Y-140919200D03*
X92431300Y-140919200D03*
X92728480Y-103322120D03*
X91228480Y-103322120D03*
D12*
X88960960Y-100413360D03*
X88960960Y-103213360D03*
D13*
X89344500Y-118948200D03*
D14*
X86804500Y-118948200D03*
X89344500Y-116408200D03*
X86804500Y-116408200D03*
X89344500Y-113868200D03*
X86804500Y-113868200D03*
X89344500Y-111328200D03*
X86804500Y-111328200D03*
D15*
X92388120Y-100401120D03*
X90888120Y-100401120D03*
D16*
X97721520Y-99464300D03*
X105671520Y-99464300D03*
X97721520Y-103964300D03*
X105671520Y-103964300D03*
D17*
X97261680Y-111963200D03*
D18*
X104881680Y-144983200D03*
X97261680Y-114503200D03*
X104881680Y-142443200D03*
X97261680Y-117043200D03*
X104881680Y-139903200D03*
X97261680Y-119583200D03*
X104881680Y-137363200D03*
X97261680Y-122123200D03*
X104881680Y-134823200D03*
X97261680Y-124663200D03*
X104881680Y-132283200D03*
X97261680Y-127203200D03*
X104881680Y-129743200D03*
X97261680Y-129743200D03*
X104881680Y-127203200D03*
X97261680Y-132283200D03*
X104881680Y-124663200D03*
X97261680Y-134823200D03*
X104881680Y-122123200D03*
X97261680Y-137363200D03*
X104881680Y-119583200D03*
X97261680Y-139903200D03*
X104881680Y-117043200D03*
X97261680Y-142443200D03*
X104881680Y-114503200D03*
X97261680Y-144983200D03*
X104881680Y-111963200D03*
D17*
X112765840Y-103000000D03*
D18*
X128005840Y-151260000D03*
X112765840Y-105540000D03*
X128005840Y-148720000D03*
X112765840Y-108080000D03*
X128005840Y-146180000D03*
X112765840Y-110620000D03*
X128005840Y-143640000D03*
X112765840Y-113160000D03*
X128005840Y-141100000D03*
X112765840Y-115700000D03*
X128005840Y-138560000D03*
X112765840Y-118240000D03*
X128005840Y-136020000D03*
X112765840Y-120780000D03*
X128005840Y-133480000D03*
X112765840Y-123320000D03*
X128005840Y-130940000D03*
X112765840Y-125860000D03*
X128005840Y-128400000D03*
X112765840Y-128400000D03*
X128005840Y-125860000D03*
X112765840Y-130940000D03*
X128005840Y-123320000D03*
X112765840Y-133480000D03*
X128005840Y-120780000D03*
X112765840Y-136020000D03*
X128005840Y-118240000D03*
X112765840Y-138560000D03*
X128005840Y-115700000D03*
X112765840Y-141100000D03*
X128005840Y-113160000D03*
X112765840Y-143640000D03*
X128005840Y-110620000D03*
X112765840Y-146180000D03*
X128005840Y-108080000D03*
X112765840Y-148720000D03*
X128005840Y-105540000D03*
X112765840Y-151260000D03*
X128005840Y-103000000D03*
D17*
X120365520Y-100416360D03*
D18*
X135605520Y-151216360D03*
X120365520Y-102956360D03*
X135605520Y-148676360D03*
X120365520Y-105496360D03*
X135605520Y-146136360D03*
X120365520Y-108036360D03*
X135605520Y-143596360D03*
X120365520Y-110576360D03*
X135605520Y-141056360D03*
X120365520Y-113116360D03*
X135605520Y-138516360D03*
X120365520Y-115656360D03*
X135605520Y-135976360D03*
X120365520Y-118196360D03*
X135605520Y-133436360D03*
X120365520Y-120736360D03*
X135605520Y-130896360D03*
X120365520Y-123276360D03*
X135605520Y-128356360D03*
X120365520Y-125816360D03*
X135605520Y-125816360D03*
X120365520Y-128356360D03*
X135605520Y-123276360D03*
X120365520Y-130896360D03*
X135605520Y-120736360D03*
X120365520Y-133436360D03*
X135605520Y-118196360D03*
X120365520Y-135976360D03*
X135605520Y-115656360D03*
X120365520Y-138516360D03*
X135605520Y-113116360D03*
X120365520Y-141056360D03*
X135605520Y-110576360D03*
X120365520Y-143596360D03*
X135605520Y-108036360D03*
X120365520Y-146136360D03*
X135605520Y-105496360D03*
X120365520Y-148676360D03*
X135605520Y-102956360D03*
X120365520Y-151216360D03*
X135605520Y-100416360D03*
D19*
X90919300Y-130378200D03*
X90919300Y-135258200D03*
M02*
