G04 #@! TF.FileFunction,Legend,Bot*
%FSLAX46Y46*%
G04 Gerber Fmt 4.6, Leading zero omitted, Abs format (unit mm)*
G04 Created by KiCad (PCBNEW 4.0.7) date 07/05/18 11:36:52*
%MOMM*%
%LPD*%
G01*
G04 APERTURE LIST*
%ADD10C,0.100000*%
%ADD11C,0.300000*%
%ADD12C,0.120000*%
%ADD13C,0.150000*%
G04 APERTURE END LIST*
D10*
D11*
X106668606Y-97511920D02*
X105954320Y-97511920D01*
X106811463Y-97940491D02*
X106311463Y-96440491D01*
X105811463Y-97940491D01*
X104525749Y-97940491D02*
X105382892Y-97940491D01*
X104954320Y-97940491D02*
X104954320Y-96440491D01*
X105097177Y-96654777D01*
X105240035Y-96797634D01*
X105382892Y-96869063D01*
X104025749Y-96440491D02*
X103025749Y-96440491D01*
X103668606Y-97940491D01*
X102454321Y-97797634D02*
X102382893Y-97869063D01*
X102454321Y-97940491D01*
X102525750Y-97869063D01*
X102454321Y-97797634D01*
X102454321Y-97940491D01*
X102454321Y-97011920D02*
X102382893Y-97083349D01*
X102454321Y-97154777D01*
X102525750Y-97083349D01*
X102454321Y-97011920D01*
X102454321Y-97154777D01*
X100597178Y-97940491D02*
X100597178Y-96440491D01*
X100025750Y-96440491D01*
X99882892Y-96511920D01*
X99811464Y-96583349D01*
X99740035Y-96726206D01*
X99740035Y-96940491D01*
X99811464Y-97083349D01*
X99882892Y-97154777D01*
X100025750Y-97226206D01*
X100597178Y-97226206D01*
X98240035Y-97797634D02*
X98311464Y-97869063D01*
X98525750Y-97940491D01*
X98668607Y-97940491D01*
X98882892Y-97869063D01*
X99025750Y-97726206D01*
X99097178Y-97583349D01*
X99168607Y-97297634D01*
X99168607Y-97083349D01*
X99097178Y-96797634D01*
X99025750Y-96654777D01*
X98882892Y-96511920D01*
X98668607Y-96440491D01*
X98525750Y-96440491D01*
X98311464Y-96511920D01*
X98240035Y-96583349D01*
X97311464Y-96440491D02*
X97168607Y-96440491D01*
X97025750Y-96511920D01*
X96954321Y-96583349D01*
X96882892Y-96726206D01*
X96811464Y-97011920D01*
X96811464Y-97369063D01*
X96882892Y-97654777D01*
X96954321Y-97797634D01*
X97025750Y-97869063D01*
X97168607Y-97940491D01*
X97311464Y-97940491D01*
X97454321Y-97869063D01*
X97525750Y-97797634D01*
X97597178Y-97654777D01*
X97668607Y-97369063D01*
X97668607Y-97011920D01*
X97597178Y-96726206D01*
X97525750Y-96583349D01*
X97454321Y-96511920D01*
X97311464Y-96440491D01*
X95025750Y-97154777D02*
X93882893Y-97154777D01*
X93882893Y-97583349D02*
X95025750Y-97583349D01*
X92097179Y-97511920D02*
X91382893Y-97511920D01*
X92240036Y-97940491D02*
X91740036Y-96440491D01*
X91240036Y-97940491D01*
X89954322Y-97940491D02*
X90811465Y-97940491D01*
X90382893Y-97940491D02*
X90382893Y-96440491D01*
X90525750Y-96654777D01*
X90668608Y-96797634D01*
X90811465Y-96869063D01*
X89454322Y-96440491D02*
X88454322Y-96440491D01*
X89097179Y-97940491D01*
X87882894Y-97940491D02*
X87882894Y-96940491D01*
X87882894Y-96440491D02*
X87954323Y-96511920D01*
X87882894Y-96583349D01*
X87811466Y-96511920D01*
X87882894Y-96440491D01*
X87882894Y-96583349D01*
X87168608Y-96940491D02*
X87168608Y-97940491D01*
X87168608Y-97083349D02*
X87097180Y-97011920D01*
X86954322Y-96940491D01*
X86740037Y-96940491D01*
X86597180Y-97011920D01*
X86525751Y-97154777D01*
X86525751Y-97940491D01*
X104097177Y-100490491D02*
X104240035Y-100419063D01*
X104311463Y-100347634D01*
X104382892Y-100204777D01*
X104382892Y-99776206D01*
X104311463Y-99633349D01*
X104240035Y-99561920D01*
X104097177Y-99490491D01*
X103882892Y-99490491D01*
X103740035Y-99561920D01*
X103668606Y-99633349D01*
X103597177Y-99776206D01*
X103597177Y-100204777D01*
X103668606Y-100347634D01*
X103740035Y-100419063D01*
X103882892Y-100490491D01*
X104097177Y-100490491D01*
X102954320Y-100490491D02*
X102954320Y-99490491D01*
X102954320Y-99776206D02*
X102882892Y-99633349D01*
X102811463Y-99561920D01*
X102668606Y-99490491D01*
X102525749Y-99490491D01*
X100882892Y-100490491D02*
X100882892Y-98990491D01*
X100311464Y-98990491D01*
X100168606Y-99061920D01*
X100097178Y-99133349D01*
X100025749Y-99276206D01*
X100025749Y-99490491D01*
X100097178Y-99633349D01*
X100168606Y-99704777D01*
X100311464Y-99776206D01*
X100882892Y-99776206D01*
X98525749Y-100347634D02*
X98597178Y-100419063D01*
X98811464Y-100490491D01*
X98954321Y-100490491D01*
X99168606Y-100419063D01*
X99311464Y-100276206D01*
X99382892Y-100133349D01*
X99454321Y-99847634D01*
X99454321Y-99633349D01*
X99382892Y-99347634D01*
X99311464Y-99204777D01*
X99168606Y-99061920D01*
X98954321Y-98990491D01*
X98811464Y-98990491D01*
X98597178Y-99061920D01*
X98525749Y-99133349D01*
X97097178Y-100490491D02*
X97954321Y-100490491D01*
X97525749Y-100490491D02*
X97525749Y-98990491D01*
X97668606Y-99204777D01*
X97811464Y-99347634D01*
X97954321Y-99419063D01*
X95311464Y-99704777D02*
X94168607Y-99704777D01*
X94168607Y-100133349D02*
X95311464Y-100133349D01*
X92525750Y-99490491D02*
X91954321Y-99490491D01*
X92311464Y-100490491D02*
X92311464Y-99204777D01*
X92240036Y-99061920D01*
X92097178Y-98990491D01*
X91954321Y-98990491D01*
X91454321Y-100490491D02*
X91454321Y-99490491D01*
X91454321Y-98990491D02*
X91525750Y-99061920D01*
X91454321Y-99133349D01*
X91382893Y-99061920D01*
X91454321Y-98990491D01*
X91454321Y-99133349D01*
X90882892Y-100490491D02*
X90097178Y-99490491D01*
X90882892Y-99490491D02*
X90097178Y-100490491D01*
X88954321Y-100419063D02*
X89097178Y-100490491D01*
X89382892Y-100490491D01*
X89525749Y-100419063D01*
X89597178Y-100276206D01*
X89597178Y-99704777D01*
X89525749Y-99561920D01*
X89382892Y-99490491D01*
X89097178Y-99490491D01*
X88954321Y-99561920D01*
X88882892Y-99704777D01*
X88882892Y-99847634D01*
X89597178Y-99990491D01*
X87597178Y-100490491D02*
X87597178Y-98990491D01*
X87597178Y-100419063D02*
X87740035Y-100490491D01*
X88025749Y-100490491D01*
X88168607Y-100419063D01*
X88240035Y-100347634D01*
X88311464Y-100204777D01*
X88311464Y-99776206D01*
X88240035Y-99633349D01*
X88168607Y-99561920D01*
X88025749Y-99490491D01*
X87740035Y-99490491D01*
X87597178Y-99561920D01*
X106668606Y-102611920D02*
X105954320Y-102611920D01*
X106811463Y-103040491D02*
X106311463Y-101540491D01*
X105811463Y-103040491D01*
X104525749Y-103040491D02*
X105382892Y-103040491D01*
X104954320Y-103040491D02*
X104954320Y-101540491D01*
X105097177Y-101754777D01*
X105240035Y-101897634D01*
X105382892Y-101969063D01*
X103668606Y-102183349D02*
X103811464Y-102111920D01*
X103882892Y-102040491D01*
X103954321Y-101897634D01*
X103954321Y-101826206D01*
X103882892Y-101683349D01*
X103811464Y-101611920D01*
X103668606Y-101540491D01*
X103382892Y-101540491D01*
X103240035Y-101611920D01*
X103168606Y-101683349D01*
X103097178Y-101826206D01*
X103097178Y-101897634D01*
X103168606Y-102040491D01*
X103240035Y-102111920D01*
X103382892Y-102183349D01*
X103668606Y-102183349D01*
X103811464Y-102254777D01*
X103882892Y-102326206D01*
X103954321Y-102469063D01*
X103954321Y-102754777D01*
X103882892Y-102897634D01*
X103811464Y-102969063D01*
X103668606Y-103040491D01*
X103382892Y-103040491D01*
X103240035Y-102969063D01*
X103168606Y-102897634D01*
X103097178Y-102754777D01*
X103097178Y-102469063D01*
X103168606Y-102326206D01*
X103240035Y-102254777D01*
X103382892Y-102183349D01*
X102454321Y-102897634D02*
X102382893Y-102969063D01*
X102454321Y-103040491D01*
X102525750Y-102969063D01*
X102454321Y-102897634D01*
X102454321Y-103040491D01*
X102454321Y-102111920D02*
X102382893Y-102183349D01*
X102454321Y-102254777D01*
X102525750Y-102183349D01*
X102454321Y-102111920D01*
X102454321Y-102254777D01*
X100597178Y-103040491D02*
X100597178Y-101540491D01*
X100025750Y-101540491D01*
X99882892Y-101611920D01*
X99811464Y-101683349D01*
X99740035Y-101826206D01*
X99740035Y-102040491D01*
X99811464Y-102183349D01*
X99882892Y-102254777D01*
X100025750Y-102326206D01*
X100597178Y-102326206D01*
X98240035Y-102897634D02*
X98311464Y-102969063D01*
X98525750Y-103040491D01*
X98668607Y-103040491D01*
X98882892Y-102969063D01*
X99025750Y-102826206D01*
X99097178Y-102683349D01*
X99168607Y-102397634D01*
X99168607Y-102183349D01*
X99097178Y-101897634D01*
X99025750Y-101754777D01*
X98882892Y-101611920D01*
X98668607Y-101540491D01*
X98525750Y-101540491D01*
X98311464Y-101611920D01*
X98240035Y-101683349D01*
X97668607Y-101683349D02*
X97597178Y-101611920D01*
X97454321Y-101540491D01*
X97097178Y-101540491D01*
X96954321Y-101611920D01*
X96882892Y-101683349D01*
X96811464Y-101826206D01*
X96811464Y-101969063D01*
X96882892Y-102183349D01*
X97740035Y-103040491D01*
X96811464Y-103040491D01*
X106668606Y-105161920D02*
X105954320Y-105161920D01*
X106811463Y-105590491D02*
X106311463Y-104090491D01*
X105811463Y-105590491D01*
X104525749Y-105590491D02*
X105382892Y-105590491D01*
X104954320Y-105590491D02*
X104954320Y-104090491D01*
X105097177Y-104304777D01*
X105240035Y-104447634D01*
X105382892Y-104519063D01*
X103811464Y-105590491D02*
X103525749Y-105590491D01*
X103382892Y-105519063D01*
X103311464Y-105447634D01*
X103168606Y-105233349D01*
X103097178Y-104947634D01*
X103097178Y-104376206D01*
X103168606Y-104233349D01*
X103240035Y-104161920D01*
X103382892Y-104090491D01*
X103668606Y-104090491D01*
X103811464Y-104161920D01*
X103882892Y-104233349D01*
X103954321Y-104376206D01*
X103954321Y-104733349D01*
X103882892Y-104876206D01*
X103811464Y-104947634D01*
X103668606Y-105019063D01*
X103382892Y-105019063D01*
X103240035Y-104947634D01*
X103168606Y-104876206D01*
X103097178Y-104733349D01*
X102454321Y-105447634D02*
X102382893Y-105519063D01*
X102454321Y-105590491D01*
X102525750Y-105519063D01*
X102454321Y-105447634D01*
X102454321Y-105590491D01*
X102454321Y-104661920D02*
X102382893Y-104733349D01*
X102454321Y-104804777D01*
X102525750Y-104733349D01*
X102454321Y-104661920D01*
X102454321Y-104804777D01*
X100597178Y-105590491D02*
X100597178Y-104090491D01*
X100025750Y-104090491D01*
X99882892Y-104161920D01*
X99811464Y-104233349D01*
X99740035Y-104376206D01*
X99740035Y-104590491D01*
X99811464Y-104733349D01*
X99882892Y-104804777D01*
X100025750Y-104876206D01*
X100597178Y-104876206D01*
X98240035Y-105447634D02*
X98311464Y-105519063D01*
X98525750Y-105590491D01*
X98668607Y-105590491D01*
X98882892Y-105519063D01*
X99025750Y-105376206D01*
X99097178Y-105233349D01*
X99168607Y-104947634D01*
X99168607Y-104733349D01*
X99097178Y-104447634D01*
X99025750Y-104304777D01*
X98882892Y-104161920D01*
X98668607Y-104090491D01*
X98525750Y-104090491D01*
X98311464Y-104161920D01*
X98240035Y-104233349D01*
X97740035Y-104090491D02*
X96811464Y-104090491D01*
X97311464Y-104661920D01*
X97097178Y-104661920D01*
X96954321Y-104733349D01*
X96882892Y-104804777D01*
X96811464Y-104947634D01*
X96811464Y-105304777D01*
X96882892Y-105447634D01*
X96954321Y-105519063D01*
X97097178Y-105590491D01*
X97525750Y-105590491D01*
X97668607Y-105519063D01*
X97740035Y-105447634D01*
D12*
X95548880Y-150551240D02*
X97348880Y-150551240D01*
X97348880Y-153771240D02*
X94898880Y-153771240D01*
X104545560Y-150551240D02*
X106345560Y-150551240D01*
X106345560Y-153771240D02*
X103895560Y-153771240D01*
D13*
X97210785Y-154513621D02*
X97210785Y-155323145D01*
X97163166Y-155418383D01*
X97115547Y-155466002D01*
X97020309Y-155513621D01*
X96829832Y-155513621D01*
X96734594Y-155466002D01*
X96686975Y-155418383D01*
X96639356Y-155323145D01*
X96639356Y-154513621D01*
X95639356Y-155513621D02*
X96210785Y-155513621D01*
X95925071Y-155513621D02*
X95925071Y-154513621D01*
X96020309Y-154656478D01*
X96115547Y-154751716D01*
X96210785Y-154799335D01*
X106179525Y-148987261D02*
X106179525Y-149796785D01*
X106131906Y-149892023D01*
X106084287Y-149939642D01*
X105989049Y-149987261D01*
X105798572Y-149987261D01*
X105703334Y-149939642D01*
X105655715Y-149892023D01*
X105608096Y-149796785D01*
X105608096Y-148987261D01*
X105179525Y-149082499D02*
X105131906Y-149034880D01*
X105036668Y-148987261D01*
X104798572Y-148987261D01*
X104703334Y-149034880D01*
X104655715Y-149082499D01*
X104608096Y-149177737D01*
X104608096Y-149272975D01*
X104655715Y-149415832D01*
X105227144Y-149987261D01*
X104608096Y-149987261D01*
M02*
