G04 #@! TF.GenerationSoftware,KiCad,Pcbnew,(5.1.5)-2*
G04 #@! TF.CreationDate,2020-04-13T15:56:23+02:00*
G04 #@! TF.ProjectId,kickswitch,6b69636b-7377-4697-9463-682e6b696361,rev?*
G04 #@! TF.SameCoordinates,Original*
G04 #@! TF.FileFunction,Other,Fab,Top*
%FSLAX46Y46*%
G04 Gerber Fmt 4.6, Leading zero omitted, Abs format (unit mm)*
G04 Created by KiCad (PCBNEW (5.1.5)-2) date 2020-04-13 15:56:23*
%MOMM*%
%LPD*%
G04 APERTURE LIST*
%ADD10C,0.100000*%
%ADD11C,0.150000*%
%ADD12C,0.075000*%
G04 APERTURE END LIST*
D10*
X90843200Y-133285280D02*
X92443200Y-133285280D01*
X92443200Y-133285280D02*
X92443200Y-134085280D01*
X92443200Y-134085280D02*
X90843200Y-134085280D01*
X90843200Y-134085280D02*
X90843200Y-133285280D01*
X92633700Y-147618400D02*
X91033700Y-147618400D01*
X91033700Y-147618400D02*
X91033700Y-146818400D01*
X91033700Y-146818400D02*
X92633700Y-146818400D01*
X92633700Y-146818400D02*
X92633700Y-147618400D01*
X91178480Y-102922120D02*
X92778480Y-102922120D01*
X92778480Y-102922120D02*
X92778480Y-103722120D01*
X92778480Y-103722120D02*
X91178480Y-103722120D01*
X91178480Y-103722120D02*
X91178480Y-102922120D01*
X88960960Y-102063360D02*
X88960960Y-102563360D01*
X88560960Y-102063360D02*
X88960960Y-101463360D01*
X89360960Y-102063360D02*
X88560960Y-102063360D01*
X88960960Y-101463360D02*
X89360960Y-102063360D01*
X88960960Y-101463360D02*
X88410960Y-101463360D01*
X88960960Y-101463360D02*
X89510960Y-101463360D01*
X88960960Y-101063360D02*
X88960960Y-101463360D01*
X88060960Y-100413360D02*
X89860960Y-100413360D01*
X88060960Y-103213360D02*
X88060960Y-100413360D01*
X89860960Y-103213360D02*
X88060960Y-103213360D01*
X89860960Y-100413360D02*
X89860960Y-103213360D01*
X92438120Y-100001120D02*
X92438120Y-100801120D01*
X90838120Y-100001120D02*
X92438120Y-100001120D01*
X90838120Y-100801120D02*
X90838120Y-100001120D01*
X92438120Y-100801120D02*
X90838120Y-100801120D01*
X98896680Y-110693200D02*
X104246680Y-110693200D01*
X104246680Y-110693200D02*
X104246680Y-146253200D01*
X104246680Y-146253200D02*
X97896680Y-146253200D01*
X97896680Y-146253200D02*
X97896680Y-111693200D01*
X97896680Y-111693200D02*
X98896680Y-110693200D01*
X118775720Y-101684280D02*
X132505720Y-101684280D01*
X132505720Y-101684280D02*
X132505720Y-152484280D01*
X132505720Y-152484280D02*
X117775720Y-152484280D01*
X117775720Y-152484280D02*
X117775720Y-102684280D01*
X117775720Y-102684280D02*
X118775720Y-101684280D01*
X116250720Y-101624280D02*
X116250720Y-152544280D01*
X116250720Y-152544280D02*
X134030720Y-152544280D01*
X134030720Y-152544280D02*
X134030720Y-101624280D01*
X134030720Y-101624280D02*
X116250720Y-101624280D01*
X126375400Y-99100640D02*
X140105400Y-99100640D01*
X140105400Y-99100640D02*
X140105400Y-152440640D01*
X140105400Y-152440640D02*
X125375400Y-152440640D01*
X125375400Y-152440640D02*
X125375400Y-100100640D01*
X125375400Y-100100640D02*
X126375400Y-99100640D01*
X123850400Y-99040640D02*
X123850400Y-152500640D01*
X123850400Y-152500640D02*
X141630400Y-152500640D01*
X141630400Y-152500640D02*
X141630400Y-99040640D01*
X141630400Y-99040640D02*
X123850400Y-99040640D01*
X94008840Y-137233120D02*
X94008840Y-143633120D01*
X89358840Y-137233120D02*
X89358840Y-143633120D01*
X93683840Y-137433120D02*
X93683840Y-143433120D01*
X89683840Y-137433120D02*
X89683840Y-143433120D01*
X89358840Y-137233120D02*
G75*
G02X94008840Y-137233120I2325000J0D01*
G01*
X89358840Y-143633120D02*
G75*
G03X94008840Y-143633120I2325000J0D01*
G01*
X89683840Y-137433120D02*
G75*
G02X93683840Y-137433120I2000000J0D01*
G01*
X89683840Y-143433120D02*
G75*
G03X93683840Y-143433120I2000000J0D01*
G01*
X89352120Y-131582160D02*
X85542120Y-131582160D01*
X85542120Y-131582160D02*
X85542120Y-106182160D01*
X85542120Y-106182160D02*
X90622120Y-106182160D01*
X90622120Y-106182160D02*
X90622120Y-130312160D01*
X90622120Y-130312160D02*
X89352120Y-131582160D01*
X110565880Y-125399480D02*
X113065880Y-125399480D01*
X113065880Y-125399480D02*
X113065880Y-102499480D01*
X113065880Y-102499480D02*
X110565880Y-102499480D01*
X110565880Y-102499480D02*
X110565880Y-125399480D01*
X110565880Y-122839480D02*
X113065880Y-122839480D01*
X147320320Y-99126360D02*
X144820320Y-99126360D01*
X144820320Y-99126360D02*
X144820320Y-124566360D01*
X144820320Y-124566360D02*
X147320320Y-124566360D01*
X147320320Y-124566360D02*
X147320320Y-99126360D01*
X147320320Y-101686360D02*
X144820320Y-101686360D01*
X127980000Y-103935000D02*
X128615000Y-103300000D01*
X127980000Y-110920000D02*
X127980000Y-103935000D01*
X130520000Y-110920000D02*
X127980000Y-110920000D01*
X130520000Y-103300000D02*
X130520000Y-110920000D01*
X128615000Y-103300000D02*
X130520000Y-103300000D01*
D11*
X90321000Y-131891779D02*
X90368619Y-131844160D01*
X90463857Y-131796540D01*
X90701952Y-131796540D01*
X90797190Y-131844160D01*
X90844809Y-131891779D01*
X90892428Y-131987017D01*
X90892428Y-132082255D01*
X90844809Y-132225112D01*
X90273380Y-132796540D01*
X90892428Y-132796540D01*
X91273380Y-131891779D02*
X91321000Y-131844160D01*
X91416238Y-131796540D01*
X91654333Y-131796540D01*
X91749571Y-131844160D01*
X91797190Y-131891779D01*
X91844809Y-131987017D01*
X91844809Y-132082255D01*
X91797190Y-132225112D01*
X91225761Y-132796540D01*
X91844809Y-132796540D01*
X92273380Y-132129874D02*
X92273380Y-133129874D01*
X92273380Y-132177493D02*
X92368619Y-132129874D01*
X92559095Y-132129874D01*
X92654333Y-132177493D01*
X92701952Y-132225112D01*
X92749571Y-132320350D01*
X92749571Y-132606064D01*
X92701952Y-132701302D01*
X92654333Y-132748921D01*
X92559095Y-132796540D01*
X92368619Y-132796540D01*
X92273380Y-132748921D01*
X93035285Y-132129874D02*
X93416238Y-132129874D01*
X93178142Y-132796540D02*
X93178142Y-131939398D01*
X93225761Y-131844160D01*
X93321000Y-131796540D01*
X93416238Y-131796540D01*
D12*
X91593200Y-133792422D02*
X91578914Y-133806708D01*
X91536057Y-133820994D01*
X91507485Y-133820994D01*
X91464628Y-133806708D01*
X91436057Y-133778137D01*
X91421771Y-133749565D01*
X91407485Y-133692422D01*
X91407485Y-133649565D01*
X91421771Y-133592422D01*
X91436057Y-133563851D01*
X91464628Y-133535280D01*
X91507485Y-133520994D01*
X91536057Y-133520994D01*
X91578914Y-133535280D01*
X91593200Y-133549565D01*
X91878914Y-133820994D02*
X91707485Y-133820994D01*
X91793200Y-133820994D02*
X91793200Y-133520994D01*
X91764628Y-133563851D01*
X91736057Y-133592422D01*
X91707485Y-133606708D01*
D11*
X87463500Y-146743159D02*
X87511119Y-146695540D01*
X87606357Y-146647920D01*
X87844452Y-146647920D01*
X87939690Y-146695540D01*
X87987309Y-146743159D01*
X88034928Y-146838397D01*
X88034928Y-146933635D01*
X87987309Y-147076492D01*
X87415880Y-147647920D01*
X88034928Y-147647920D01*
X88415880Y-146743159D02*
X88463500Y-146695540D01*
X88558738Y-146647920D01*
X88796833Y-146647920D01*
X88892071Y-146695540D01*
X88939690Y-146743159D01*
X88987309Y-146838397D01*
X88987309Y-146933635D01*
X88939690Y-147076492D01*
X88368261Y-147647920D01*
X88987309Y-147647920D01*
X89415880Y-146981254D02*
X89415880Y-147981254D01*
X89415880Y-147028873D02*
X89511119Y-146981254D01*
X89701595Y-146981254D01*
X89796833Y-147028873D01*
X89844452Y-147076492D01*
X89892071Y-147171730D01*
X89892071Y-147457444D01*
X89844452Y-147552682D01*
X89796833Y-147600301D01*
X89701595Y-147647920D01*
X89511119Y-147647920D01*
X89415880Y-147600301D01*
X90177785Y-146981254D02*
X90558738Y-146981254D01*
X90320642Y-147647920D02*
X90320642Y-146790778D01*
X90368261Y-146695540D01*
X90463500Y-146647920D01*
X90558738Y-146647920D01*
D12*
X91783700Y-147325542D02*
X91769414Y-147339828D01*
X91726557Y-147354114D01*
X91697985Y-147354114D01*
X91655128Y-147339828D01*
X91626557Y-147311257D01*
X91612271Y-147282685D01*
X91597985Y-147225542D01*
X91597985Y-147182685D01*
X91612271Y-147125542D01*
X91626557Y-147096971D01*
X91655128Y-147068400D01*
X91697985Y-147054114D01*
X91726557Y-147054114D01*
X91769414Y-147068400D01*
X91783700Y-147082685D01*
X91897985Y-147082685D02*
X91912271Y-147068400D01*
X91940842Y-147054114D01*
X92012271Y-147054114D01*
X92040842Y-147068400D01*
X92055128Y-147082685D01*
X92069414Y-147111257D01*
X92069414Y-147139828D01*
X92055128Y-147182685D01*
X91883700Y-147354114D01*
X92069414Y-147354114D01*
D11*
X90430860Y-105274500D02*
X89859432Y-105274500D01*
X90145146Y-105274500D02*
X90145146Y-104274500D01*
X90049908Y-104417358D01*
X89954670Y-104512596D01*
X89859432Y-104560215D01*
X91049908Y-104274500D02*
X91145146Y-104274500D01*
X91240384Y-104322120D01*
X91288003Y-104369739D01*
X91335622Y-104464977D01*
X91383241Y-104655453D01*
X91383241Y-104893548D01*
X91335622Y-105084024D01*
X91288003Y-105179262D01*
X91240384Y-105226881D01*
X91145146Y-105274500D01*
X91049908Y-105274500D01*
X90954670Y-105226881D01*
X90907051Y-105179262D01*
X90859432Y-105084024D01*
X90811813Y-104893548D01*
X90811813Y-104655453D01*
X90859432Y-104464977D01*
X90907051Y-104369739D01*
X90954670Y-104322120D01*
X91049908Y-104274500D01*
X92002289Y-104274500D02*
X92097527Y-104274500D01*
X92192765Y-104322120D01*
X92240384Y-104369739D01*
X92288003Y-104464977D01*
X92335622Y-104655453D01*
X92335622Y-104893548D01*
X92288003Y-105084024D01*
X92240384Y-105179262D01*
X92192765Y-105226881D01*
X92097527Y-105274500D01*
X92002289Y-105274500D01*
X91907051Y-105226881D01*
X91859432Y-105179262D01*
X91811813Y-105084024D01*
X91764194Y-104893548D01*
X91764194Y-104655453D01*
X91811813Y-104464977D01*
X91859432Y-104369739D01*
X91907051Y-104322120D01*
X92002289Y-104274500D01*
X92764194Y-104607834D02*
X92764194Y-105274500D01*
X92764194Y-104703072D02*
X92811813Y-104655453D01*
X92907051Y-104607834D01*
X93049908Y-104607834D01*
X93145146Y-104655453D01*
X93192765Y-104750691D01*
X93192765Y-105274500D01*
X94002289Y-104750691D02*
X93668956Y-104750691D01*
X93668956Y-105274500D02*
X93668956Y-104274500D01*
X94145146Y-104274500D01*
D12*
X91928480Y-103429262D02*
X91914194Y-103443548D01*
X91871337Y-103457834D01*
X91842765Y-103457834D01*
X91799908Y-103443548D01*
X91771337Y-103414977D01*
X91757051Y-103386405D01*
X91742765Y-103329262D01*
X91742765Y-103286405D01*
X91757051Y-103229262D01*
X91771337Y-103200691D01*
X91799908Y-103172120D01*
X91842765Y-103157834D01*
X91871337Y-103157834D01*
X91914194Y-103172120D01*
X91928480Y-103186405D01*
X92028480Y-103157834D02*
X92214194Y-103157834D01*
X92114194Y-103272120D01*
X92157051Y-103272120D01*
X92185622Y-103286405D01*
X92199908Y-103300691D01*
X92214194Y-103329262D01*
X92214194Y-103400691D01*
X92199908Y-103429262D01*
X92185622Y-103443548D01*
X92157051Y-103457834D01*
X92071337Y-103457834D01*
X92042765Y-103443548D01*
X92028480Y-103429262D01*
D11*
X87313340Y-103884788D02*
X87313340Y-104456217D01*
X87313340Y-104170502D02*
X86313340Y-104170502D01*
X86456198Y-104265740D01*
X86551436Y-104360979D01*
X86599055Y-104456217D01*
X86646674Y-103456217D02*
X87313340Y-103456217D01*
X86741912Y-103456217D02*
X86694293Y-103408598D01*
X86646674Y-103313360D01*
X86646674Y-103170502D01*
X86694293Y-103075264D01*
X86789531Y-103027645D01*
X87313340Y-103027645D01*
X86646674Y-102122883D02*
X87313340Y-102122883D01*
X86265721Y-102360979D02*
X86980007Y-102599074D01*
X86980007Y-101980026D01*
X87313340Y-101075264D02*
X87313340Y-101646693D01*
X87313340Y-101360979D02*
X86313340Y-101360979D01*
X86456198Y-101456217D01*
X86551436Y-101551455D01*
X86599055Y-101646693D01*
X86646674Y-100218121D02*
X87313340Y-100218121D01*
X86265721Y-100456217D02*
X86980007Y-100694312D01*
X86980007Y-100075264D01*
X86741912Y-99551455D02*
X86694293Y-99646693D01*
X86646674Y-99694312D01*
X86551436Y-99741931D01*
X86503817Y-99741931D01*
X86408579Y-99694312D01*
X86360960Y-99646693D01*
X86313340Y-99551455D01*
X86313340Y-99360979D01*
X86360960Y-99265740D01*
X86408579Y-99218121D01*
X86503817Y-99170502D01*
X86551436Y-99170502D01*
X86646674Y-99218121D01*
X86694293Y-99265740D01*
X86741912Y-99360979D01*
X86741912Y-99551455D01*
X86789531Y-99646693D01*
X86837150Y-99694312D01*
X86932388Y-99741931D01*
X87122864Y-99741931D01*
X87218102Y-99694312D01*
X87265721Y-99646693D01*
X87313340Y-99551455D01*
X87313340Y-99360979D01*
X87265721Y-99265740D01*
X87218102Y-99218121D01*
X87122864Y-99170502D01*
X86932388Y-99170502D01*
X86837150Y-99218121D01*
X86789531Y-99265740D01*
X86741912Y-99360979D01*
X89370160Y-99881915D02*
X88370160Y-99881915D01*
X88370160Y-99643820D01*
X88417780Y-99500962D01*
X88513018Y-99405724D01*
X88608256Y-99358105D01*
X88798732Y-99310486D01*
X88941589Y-99310486D01*
X89132065Y-99358105D01*
X89227303Y-99405724D01*
X89322541Y-99500962D01*
X89370160Y-99643820D01*
X89370160Y-99881915D01*
X89370160Y-98358105D02*
X89370160Y-98929534D01*
X89370160Y-98643820D02*
X88370160Y-98643820D01*
X88513018Y-98739058D01*
X88608256Y-98834296D01*
X88655875Y-98929534D01*
X91042881Y-99353500D02*
X90471453Y-99353500D01*
X90757167Y-99353500D02*
X90757167Y-98353500D01*
X90661929Y-98496358D01*
X90566691Y-98591596D01*
X90471453Y-98639215D01*
X91661929Y-98353500D02*
X91757167Y-98353500D01*
X91852405Y-98401120D01*
X91900024Y-98448739D01*
X91947643Y-98543977D01*
X91995262Y-98734453D01*
X91995262Y-98972548D01*
X91947643Y-99163024D01*
X91900024Y-99258262D01*
X91852405Y-99305881D01*
X91757167Y-99353500D01*
X91661929Y-99353500D01*
X91566691Y-99305881D01*
X91519072Y-99258262D01*
X91471453Y-99163024D01*
X91423834Y-98972548D01*
X91423834Y-98734453D01*
X91471453Y-98543977D01*
X91519072Y-98448739D01*
X91566691Y-98401120D01*
X91661929Y-98353500D01*
X92423834Y-99353500D02*
X92423834Y-98353500D01*
X92519072Y-98972548D02*
X92804786Y-99353500D01*
X92804786Y-98686834D02*
X92423834Y-99067786D01*
D12*
X91571453Y-100582072D02*
X91438120Y-100391596D01*
X91342881Y-100582072D02*
X91342881Y-100182072D01*
X91495262Y-100182072D01*
X91533358Y-100201120D01*
X91552405Y-100220167D01*
X91571453Y-100258262D01*
X91571453Y-100315405D01*
X91552405Y-100353500D01*
X91533358Y-100372548D01*
X91495262Y-100391596D01*
X91342881Y-100391596D01*
X91952405Y-100582072D02*
X91723834Y-100582072D01*
X91838120Y-100582072D02*
X91838120Y-100182072D01*
X91800024Y-100239215D01*
X91761929Y-100277310D01*
X91723834Y-100296358D01*
D11*
X94928822Y-147479866D02*
X95405013Y-147479866D01*
X94833584Y-147765580D02*
X95166918Y-146765580D01*
X95500251Y-147765580D01*
X95690727Y-146765580D02*
X96262156Y-146765580D01*
X95976441Y-147765580D02*
X95976441Y-146765580D01*
X96595489Y-147765580D02*
X96595489Y-146765580D01*
X96928822Y-147479866D01*
X97262156Y-146765580D01*
X97262156Y-147765580D01*
X97738346Y-147241771D02*
X98071680Y-147241771D01*
X98214537Y-147765580D02*
X97738346Y-147765580D01*
X97738346Y-146765580D01*
X98214537Y-146765580D01*
X99166918Y-146813200D02*
X99071680Y-146765580D01*
X98928822Y-146765580D01*
X98785965Y-146813200D01*
X98690727Y-146908438D01*
X98643108Y-147003676D01*
X98595489Y-147194152D01*
X98595489Y-147337009D01*
X98643108Y-147527485D01*
X98690727Y-147622723D01*
X98785965Y-147717961D01*
X98928822Y-147765580D01*
X99024060Y-147765580D01*
X99166918Y-147717961D01*
X99214537Y-147670342D01*
X99214537Y-147337009D01*
X99024060Y-147337009D01*
X99595489Y-147479866D02*
X100071680Y-147479866D01*
X99500251Y-147765580D02*
X99833584Y-146765580D01*
X100166918Y-147765580D01*
X100405013Y-146765580D02*
X101024060Y-146765580D01*
X100690727Y-147146533D01*
X100833584Y-147146533D01*
X100928822Y-147194152D01*
X100976441Y-147241771D01*
X101024060Y-147337009D01*
X101024060Y-147575104D01*
X100976441Y-147670342D01*
X100928822Y-147717961D01*
X100833584Y-147765580D01*
X100547870Y-147765580D01*
X100452632Y-147717961D01*
X100405013Y-147670342D01*
X101405013Y-146860819D02*
X101452632Y-146813200D01*
X101547870Y-146765580D01*
X101785965Y-146765580D01*
X101881203Y-146813200D01*
X101928822Y-146860819D01*
X101976441Y-146956057D01*
X101976441Y-147051295D01*
X101928822Y-147194152D01*
X101357394Y-147765580D01*
X101976441Y-147765580D01*
X102547870Y-147194152D02*
X102452632Y-147146533D01*
X102405013Y-147098914D01*
X102357394Y-147003676D01*
X102357394Y-146956057D01*
X102405013Y-146860819D01*
X102452632Y-146813200D01*
X102547870Y-146765580D01*
X102738346Y-146765580D01*
X102833584Y-146813200D01*
X102881203Y-146860819D01*
X102928822Y-146956057D01*
X102928822Y-147003676D01*
X102881203Y-147098914D01*
X102833584Y-147146533D01*
X102738346Y-147194152D01*
X102547870Y-147194152D01*
X102452632Y-147241771D01*
X102405013Y-147289390D01*
X102357394Y-147384628D01*
X102357394Y-147575104D01*
X102405013Y-147670342D01*
X102452632Y-147717961D01*
X102547870Y-147765580D01*
X102738346Y-147765580D01*
X102833584Y-147717961D01*
X102881203Y-147670342D01*
X102928822Y-147575104D01*
X102928822Y-147384628D01*
X102881203Y-147289390D01*
X102833584Y-147241771D01*
X102738346Y-147194152D01*
X103357394Y-147765580D02*
X103357394Y-146765580D01*
X103738346Y-146765580D01*
X103833584Y-146813200D01*
X103881203Y-146860819D01*
X103928822Y-146956057D01*
X103928822Y-147098914D01*
X103881203Y-147194152D01*
X103833584Y-147241771D01*
X103738346Y-147289390D01*
X103357394Y-147289390D01*
X104357394Y-147384628D02*
X105119299Y-147384628D01*
X105595489Y-147765580D02*
X105595489Y-146765580D01*
X105976441Y-146765580D01*
X106071680Y-146813200D01*
X106119299Y-146860819D01*
X106166918Y-146956057D01*
X106166918Y-147098914D01*
X106119299Y-147194152D01*
X106071680Y-147241771D01*
X105976441Y-147289390D01*
X105595489Y-147289390D01*
X106595489Y-146765580D02*
X106595489Y-147575104D01*
X106643108Y-147670342D01*
X106690727Y-147717961D01*
X106785965Y-147765580D01*
X106976441Y-147765580D01*
X107071680Y-147717961D01*
X107119299Y-147670342D01*
X107166918Y-147575104D01*
X107166918Y-146765580D01*
X100309775Y-127925580D02*
X100309775Y-128735104D01*
X100357394Y-128830342D01*
X100405013Y-128877961D01*
X100500251Y-128925580D01*
X100690727Y-128925580D01*
X100785965Y-128877961D01*
X100833584Y-128830342D01*
X100881203Y-128735104D01*
X100881203Y-127925580D01*
X101262156Y-127925580D02*
X101881203Y-127925580D01*
X101547870Y-128306533D01*
X101690727Y-128306533D01*
X101785965Y-128354152D01*
X101833584Y-128401771D01*
X101881203Y-128497009D01*
X101881203Y-128735104D01*
X101833584Y-128830342D01*
X101785965Y-128877961D01*
X101690727Y-128925580D01*
X101405013Y-128925580D01*
X101309775Y-128877961D01*
X101262156Y-128830342D01*
X116630369Y-154038560D02*
X116630369Y-153038560D01*
X116963702Y-153752846D01*
X117297036Y-153038560D01*
X117297036Y-154038560D01*
X118344655Y-153943322D02*
X118297036Y-153990941D01*
X118154179Y-154038560D01*
X118058940Y-154038560D01*
X117916083Y-153990941D01*
X117820845Y-153895703D01*
X117773226Y-153800465D01*
X117725607Y-153609989D01*
X117725607Y-153467132D01*
X117773226Y-153276656D01*
X117820845Y-153181418D01*
X117916083Y-153086180D01*
X118058940Y-153038560D01*
X118154179Y-153038560D01*
X118297036Y-153086180D01*
X118344655Y-153133799D01*
X118725607Y-153133799D02*
X118773226Y-153086180D01*
X118868464Y-153038560D01*
X119106560Y-153038560D01*
X119201798Y-153086180D01*
X119249417Y-153133799D01*
X119297036Y-153229037D01*
X119297036Y-153324275D01*
X119249417Y-153467132D01*
X118677988Y-154038560D01*
X119297036Y-154038560D01*
X119630369Y-153038560D02*
X120249417Y-153038560D01*
X119916083Y-153419513D01*
X120058940Y-153419513D01*
X120154179Y-153467132D01*
X120201798Y-153514751D01*
X120249417Y-153609989D01*
X120249417Y-153848084D01*
X120201798Y-153943322D01*
X120154179Y-153990941D01*
X120058940Y-154038560D01*
X119773226Y-154038560D01*
X119677988Y-153990941D01*
X119630369Y-153943322D01*
X121249417Y-153943322D02*
X121201798Y-153990941D01*
X121058940Y-154038560D01*
X120963702Y-154038560D01*
X120820845Y-153990941D01*
X120725607Y-153895703D01*
X120677988Y-153800465D01*
X120630369Y-153609989D01*
X120630369Y-153467132D01*
X120677988Y-153276656D01*
X120725607Y-153181418D01*
X120820845Y-153086180D01*
X120963702Y-153038560D01*
X121058940Y-153038560D01*
X121201798Y-153086180D01*
X121249417Y-153133799D01*
X122106560Y-153371894D02*
X122106560Y-154038560D01*
X121868464Y-152990941D02*
X121630369Y-153705227D01*
X122249417Y-153705227D01*
X123154179Y-154038560D02*
X122582750Y-154038560D01*
X122868464Y-154038560D02*
X122868464Y-153038560D01*
X122773226Y-153181418D01*
X122677988Y-153276656D01*
X122582750Y-153324275D01*
X123773226Y-153038560D02*
X123868464Y-153038560D01*
X123963702Y-153086180D01*
X124011321Y-153133799D01*
X124058940Y-153229037D01*
X124106560Y-153419513D01*
X124106560Y-153657608D01*
X124058940Y-153848084D01*
X124011321Y-153943322D01*
X123963702Y-153990941D01*
X123868464Y-154038560D01*
X123773226Y-154038560D01*
X123677988Y-153990941D01*
X123630369Y-153943322D01*
X123582750Y-153848084D01*
X123535131Y-153657608D01*
X123535131Y-153419513D01*
X123582750Y-153229037D01*
X123630369Y-153133799D01*
X123677988Y-153086180D01*
X123773226Y-153038560D01*
X124725607Y-153038560D02*
X124820845Y-153038560D01*
X124916083Y-153086180D01*
X124963702Y-153133799D01*
X125011321Y-153229037D01*
X125058940Y-153419513D01*
X125058940Y-153657608D01*
X125011321Y-153848084D01*
X124963702Y-153943322D01*
X124916083Y-153990941D01*
X124820845Y-154038560D01*
X124725607Y-154038560D01*
X124630369Y-153990941D01*
X124582750Y-153943322D01*
X124535131Y-153848084D01*
X124487512Y-153657608D01*
X124487512Y-153419513D01*
X124535131Y-153229037D01*
X124582750Y-153133799D01*
X124630369Y-153086180D01*
X124725607Y-153038560D01*
X125249417Y-154133799D02*
X126011321Y-154133799D01*
X126201798Y-153990941D02*
X126297036Y-154038560D01*
X126487512Y-154038560D01*
X126582750Y-153990941D01*
X126630369Y-153895703D01*
X126630369Y-153848084D01*
X126582750Y-153752846D01*
X126487512Y-153705227D01*
X126344655Y-153705227D01*
X126249417Y-153657608D01*
X126201798Y-153562370D01*
X126201798Y-153514751D01*
X126249417Y-153419513D01*
X126344655Y-153371894D01*
X126487512Y-153371894D01*
X126582750Y-153419513D01*
X127201798Y-154038560D02*
X127106560Y-153990941D01*
X127058940Y-153943322D01*
X127011321Y-153848084D01*
X127011321Y-153562370D01*
X127058940Y-153467132D01*
X127106560Y-153419513D01*
X127201798Y-153371894D01*
X127344655Y-153371894D01*
X127439893Y-153419513D01*
X127487512Y-153467132D01*
X127535131Y-153562370D01*
X127535131Y-153848084D01*
X127487512Y-153943322D01*
X127439893Y-153990941D01*
X127344655Y-154038560D01*
X127201798Y-154038560D01*
X128392274Y-153990941D02*
X128297036Y-154038560D01*
X128106560Y-154038560D01*
X128011321Y-153990941D01*
X127963702Y-153943322D01*
X127916083Y-153848084D01*
X127916083Y-153562370D01*
X127963702Y-153467132D01*
X128011321Y-153419513D01*
X128106560Y-153371894D01*
X128297036Y-153371894D01*
X128392274Y-153419513D01*
X128820845Y-154038560D02*
X128820845Y-153038560D01*
X128916083Y-153657608D02*
X129201798Y-154038560D01*
X129201798Y-153371894D02*
X128820845Y-153752846D01*
X130011321Y-153990941D02*
X129916083Y-154038560D01*
X129725607Y-154038560D01*
X129630369Y-153990941D01*
X129582750Y-153895703D01*
X129582750Y-153514751D01*
X129630369Y-153419513D01*
X129725607Y-153371894D01*
X129916083Y-153371894D01*
X130011321Y-153419513D01*
X130058940Y-153514751D01*
X130058940Y-153609989D01*
X129582750Y-153705227D01*
X130344655Y-153371894D02*
X130725607Y-153371894D01*
X130487512Y-153038560D02*
X130487512Y-153895703D01*
X130535131Y-153990941D01*
X130630369Y-154038560D01*
X130725607Y-154038560D01*
X124378815Y-126536660D02*
X124378815Y-127346184D01*
X124426434Y-127441422D01*
X124474053Y-127489041D01*
X124569291Y-127536660D01*
X124759767Y-127536660D01*
X124855005Y-127489041D01*
X124902624Y-127441422D01*
X124950243Y-127346184D01*
X124950243Y-126536660D01*
X125855005Y-126869994D02*
X125855005Y-127536660D01*
X125616910Y-126489041D02*
X125378815Y-127203327D01*
X125997862Y-127203327D01*
X129333074Y-154150320D02*
X129333074Y-153150320D01*
X129666407Y-153864606D01*
X129999740Y-153150320D01*
X129999740Y-154150320D01*
X130428312Y-153245559D02*
X130475931Y-153197940D01*
X130571169Y-153150320D01*
X130809264Y-153150320D01*
X130904502Y-153197940D01*
X130952121Y-153245559D01*
X130999740Y-153340797D01*
X130999740Y-153436035D01*
X130952121Y-153578892D01*
X130380693Y-154150320D01*
X130999740Y-154150320D01*
X131333074Y-153150320D02*
X131999740Y-153150320D01*
X131571169Y-154150320D01*
X132952121Y-154055082D02*
X132904502Y-154102701D01*
X132761645Y-154150320D01*
X132666407Y-154150320D01*
X132523550Y-154102701D01*
X132428312Y-154007463D01*
X132380693Y-153912225D01*
X132333074Y-153721749D01*
X132333074Y-153578892D01*
X132380693Y-153388416D01*
X132428312Y-153293178D01*
X132523550Y-153197940D01*
X132666407Y-153150320D01*
X132761645Y-153150320D01*
X132904502Y-153197940D01*
X132952121Y-153245559D01*
X133904502Y-154150320D02*
X133333074Y-154150320D01*
X133618788Y-154150320D02*
X133618788Y-153150320D01*
X133523550Y-153293178D01*
X133428312Y-153388416D01*
X133333074Y-153436035D01*
X134761645Y-153150320D02*
X134571169Y-153150320D01*
X134475931Y-153197940D01*
X134428312Y-153245559D01*
X134333074Y-153388416D01*
X134285455Y-153578892D01*
X134285455Y-153959844D01*
X134333074Y-154055082D01*
X134380693Y-154102701D01*
X134475931Y-154150320D01*
X134666407Y-154150320D01*
X134761645Y-154102701D01*
X134809264Y-154055082D01*
X134856883Y-153959844D01*
X134856883Y-153721749D01*
X134809264Y-153626511D01*
X134761645Y-153578892D01*
X134666407Y-153531273D01*
X134475931Y-153531273D01*
X134380693Y-153578892D01*
X134333074Y-153626511D01*
X134285455Y-153721749D01*
X135475931Y-153150320D02*
X135571169Y-153150320D01*
X135666407Y-153197940D01*
X135714026Y-153245559D01*
X135761645Y-153340797D01*
X135809264Y-153531273D01*
X135809264Y-153769368D01*
X135761645Y-153959844D01*
X135714026Y-154055082D01*
X135666407Y-154102701D01*
X135571169Y-154150320D01*
X135475931Y-154150320D01*
X135380693Y-154102701D01*
X135333074Y-154055082D01*
X135285455Y-153959844D01*
X135237836Y-153769368D01*
X135237836Y-153531273D01*
X135285455Y-153340797D01*
X135333074Y-153245559D01*
X135380693Y-153197940D01*
X135475931Y-153150320D01*
X131978495Y-125223020D02*
X131978495Y-126032544D01*
X132026114Y-126127782D01*
X132073733Y-126175401D01*
X132168971Y-126223020D01*
X132359447Y-126223020D01*
X132454685Y-126175401D01*
X132502304Y-126127782D01*
X132549923Y-126032544D01*
X132549923Y-125223020D01*
X133502304Y-125223020D02*
X133026114Y-125223020D01*
X132978495Y-125699211D01*
X133026114Y-125651592D01*
X133121352Y-125603973D01*
X133359447Y-125603973D01*
X133454685Y-125651592D01*
X133502304Y-125699211D01*
X133549923Y-125794449D01*
X133549923Y-126032544D01*
X133502304Y-126127782D01*
X133454685Y-126175401D01*
X133359447Y-126223020D01*
X133121352Y-126223020D01*
X133026114Y-126175401D01*
X132978495Y-126127782D01*
X88611220Y-142123596D02*
X88611220Y-142695024D01*
X88611220Y-142409310D02*
X87611220Y-142409310D01*
X87754078Y-142504548D01*
X87849316Y-142599786D01*
X87896935Y-142695024D01*
X87611220Y-141266453D02*
X87611220Y-141456929D01*
X87658840Y-141552167D01*
X87706459Y-141599786D01*
X87849316Y-141695024D01*
X88039792Y-141742643D01*
X88420744Y-141742643D01*
X88515982Y-141695024D01*
X88563601Y-141647405D01*
X88611220Y-141552167D01*
X88611220Y-141361691D01*
X88563601Y-141266453D01*
X88515982Y-141218834D01*
X88420744Y-141171215D01*
X88182649Y-141171215D01*
X88087411Y-141218834D01*
X88039792Y-141266453D01*
X87992173Y-141361691D01*
X87992173Y-141552167D01*
X88039792Y-141647405D01*
X88087411Y-141695024D01*
X88182649Y-141742643D01*
X88611220Y-140742643D02*
X87611220Y-140742643D01*
X88325506Y-140409310D01*
X87611220Y-140075977D01*
X88611220Y-140075977D01*
X88611220Y-139599786D02*
X87611220Y-139599786D01*
X88087411Y-139599786D02*
X88087411Y-139028358D01*
X88611220Y-139028358D02*
X87611220Y-139028358D01*
X87944554Y-138647405D02*
X87944554Y-138123596D01*
X88611220Y-138647405D01*
X88611220Y-138123596D01*
X91660030Y-140909310D02*
X92136220Y-140909310D01*
X91136220Y-141242643D02*
X91660030Y-140909310D01*
X91136220Y-140575977D01*
X92136220Y-139718834D02*
X92136220Y-140290262D01*
X92136220Y-140004548D02*
X91136220Y-140004548D01*
X91279078Y-140099786D01*
X91374316Y-140195024D01*
X91421935Y-140290262D01*
X80439262Y-105479302D02*
X80391643Y-105526921D01*
X80248786Y-105574540D01*
X80153548Y-105574540D01*
X80010691Y-105526921D01*
X79915453Y-105431683D01*
X79867834Y-105336445D01*
X79820215Y-105145969D01*
X79820215Y-105003112D01*
X79867834Y-104812636D01*
X79915453Y-104717398D01*
X80010691Y-104622160D01*
X80153548Y-104574540D01*
X80248786Y-104574540D01*
X80391643Y-104622160D01*
X80439262Y-104669779D01*
X81010691Y-105574540D02*
X80915453Y-105526921D01*
X80867834Y-105479302D01*
X80820215Y-105384064D01*
X80820215Y-105098350D01*
X80867834Y-105003112D01*
X80915453Y-104955493D01*
X81010691Y-104907874D01*
X81153548Y-104907874D01*
X81248786Y-104955493D01*
X81296405Y-105003112D01*
X81344024Y-105098350D01*
X81344024Y-105384064D01*
X81296405Y-105479302D01*
X81248786Y-105526921D01*
X81153548Y-105574540D01*
X81010691Y-105574540D01*
X81772596Y-104907874D02*
X81772596Y-105574540D01*
X81772596Y-105003112D02*
X81820215Y-104955493D01*
X81915453Y-104907874D01*
X82058310Y-104907874D01*
X82153548Y-104955493D01*
X82201167Y-105050731D01*
X82201167Y-105574540D01*
X82677358Y-104907874D02*
X82677358Y-105574540D01*
X82677358Y-105003112D02*
X82724977Y-104955493D01*
X82820215Y-104907874D01*
X82963072Y-104907874D01*
X83058310Y-104955493D01*
X83105929Y-105050731D01*
X83105929Y-105574540D01*
X83344024Y-105669779D02*
X84105929Y-105669779D01*
X84534500Y-104574540D02*
X84629739Y-104574540D01*
X84724977Y-104622160D01*
X84772596Y-104669779D01*
X84820215Y-104765017D01*
X84867834Y-104955493D01*
X84867834Y-105193588D01*
X84820215Y-105384064D01*
X84772596Y-105479302D01*
X84724977Y-105526921D01*
X84629739Y-105574540D01*
X84534500Y-105574540D01*
X84439262Y-105526921D01*
X84391643Y-105479302D01*
X84344024Y-105384064D01*
X84296405Y-105193588D01*
X84296405Y-104955493D01*
X84344024Y-104765017D01*
X84391643Y-104669779D01*
X84439262Y-104622160D01*
X84534500Y-104574540D01*
X85248786Y-104669779D02*
X85296405Y-104622160D01*
X85391643Y-104574540D01*
X85629739Y-104574540D01*
X85724977Y-104622160D01*
X85772596Y-104669779D01*
X85820215Y-104765017D01*
X85820215Y-104860255D01*
X85772596Y-105003112D01*
X85201167Y-105574540D01*
X85820215Y-105574540D01*
X86153548Y-105574540D02*
X86677358Y-104907874D01*
X86153548Y-104907874D02*
X86677358Y-105574540D01*
X87582120Y-105574540D02*
X87010691Y-105574540D01*
X87296405Y-105574540D02*
X87296405Y-104574540D01*
X87201167Y-104717398D01*
X87105929Y-104812636D01*
X87010691Y-104860255D01*
X88201167Y-104574540D02*
X88296405Y-104574540D01*
X88391643Y-104622160D01*
X88439262Y-104669779D01*
X88486881Y-104765017D01*
X88534500Y-104955493D01*
X88534500Y-105193588D01*
X88486881Y-105384064D01*
X88439262Y-105479302D01*
X88391643Y-105526921D01*
X88296405Y-105574540D01*
X88201167Y-105574540D01*
X88105929Y-105526921D01*
X88058310Y-105479302D01*
X88010691Y-105384064D01*
X87963072Y-105193588D01*
X87963072Y-104955493D01*
X88010691Y-104765017D01*
X88058310Y-104669779D01*
X88105929Y-104622160D01*
X88201167Y-104574540D01*
X88724977Y-105669779D02*
X89486881Y-105669779D01*
X89915453Y-104574540D02*
X90105929Y-104574540D01*
X90201167Y-104622160D01*
X90296405Y-104717398D01*
X90344024Y-104907874D01*
X90344024Y-105241207D01*
X90296405Y-105431683D01*
X90201167Y-105526921D01*
X90105929Y-105574540D01*
X89915453Y-105574540D01*
X89820215Y-105526921D01*
X89724977Y-105431683D01*
X89677358Y-105241207D01*
X89677358Y-104907874D01*
X89724977Y-104717398D01*
X89820215Y-104622160D01*
X89915453Y-104574540D01*
X91201167Y-105574540D02*
X91201167Y-104574540D01*
X91201167Y-105526921D02*
X91105929Y-105574540D01*
X90915453Y-105574540D01*
X90820215Y-105526921D01*
X90772596Y-105479302D01*
X90724977Y-105384064D01*
X90724977Y-105098350D01*
X90772596Y-105003112D01*
X90820215Y-104955493D01*
X90915453Y-104907874D01*
X91105929Y-104907874D01*
X91201167Y-104955493D01*
X92105929Y-105574540D02*
X92105929Y-104574540D01*
X92105929Y-105526921D02*
X92010691Y-105574540D01*
X91820215Y-105574540D01*
X91724977Y-105526921D01*
X91677358Y-105479302D01*
X91629739Y-105384064D01*
X91629739Y-105098350D01*
X91677358Y-105003112D01*
X91724977Y-104955493D01*
X91820215Y-104907874D01*
X92010691Y-104907874D01*
X92105929Y-104955493D01*
X92344024Y-105669779D02*
X93105929Y-105669779D01*
X93344024Y-105050731D02*
X93677358Y-105050731D01*
X93820215Y-105574540D02*
X93344024Y-105574540D01*
X93344024Y-104574540D01*
X93820215Y-104574540D01*
X94153548Y-104907874D02*
X94391643Y-105574540D01*
X94629739Y-104907874D01*
X95391643Y-105526921D02*
X95296405Y-105574540D01*
X95105929Y-105574540D01*
X95010691Y-105526921D01*
X94963072Y-105431683D01*
X94963072Y-105050731D01*
X95010691Y-104955493D01*
X95105929Y-104907874D01*
X95296405Y-104907874D01*
X95391643Y-104955493D01*
X95439262Y-105050731D01*
X95439262Y-105145969D01*
X94963072Y-105241207D01*
X95867834Y-104907874D02*
X95867834Y-105574540D01*
X95867834Y-105003112D02*
X95915453Y-104955493D01*
X96010691Y-104907874D01*
X96153548Y-104907874D01*
X96248786Y-104955493D01*
X96296405Y-105050731D01*
X96296405Y-105574540D01*
X87534500Y-119215493D02*
X88248786Y-119215493D01*
X88391643Y-119263112D01*
X88486881Y-119358350D01*
X88534500Y-119501207D01*
X88534500Y-119596445D01*
X88534500Y-118215493D02*
X88534500Y-118786921D01*
X88534500Y-118501207D02*
X87534500Y-118501207D01*
X87677358Y-118596445D01*
X87772596Y-118691683D01*
X87820215Y-118786921D01*
X114001594Y-113369956D02*
X114668260Y-113369956D01*
X113620641Y-113608051D02*
X114334927Y-113846146D01*
X114334927Y-113227099D01*
X114668260Y-112846146D02*
X113668260Y-112846146D01*
X114287308Y-112750908D02*
X114668260Y-112465194D01*
X114001594Y-112465194D02*
X114382546Y-112846146D01*
X113668260Y-112131860D02*
X113668260Y-111465194D01*
X114668260Y-111893765D01*
X143456034Y-113806836D02*
X144122700Y-113806836D01*
X143075081Y-114044931D02*
X143789367Y-114283026D01*
X143789367Y-113663979D01*
X144122700Y-113283026D02*
X143122700Y-113283026D01*
X143741748Y-113187788D02*
X144122700Y-112902074D01*
X143456034Y-112902074D02*
X143836986Y-113283026D01*
X143122700Y-112568740D02*
X143122700Y-111902074D01*
X144122700Y-112330645D01*
X125511904Y-112337142D02*
X125464285Y-112384761D01*
X125321428Y-112432380D01*
X125226190Y-112432380D01*
X125083333Y-112384761D01*
X124988095Y-112289523D01*
X124940476Y-112194285D01*
X124892857Y-112003809D01*
X124892857Y-111860952D01*
X124940476Y-111670476D01*
X124988095Y-111575238D01*
X125083333Y-111480000D01*
X125226190Y-111432380D01*
X125321428Y-111432380D01*
X125464285Y-111480000D01*
X125511904Y-111527619D01*
X126083333Y-112432380D02*
X125988095Y-112384761D01*
X125940476Y-112337142D01*
X125892857Y-112241904D01*
X125892857Y-111956190D01*
X125940476Y-111860952D01*
X125988095Y-111813333D01*
X126083333Y-111765714D01*
X126226190Y-111765714D01*
X126321428Y-111813333D01*
X126369047Y-111860952D01*
X126416666Y-111956190D01*
X126416666Y-112241904D01*
X126369047Y-112337142D01*
X126321428Y-112384761D01*
X126226190Y-112432380D01*
X126083333Y-112432380D01*
X126845238Y-111765714D02*
X126845238Y-112432380D01*
X126845238Y-111860952D02*
X126892857Y-111813333D01*
X126988095Y-111765714D01*
X127130952Y-111765714D01*
X127226190Y-111813333D01*
X127273809Y-111908571D01*
X127273809Y-112432380D01*
X127750000Y-111765714D02*
X127750000Y-112432380D01*
X127750000Y-111860952D02*
X127797619Y-111813333D01*
X127892857Y-111765714D01*
X128035714Y-111765714D01*
X128130952Y-111813333D01*
X128178571Y-111908571D01*
X128178571Y-112432380D01*
X128416666Y-112527619D02*
X129178571Y-112527619D01*
X129607142Y-111432380D02*
X129702380Y-111432380D01*
X129797619Y-111480000D01*
X129845238Y-111527619D01*
X129892857Y-111622857D01*
X129940476Y-111813333D01*
X129940476Y-112051428D01*
X129892857Y-112241904D01*
X129845238Y-112337142D01*
X129797619Y-112384761D01*
X129702380Y-112432380D01*
X129607142Y-112432380D01*
X129511904Y-112384761D01*
X129464285Y-112337142D01*
X129416666Y-112241904D01*
X129369047Y-112051428D01*
X129369047Y-111813333D01*
X129416666Y-111622857D01*
X129464285Y-111527619D01*
X129511904Y-111480000D01*
X129607142Y-111432380D01*
X130892857Y-112432380D02*
X130321428Y-112432380D01*
X130607142Y-112432380D02*
X130607142Y-111432380D01*
X130511904Y-111575238D01*
X130416666Y-111670476D01*
X130321428Y-111718095D01*
X131226190Y-112432380D02*
X131750000Y-111765714D01*
X131226190Y-111765714D02*
X131750000Y-112432380D01*
X132321428Y-111432380D02*
X132416666Y-111432380D01*
X132511904Y-111480000D01*
X132559523Y-111527619D01*
X132607142Y-111622857D01*
X132654761Y-111813333D01*
X132654761Y-112051428D01*
X132607142Y-112241904D01*
X132559523Y-112337142D01*
X132511904Y-112384761D01*
X132416666Y-112432380D01*
X132321428Y-112432380D01*
X132226190Y-112384761D01*
X132178571Y-112337142D01*
X132130952Y-112241904D01*
X132083333Y-112051428D01*
X132083333Y-111813333D01*
X132130952Y-111622857D01*
X132178571Y-111527619D01*
X132226190Y-111480000D01*
X132321428Y-111432380D01*
X132988095Y-111432380D02*
X133607142Y-111432380D01*
X133273809Y-111813333D01*
X133416666Y-111813333D01*
X133511904Y-111860952D01*
X133559523Y-111908571D01*
X133607142Y-112003809D01*
X133607142Y-112241904D01*
X133559523Y-112337142D01*
X133511904Y-112384761D01*
X133416666Y-112432380D01*
X133130952Y-112432380D01*
X133035714Y-112384761D01*
X132988095Y-112337142D01*
X128702380Y-107443333D02*
X129416666Y-107443333D01*
X129559523Y-107490952D01*
X129654761Y-107586190D01*
X129702380Y-107729047D01*
X129702380Y-107824285D01*
X128797619Y-107014761D02*
X128750000Y-106967142D01*
X128702380Y-106871904D01*
X128702380Y-106633809D01*
X128750000Y-106538571D01*
X128797619Y-106490952D01*
X128892857Y-106443333D01*
X128988095Y-106443333D01*
X129130952Y-106490952D01*
X129702380Y-107062380D01*
X129702380Y-106443333D01*
M02*
