G04 #@! TF.FileFunction,Copper,L1,Top,Signal*
%FSLAX46Y46*%
G04 Gerber Fmt 4.6, Leading zero omitted, Abs format (unit mm)*
G04 Created by KiCad (PCBNEW 4.0.7) date 05/26/18 16:35:29*
%MOMM*%
%LPD*%
G01*
G04 APERTURE LIST*
%ADD10C,0.100000*%
%ADD11R,0.800000X0.750000*%
%ADD12R,1.100000X1.100000*%
%ADD13R,1.700000X1.700000*%
%ADD14O,1.700000X1.700000*%
%ADD15R,0.500000X0.900000*%
%ADD16R,1.550000X1.300000*%
%ADD17R,1.600000X1.600000*%
%ADD18O,1.600000X1.600000*%
%ADD19C,1.500000*%
%ADD20C,0.600000*%
%ADD21C,0.250000*%
G04 APERTURE END LIST*
D10*
D11*
X92304300Y-123774200D03*
X90804300Y-123774200D03*
X90931300Y-140919200D03*
X92431300Y-140919200D03*
X92728480Y-103322120D03*
X91228480Y-103322120D03*
D12*
X88960960Y-100413360D03*
X88960960Y-103213360D03*
D13*
X89344500Y-118948200D03*
D14*
X86804500Y-118948200D03*
X89344500Y-116408200D03*
X86804500Y-116408200D03*
X89344500Y-113868200D03*
X86804500Y-113868200D03*
X89344500Y-111328200D03*
X86804500Y-111328200D03*
D15*
X92388120Y-100401120D03*
X90888120Y-100401120D03*
D16*
X97721520Y-99464300D03*
X105671520Y-99464300D03*
X97721520Y-103964300D03*
X105671520Y-103964300D03*
D17*
X97261680Y-111963200D03*
D18*
X104881680Y-144983200D03*
X97261680Y-114503200D03*
X104881680Y-142443200D03*
X97261680Y-117043200D03*
X104881680Y-139903200D03*
X97261680Y-119583200D03*
X104881680Y-137363200D03*
X97261680Y-122123200D03*
X104881680Y-134823200D03*
X97261680Y-124663200D03*
X104881680Y-132283200D03*
X97261680Y-127203200D03*
X104881680Y-129743200D03*
X97261680Y-129743200D03*
X104881680Y-127203200D03*
X97261680Y-132283200D03*
X104881680Y-124663200D03*
X97261680Y-134823200D03*
X104881680Y-122123200D03*
X97261680Y-137363200D03*
X104881680Y-119583200D03*
X97261680Y-139903200D03*
X104881680Y-117043200D03*
X97261680Y-142443200D03*
X104881680Y-114503200D03*
X97261680Y-144983200D03*
X104881680Y-111963200D03*
D17*
X112765840Y-103000000D03*
D18*
X128005840Y-151260000D03*
X112765840Y-105540000D03*
X128005840Y-148720000D03*
X112765840Y-108080000D03*
X128005840Y-146180000D03*
X112765840Y-110620000D03*
X128005840Y-143640000D03*
X112765840Y-113160000D03*
X128005840Y-141100000D03*
X112765840Y-115700000D03*
X128005840Y-138560000D03*
X112765840Y-118240000D03*
X128005840Y-136020000D03*
X112765840Y-120780000D03*
X128005840Y-133480000D03*
X112765840Y-123320000D03*
X128005840Y-130940000D03*
X112765840Y-125860000D03*
X128005840Y-128400000D03*
X112765840Y-128400000D03*
X128005840Y-125860000D03*
X112765840Y-130940000D03*
X128005840Y-123320000D03*
X112765840Y-133480000D03*
X128005840Y-120780000D03*
X112765840Y-136020000D03*
X128005840Y-118240000D03*
X112765840Y-138560000D03*
X128005840Y-115700000D03*
X112765840Y-141100000D03*
X128005840Y-113160000D03*
X112765840Y-143640000D03*
X128005840Y-110620000D03*
X112765840Y-146180000D03*
X128005840Y-108080000D03*
X112765840Y-148720000D03*
X128005840Y-105540000D03*
X112765840Y-151260000D03*
X128005840Y-103000000D03*
D17*
X120365520Y-100416360D03*
D18*
X135605520Y-151216360D03*
X120365520Y-102956360D03*
X135605520Y-148676360D03*
X120365520Y-105496360D03*
X135605520Y-146136360D03*
X120365520Y-108036360D03*
X135605520Y-143596360D03*
X120365520Y-110576360D03*
X135605520Y-141056360D03*
X120365520Y-113116360D03*
X135605520Y-138516360D03*
X120365520Y-115656360D03*
X135605520Y-135976360D03*
X120365520Y-118196360D03*
X135605520Y-133436360D03*
X120365520Y-120736360D03*
X135605520Y-130896360D03*
X120365520Y-123276360D03*
X135605520Y-128356360D03*
X120365520Y-125816360D03*
X135605520Y-125816360D03*
X120365520Y-128356360D03*
X135605520Y-123276360D03*
X120365520Y-130896360D03*
X135605520Y-120736360D03*
X120365520Y-133436360D03*
X135605520Y-118196360D03*
X120365520Y-135976360D03*
X135605520Y-115656360D03*
X120365520Y-138516360D03*
X135605520Y-113116360D03*
X120365520Y-141056360D03*
X135605520Y-110576360D03*
X120365520Y-143596360D03*
X135605520Y-108036360D03*
X120365520Y-146136360D03*
X135605520Y-105496360D03*
X120365520Y-148676360D03*
X135605520Y-102956360D03*
X120365520Y-151216360D03*
X135605520Y-100416360D03*
D19*
X90919300Y-130378200D03*
X90919300Y-135258200D03*
D20*
X88859360Y-122610880D03*
X100584000Y-132323840D03*
X108267500Y-153334720D03*
X101231700Y-155028900D03*
X99936300Y-125882400D03*
X107988100Y-123438920D03*
X108813600Y-120853200D03*
X93012260Y-121203720D03*
X95638620Y-114554000D03*
X94223840Y-119339360D03*
X102920800Y-123444000D03*
D21*
X88859360Y-122610880D02*
X88900000Y-122651520D01*
X88900000Y-122651520D02*
X91181620Y-122651520D01*
X91181620Y-122651520D02*
X92304300Y-123774200D01*
X104881680Y-127203200D02*
X103022400Y-127203200D01*
X100482400Y-129743200D02*
X97261680Y-129743200D01*
X103022400Y-127203200D02*
X100482400Y-129743200D01*
X92728480Y-103322120D02*
X97079340Y-103322120D01*
X97079340Y-103322120D02*
X97721520Y-103964300D01*
X105671520Y-103964300D02*
X97721520Y-103964300D01*
X97721520Y-103964300D02*
X92304300Y-109381520D01*
X92304300Y-109381520D02*
X92304300Y-123774200D01*
X120365520Y-128356360D02*
X127962200Y-128356360D01*
X127962200Y-128356360D02*
X135605520Y-128356360D01*
X135605520Y-128356360D02*
X135605520Y-125816360D01*
X97261680Y-129743200D02*
X100705920Y-129743200D01*
X118074440Y-128356360D02*
X120365520Y-128356360D01*
X116921280Y-127203200D02*
X118074440Y-128356360D01*
X103245920Y-127203200D02*
X116921280Y-127203200D01*
X100705920Y-129743200D02*
X103245920Y-127203200D01*
X94800420Y-129893060D02*
X97111820Y-129893060D01*
X97111820Y-129893060D02*
X97261680Y-129743200D01*
X92431300Y-140919200D02*
X93385640Y-140919200D01*
X94800420Y-126270320D02*
X92304300Y-123774200D01*
X94800420Y-139504420D02*
X94800420Y-129893060D01*
X94800420Y-129893060D02*
X94800420Y-126270320D01*
X93385640Y-140919200D02*
X94800420Y-139504420D01*
X90804300Y-123774200D02*
X90804300Y-130263200D01*
X90804300Y-130263200D02*
X90919300Y-130378200D01*
X90931300Y-140919200D02*
X90931300Y-135270200D01*
X90931300Y-135270200D02*
X90919300Y-135258200D01*
X89344500Y-111328200D02*
X89344500Y-103596900D01*
X89344500Y-103596900D02*
X88960960Y-103213360D01*
X105651300Y-99444080D02*
X105671520Y-99464300D01*
X105671520Y-99464300D02*
X106672820Y-99464300D01*
X97261680Y-109758480D02*
X97261680Y-111963200D01*
X98557080Y-108463080D02*
X97261680Y-109758480D01*
X105582720Y-108463080D02*
X98557080Y-108463080D01*
X108478320Y-105567480D02*
X105582720Y-108463080D01*
X108478320Y-101269800D02*
X108478320Y-105567480D01*
X106672820Y-99464300D02*
X108478320Y-101269800D01*
X97721520Y-99464300D02*
X105671520Y-99464300D01*
X92388120Y-100401120D02*
X96784700Y-100401120D01*
X96784700Y-100401120D02*
X97721520Y-99464300D01*
X92388120Y-100401120D02*
X92388120Y-100931280D01*
X91228480Y-102090920D02*
X91228480Y-103322120D01*
X92388120Y-100931280D02*
X91228480Y-102090920D01*
X88960960Y-103213360D02*
X91119720Y-103213360D01*
X88960960Y-100413360D02*
X88420400Y-100413360D01*
X88420400Y-100413360D02*
X87477600Y-101356160D01*
X88066880Y-117670580D02*
X89344500Y-118948200D01*
X88066880Y-108691680D02*
X88066880Y-117670580D01*
X87477600Y-108102400D02*
X88066880Y-108691680D01*
X87477600Y-101356160D02*
X87477600Y-108102400D01*
X89344500Y-118948200D02*
X89344500Y-118625620D01*
X101254560Y-147177760D02*
X86278720Y-147177760D01*
X89344500Y-120540780D02*
X89344500Y-118948200D01*
X85587840Y-124297440D02*
X89344500Y-120540780D01*
X85587840Y-146486880D02*
X85587840Y-124297440D01*
X86278720Y-147177760D02*
X85587840Y-146486880D01*
X100624640Y-132283200D02*
X104881680Y-132283200D01*
X100584000Y-132323840D02*
X100624640Y-132283200D01*
X135605520Y-151216360D02*
X128049480Y-151216360D01*
X128049480Y-151216360D02*
X124617940Y-154647900D01*
X124617940Y-154647900D02*
X109580680Y-154647900D01*
X109580680Y-154647900D02*
X108267500Y-153334720D01*
X101254560Y-155028900D02*
X101254560Y-155122880D01*
X101231700Y-155028900D02*
X101254560Y-155028900D01*
X104881680Y-132283200D02*
X102077520Y-132283200D01*
X101254560Y-155122880D02*
X101254560Y-155122880D01*
X101254560Y-133106160D02*
X101254560Y-147177760D01*
X101254560Y-147177760D02*
X101254560Y-155122880D01*
X102077520Y-132283200D02*
X101254560Y-133106160D01*
X90888120Y-100401120D02*
X88973200Y-100401120D01*
X88973200Y-100401120D02*
X88960960Y-100413360D01*
X101422200Y-124663200D02*
X104881680Y-124663200D01*
X100164900Y-125920500D02*
X101422200Y-124663200D01*
X99898200Y-125920500D02*
X100164900Y-125920500D01*
X99936300Y-125882400D02*
X99898200Y-125920500D01*
X106674920Y-122125740D02*
X104884220Y-122125740D01*
X107988100Y-123438920D02*
X106674920Y-122125740D01*
X104884220Y-122125740D02*
X104881680Y-122123200D01*
X115900200Y-104279700D02*
X115900200Y-103974900D01*
X116918740Y-102956360D02*
X120365520Y-102956360D01*
X115900200Y-103974900D02*
X116918740Y-102956360D01*
X108813600Y-120853200D02*
X110794800Y-118872000D01*
X110794800Y-118872000D02*
X110794800Y-104889300D01*
X110794800Y-104889300D02*
X111404400Y-104279700D01*
X111404400Y-104279700D02*
X115900200Y-104279700D01*
X120243600Y-103078280D02*
X120365520Y-102956360D01*
X120365520Y-100416360D02*
X111648240Y-100416360D01*
X107736640Y-119583200D02*
X104881680Y-119583200D01*
X110083600Y-117236240D02*
X107736640Y-119583200D01*
X110083600Y-101981000D02*
X110083600Y-117236240D01*
X111648240Y-100416360D02*
X110083600Y-101981000D01*
X135605520Y-100416360D02*
X135605520Y-98612960D01*
X106507280Y-116789200D02*
X105135680Y-116789200D01*
X109245400Y-114051080D02*
X106507280Y-116789200D01*
X109245400Y-99745800D02*
X109245400Y-114051080D01*
X111145320Y-97845880D02*
X109245400Y-99745800D01*
X134838440Y-97845880D02*
X111145320Y-97845880D01*
X135605520Y-98612960D02*
X134838440Y-97845880D01*
X105135680Y-116789200D02*
X104881680Y-117043200D01*
X93012260Y-117180360D02*
X93012260Y-121203720D01*
X95638620Y-114554000D02*
X93012260Y-117180360D01*
X94223840Y-123179840D02*
X94223840Y-119339360D01*
X94488000Y-123444000D02*
X94223840Y-123179840D01*
X102920800Y-123444000D02*
X94488000Y-123444000D01*
M02*
