G04 #@! TF.FileFunction,Copper,L2,Bot,Signal*
%FSLAX46Y46*%
G04 Gerber Fmt 4.6, Leading zero omitted, Abs format (unit mm)*
G04 Created by KiCad (PCBNEW 4.0.7) date 05/26/18 16:35:29*
%MOMM*%
%LPD*%
G01*
G04 APERTURE LIST*
%ADD10C,0.100000*%
%ADD11R,1.700000X1.700000*%
%ADD12O,1.700000X1.700000*%
%ADD13R,1.060000X0.650000*%
%ADD14R,1.600000X1.600000*%
%ADD15O,1.600000X1.600000*%
%ADD16C,1.500000*%
%ADD17C,0.600000*%
%ADD18C,0.250000*%
G04 APERTURE END LIST*
D10*
D11*
X89344500Y-118948200D03*
D12*
X86804500Y-118948200D03*
X89344500Y-116408200D03*
X86804500Y-116408200D03*
X89344500Y-113868200D03*
X86804500Y-113868200D03*
X89344500Y-111328200D03*
X86804500Y-111328200D03*
D13*
X95348880Y-153111240D03*
X95348880Y-152161240D03*
X95348880Y-151211240D03*
X97548880Y-151211240D03*
X97548880Y-153111240D03*
X104345560Y-153111240D03*
X104345560Y-152161240D03*
X104345560Y-151211240D03*
X106545560Y-151211240D03*
X106545560Y-153111240D03*
D14*
X97261680Y-111963200D03*
D15*
X104881680Y-144983200D03*
X97261680Y-114503200D03*
X104881680Y-142443200D03*
X97261680Y-117043200D03*
X104881680Y-139903200D03*
X97261680Y-119583200D03*
X104881680Y-137363200D03*
X97261680Y-122123200D03*
X104881680Y-134823200D03*
X97261680Y-124663200D03*
X104881680Y-132283200D03*
X97261680Y-127203200D03*
X104881680Y-129743200D03*
X97261680Y-129743200D03*
X104881680Y-127203200D03*
X97261680Y-132283200D03*
X104881680Y-124663200D03*
X97261680Y-134823200D03*
X104881680Y-122123200D03*
X97261680Y-137363200D03*
X104881680Y-119583200D03*
X97261680Y-139903200D03*
X104881680Y-117043200D03*
X97261680Y-142443200D03*
X104881680Y-114503200D03*
X97261680Y-144983200D03*
X104881680Y-111963200D03*
D14*
X112765840Y-103000000D03*
D15*
X128005840Y-151260000D03*
X112765840Y-105540000D03*
X128005840Y-148720000D03*
X112765840Y-108080000D03*
X128005840Y-146180000D03*
X112765840Y-110620000D03*
X128005840Y-143640000D03*
X112765840Y-113160000D03*
X128005840Y-141100000D03*
X112765840Y-115700000D03*
X128005840Y-138560000D03*
X112765840Y-118240000D03*
X128005840Y-136020000D03*
X112765840Y-120780000D03*
X128005840Y-133480000D03*
X112765840Y-123320000D03*
X128005840Y-130940000D03*
X112765840Y-125860000D03*
X128005840Y-128400000D03*
X112765840Y-128400000D03*
X128005840Y-125860000D03*
X112765840Y-130940000D03*
X128005840Y-123320000D03*
X112765840Y-133480000D03*
X128005840Y-120780000D03*
X112765840Y-136020000D03*
X128005840Y-118240000D03*
X112765840Y-138560000D03*
X128005840Y-115700000D03*
X112765840Y-141100000D03*
X128005840Y-113160000D03*
X112765840Y-143640000D03*
X128005840Y-110620000D03*
X112765840Y-146180000D03*
X128005840Y-108080000D03*
X112765840Y-148720000D03*
X128005840Y-105540000D03*
X112765840Y-151260000D03*
X128005840Y-103000000D03*
D14*
X120365520Y-100416360D03*
D15*
X135605520Y-151216360D03*
X120365520Y-102956360D03*
X135605520Y-148676360D03*
X120365520Y-105496360D03*
X135605520Y-146136360D03*
X120365520Y-108036360D03*
X135605520Y-143596360D03*
X120365520Y-110576360D03*
X135605520Y-141056360D03*
X120365520Y-113116360D03*
X135605520Y-138516360D03*
X120365520Y-115656360D03*
X135605520Y-135976360D03*
X120365520Y-118196360D03*
X135605520Y-133436360D03*
X120365520Y-120736360D03*
X135605520Y-130896360D03*
X120365520Y-123276360D03*
X135605520Y-128356360D03*
X120365520Y-125816360D03*
X135605520Y-125816360D03*
X120365520Y-128356360D03*
X135605520Y-123276360D03*
X120365520Y-130896360D03*
X135605520Y-120736360D03*
X120365520Y-133436360D03*
X135605520Y-118196360D03*
X120365520Y-135976360D03*
X135605520Y-115656360D03*
X120365520Y-138516360D03*
X135605520Y-113116360D03*
X120365520Y-141056360D03*
X135605520Y-110576360D03*
X120365520Y-143596360D03*
X135605520Y-108036360D03*
X120365520Y-146136360D03*
X135605520Y-105496360D03*
X120365520Y-148676360D03*
X135605520Y-102956360D03*
X120365520Y-151216360D03*
X135605520Y-100416360D03*
D16*
X90919300Y-130378200D03*
X90919300Y-135258200D03*
D17*
X88859360Y-122610880D03*
X100584000Y-132323840D03*
X108267500Y-153334720D03*
X101231700Y-155028900D03*
X99936300Y-125882400D03*
X107988100Y-123438920D03*
X108813600Y-120853200D03*
X93012260Y-121203720D03*
X95638620Y-114554000D03*
X94223840Y-119339360D03*
X102920800Y-123444000D03*
D18*
X86804500Y-111328200D02*
X86263480Y-111328200D01*
X86263480Y-111328200D02*
X84795360Y-112796320D01*
X84795360Y-112796320D02*
X84795360Y-120985280D01*
X84795360Y-120985280D02*
X86441280Y-122631200D01*
X86441280Y-122631200D02*
X88839040Y-122631200D01*
X88839040Y-122631200D02*
X88859360Y-122610880D01*
X104345560Y-151211240D02*
X104345560Y-149867440D01*
X102783640Y-148305520D02*
X99075240Y-148305520D01*
X104345560Y-149867440D02*
X102783640Y-148305520D01*
X95348880Y-151211240D02*
X95348880Y-149517280D01*
X98450400Y-129743200D02*
X97261680Y-129743200D01*
X99578160Y-130870960D02*
X98450400Y-129743200D01*
X99578160Y-147802600D02*
X99578160Y-130870960D01*
X99075240Y-148305520D02*
X99578160Y-147802600D01*
X96560640Y-148305520D02*
X99075240Y-148305520D01*
X95348880Y-149517280D02*
X96560640Y-148305520D01*
X90919300Y-130378200D02*
X92440760Y-130378200D01*
X94345760Y-132283200D02*
X97261680Y-132283200D01*
X92440760Y-130378200D02*
X94345760Y-132283200D01*
X90919300Y-135258200D02*
X92504920Y-135258200D01*
X92939920Y-134823200D02*
X97261680Y-134823200D01*
X92504920Y-135258200D02*
X92939920Y-134823200D01*
X97261680Y-127203200D02*
X98425000Y-127203200D01*
X100584000Y-129362200D02*
X100584000Y-132323840D01*
X98425000Y-127203200D02*
X100584000Y-129362200D01*
X108267500Y-153334720D02*
X108044020Y-153111240D01*
X108044020Y-153111240D02*
X106545560Y-153111240D01*
X101231700Y-155028900D02*
X105384600Y-155028900D01*
X106545560Y-153867940D02*
X106545560Y-153111240D01*
X105384600Y-155028900D02*
X106545560Y-153867940D01*
X97548880Y-153111240D02*
X99314040Y-153111240D01*
X99314040Y-153111240D02*
X101231700Y-155028900D01*
X89344500Y-113868200D02*
X94983300Y-113868200D01*
X105910380Y-137363200D02*
X104881680Y-137363200D01*
X106702860Y-136570720D02*
X105910380Y-137363200D01*
X106702860Y-134223760D02*
X106702860Y-136570720D01*
X106004360Y-133525260D02*
X106702860Y-134223760D01*
X103182420Y-133525260D02*
X106004360Y-133525260D01*
X102176580Y-132519420D02*
X103182420Y-133525260D01*
X102176580Y-115224560D02*
X102176580Y-132519420D01*
X100192840Y-113240820D02*
X102176580Y-115224560D01*
X95610680Y-113240820D02*
X100192840Y-113240820D01*
X94983300Y-113868200D02*
X95610680Y-113240820D01*
X86804500Y-113868200D02*
X86908640Y-113868200D01*
X86908640Y-113868200D02*
X88239600Y-115199160D01*
X88239600Y-115199160D02*
X94259400Y-115199160D01*
X94259400Y-115199160D02*
X94884240Y-115824000D01*
X94884240Y-115824000D02*
X99954080Y-115824000D01*
X99954080Y-115824000D02*
X101282500Y-117152420D01*
X101282500Y-117152420D02*
X101282500Y-133329680D01*
X101282500Y-133329680D02*
X102776020Y-134823200D01*
X102776020Y-134823200D02*
X104881680Y-134823200D01*
X86601300Y-113652300D02*
X86677500Y-113652300D01*
X112765840Y-103000000D02*
X111083900Y-103000000D01*
X98104740Y-155867100D02*
X95348880Y-153111240D01*
X107746800Y-155867100D02*
X98104740Y-155867100D01*
X109537500Y-154076400D02*
X107746800Y-155867100D01*
X109537500Y-104546400D02*
X109537500Y-154076400D01*
X111083900Y-103000000D02*
X109537500Y-104546400D01*
X95348880Y-152161240D02*
X93487240Y-152161240D01*
X87858600Y-125882400D02*
X99936300Y-125882400D01*
X86639400Y-127101600D02*
X87858600Y-125882400D01*
X86639400Y-145313400D02*
X86639400Y-127101600D01*
X93487240Y-152161240D02*
X86639400Y-145313400D01*
X97548880Y-151211240D02*
X100042940Y-151211240D01*
X101942940Y-153111240D02*
X104345560Y-153111240D01*
X100042940Y-151211240D02*
X101942940Y-153111240D01*
X104345560Y-152161240D02*
X105333800Y-152161240D01*
X108016040Y-123466860D02*
X107988100Y-123438920D01*
X108016040Y-145315940D02*
X108016040Y-123466860D01*
X105473500Y-147858480D02*
X108016040Y-145315940D01*
X105473500Y-152021540D02*
X105473500Y-147858480D01*
X105333800Y-152161240D02*
X105473500Y-152021540D01*
X106545560Y-151124740D02*
X108813600Y-148856700D01*
X108813600Y-148856700D02*
X108813600Y-120853200D01*
X106545560Y-151211240D02*
X106545560Y-151124740D01*
X121010680Y-103166720D02*
X120985280Y-103141320D01*
X112765840Y-105540000D02*
X120321880Y-105540000D01*
X120321880Y-105540000D02*
X120365520Y-105496360D01*
X120340120Y-105706720D02*
X120365520Y-105681320D01*
X128005840Y-148720000D02*
X135561880Y-148720000D01*
X135561880Y-148720000D02*
X135605520Y-148676360D01*
X112765840Y-108080000D02*
X120321880Y-108080000D01*
X120321880Y-108080000D02*
X120365520Y-108036360D01*
X120340120Y-108246720D02*
X120365520Y-108221320D01*
X128005840Y-146180000D02*
X135561880Y-146180000D01*
X135561880Y-146180000D02*
X135605520Y-146136360D01*
X112765840Y-110620000D02*
X120321880Y-110620000D01*
X120321880Y-110620000D02*
X120365520Y-110576360D01*
X128005840Y-143640000D02*
X135561880Y-143640000D01*
X135561880Y-143640000D02*
X135605520Y-143596360D01*
X112765840Y-113160000D02*
X120321880Y-113160000D01*
X120321880Y-113160000D02*
X120365520Y-113116360D01*
X128005840Y-141100000D02*
X135561880Y-141100000D01*
X135561880Y-141100000D02*
X135605520Y-141056360D01*
X112765840Y-115700000D02*
X120321880Y-115700000D01*
X120321880Y-115700000D02*
X120365520Y-115656360D01*
X128005840Y-138560000D02*
X135561880Y-138560000D01*
X135561880Y-138560000D02*
X135605520Y-138516360D01*
X112765840Y-118240000D02*
X120321880Y-118240000D01*
X120321880Y-118240000D02*
X120365520Y-118196360D01*
X128005840Y-136020000D02*
X135561880Y-136020000D01*
X135561880Y-136020000D02*
X135605520Y-135976360D01*
X112765840Y-120780000D02*
X120321880Y-120780000D01*
X120321880Y-120780000D02*
X120365520Y-120736360D01*
X128005840Y-133480000D02*
X135561880Y-133480000D01*
X135561880Y-133480000D02*
X135605520Y-133436360D01*
X112765840Y-123320000D02*
X120321880Y-123320000D01*
X120321880Y-123320000D02*
X120365520Y-123276360D01*
X128005840Y-130940000D02*
X135561880Y-130940000D01*
X135561880Y-130940000D02*
X135605520Y-130896360D01*
X112765840Y-125860000D02*
X120321880Y-125860000D01*
X120321880Y-125860000D02*
X120365520Y-125816360D01*
X112765840Y-130940000D02*
X120321880Y-130940000D01*
X120321880Y-130940000D02*
X119435880Y-131826000D01*
X119435880Y-131826000D02*
X119291100Y-131826000D01*
X128005840Y-123320000D02*
X135561880Y-123320000D01*
X135561880Y-123320000D02*
X135605520Y-123276360D01*
X112765840Y-133480000D02*
X120321880Y-133480000D01*
X120321880Y-133480000D02*
X120365520Y-133436360D01*
X128005840Y-120780000D02*
X135561880Y-120780000D01*
X135561880Y-120780000D02*
X135605520Y-120736360D01*
X112765840Y-136020000D02*
X120321880Y-136020000D01*
X120321880Y-136020000D02*
X120365520Y-135976360D01*
X128005840Y-118240000D02*
X135561880Y-118240000D01*
X135561880Y-118240000D02*
X135605520Y-118196360D01*
X112765840Y-138560000D02*
X120321880Y-138560000D01*
X120321880Y-138560000D02*
X120365520Y-138516360D01*
X128005840Y-115700000D02*
X135561880Y-115700000D01*
X135561880Y-115700000D02*
X135605520Y-115656360D01*
X112765840Y-141100000D02*
X120321880Y-141100000D01*
X120321880Y-141100000D02*
X120365520Y-141056360D01*
X128005840Y-113160000D02*
X135561880Y-113160000D01*
X135561880Y-113160000D02*
X135605520Y-113116360D01*
X112765840Y-143640000D02*
X120321880Y-143640000D01*
X120321880Y-143640000D02*
X120365520Y-143596360D01*
X128005840Y-110620000D02*
X135561880Y-110620000D01*
X135561880Y-110620000D02*
X135605520Y-110576360D01*
X112765840Y-146180000D02*
X120321880Y-146180000D01*
X120321880Y-146180000D02*
X120365520Y-146136360D01*
X128005840Y-108080000D02*
X135561880Y-108080000D01*
X135561880Y-108080000D02*
X135605520Y-108036360D01*
X112765840Y-148720000D02*
X120321880Y-148720000D01*
X120321880Y-148720000D02*
X120365520Y-148676360D01*
X128005840Y-105540000D02*
X135561880Y-105540000D01*
X135561880Y-105540000D02*
X135605520Y-105496360D01*
X112765840Y-151260000D02*
X120321880Y-151260000D01*
X120321880Y-151260000D02*
X120365520Y-151216360D01*
X128005840Y-103000000D02*
X135561880Y-103000000D01*
X135561880Y-103000000D02*
X135605520Y-102956360D01*
X97261680Y-114503200D02*
X95689420Y-114503200D01*
X86804500Y-120444260D02*
X86804500Y-118948200D01*
X88262460Y-121902220D02*
X86804500Y-120444260D01*
X92313760Y-121902220D02*
X88262460Y-121902220D01*
X93012260Y-121203720D02*
X92313760Y-121902220D01*
X95689420Y-114503200D02*
X95638620Y-114554000D01*
X89344500Y-116408200D02*
X93472000Y-116408200D01*
X94107000Y-117043200D02*
X97261680Y-117043200D01*
X93472000Y-116408200D02*
X94107000Y-117043200D01*
X104881680Y-139903200D02*
X105806240Y-139903200D01*
X87701120Y-117652800D02*
X86804500Y-116756180D01*
X92537280Y-117652800D02*
X87701120Y-117652800D01*
X94223840Y-119339360D02*
X92537280Y-117652800D01*
X106334560Y-123444000D02*
X102920800Y-123444000D01*
X107248960Y-124358400D02*
X106334560Y-123444000D01*
X107248960Y-138460480D02*
X107248960Y-124358400D01*
X105806240Y-139903200D02*
X107248960Y-138460480D01*
X86804500Y-116756180D02*
X86804500Y-116408200D01*
M02*
