%FSLAX45Y45*%
G04 Gerber Fmt 4.5, Leading zero omitted, Abs format (unit mm)*
G04 Created by KiCad (PCBNEW 4.0.7) date 07/05/18 11:36:59*
%MOMM*%
%LPD*%
G01*
G04 APERTURE LIST*
%ADD10C,0.127000*%
%ADD11C,0.150000*%
%ADD12C,0.200000*%
%ADD13C,0.300000*%
G04 APERTURE END LIST*
D10*
D11*
X7647686Y-15696692D02*
X7647686Y-9309608D01*
X15026640Y-15696692D02*
X7647686Y-15696692D01*
X15026640Y-9309608D02*
X15026640Y-15696692D01*
X7647686Y-9309608D02*
X15026640Y-9309608D01*
D12*
X8557580Y-10303830D02*
X8597580Y-10343830D01*
X8597580Y-10303830D02*
X8557580Y-10343830D01*
X8557580Y-13352084D02*
X8597580Y-13392084D01*
X8597580Y-13352084D02*
X8557580Y-13392084D01*
X8560374Y-13167680D02*
X8600374Y-13207680D01*
X8600374Y-13167680D02*
X8560374Y-13207680D01*
X9337360Y-15094270D02*
X9377360Y-15134270D01*
X9377360Y-15094270D02*
X9337360Y-15134270D01*
X9375460Y-15193330D02*
X9415460Y-15233330D01*
X9415460Y-15193330D02*
X9375460Y-15233330D01*
X9504746Y-12066844D02*
X9544746Y-12106844D01*
X9544746Y-12066844D02*
X9504746Y-12106844D01*
X9873554Y-10692196D02*
X9913554Y-10732196D01*
X9913554Y-10692196D02*
X9873554Y-10732196D01*
X10030780Y-14728510D02*
X10070780Y-14768510D01*
X10070780Y-14728510D02*
X10030780Y-14768510D01*
X10074722Y-13623102D02*
X10114722Y-13663102D01*
X10114722Y-13623102D02*
X10074722Y-13663102D01*
X10103170Y-15482890D02*
X10143170Y-15522890D01*
X10143170Y-15482890D02*
X10103170Y-15522890D01*
X10194610Y-15098080D02*
X10234610Y-15138080D01*
X10234610Y-15098080D02*
X10194610Y-15138080D01*
X10778810Y-12323892D02*
X10818810Y-12363892D01*
X10818810Y-12323892D02*
X10778810Y-12363892D01*
X10827070Y-15292390D02*
X10867070Y-15332390D01*
X10867070Y-15292390D02*
X10827070Y-15332390D01*
X10861360Y-12065320D02*
X10901360Y-12105320D01*
X10901360Y-12065320D02*
X10861360Y-12105320D01*
X11002330Y-13209590D02*
X11042330Y-13249590D01*
X11042330Y-13209590D02*
X11002330Y-13249590D01*
X9208384Y-13799312D02*
G75*
G03X9208384Y-13799312I-40000J0D01*
G01*
X9208384Y-14287312D02*
G75*
G03X9208384Y-14287312I-40000J0D01*
G01*
X9766168Y-11196320D02*
G75*
G03X9766168Y-11196320I-40000J0D01*
G01*
X9766168Y-11450320D02*
G75*
G03X9766168Y-11450320I-40000J0D01*
G01*
X9766168Y-11704320D02*
G75*
G03X9766168Y-11704320I-40000J0D01*
G01*
X9766168Y-11958320D02*
G75*
G03X9766168Y-11958320I-40000J0D01*
G01*
X9766168Y-12212320D02*
G75*
G03X9766168Y-12212320I-40000J0D01*
G01*
X9766168Y-12466320D02*
G75*
G03X9766168Y-12466320I-40000J0D01*
G01*
X9766168Y-12720320D02*
G75*
G03X9766168Y-12720320I-40000J0D01*
G01*
X9766168Y-12974320D02*
G75*
G03X9766168Y-12974320I-40000J0D01*
G01*
X9766168Y-13228320D02*
G75*
G03X9766168Y-13228320I-40000J0D01*
G01*
X9766168Y-13482320D02*
G75*
G03X9766168Y-13482320I-40000J0D01*
G01*
X9766168Y-13736320D02*
G75*
G03X9766168Y-13736320I-40000J0D01*
G01*
X9766168Y-13990320D02*
G75*
G03X9766168Y-13990320I-40000J0D01*
G01*
X9766168Y-14244320D02*
G75*
G03X9766168Y-14244320I-40000J0D01*
G01*
X9766168Y-14498320D02*
G75*
G03X9766168Y-14498320I-40000J0D01*
G01*
X10528168Y-11196320D02*
G75*
G03X10528168Y-11196320I-40000J0D01*
G01*
X10528168Y-11450320D02*
G75*
G03X10528168Y-11450320I-40000J0D01*
G01*
X10528168Y-11704320D02*
G75*
G03X10528168Y-11704320I-40000J0D01*
G01*
X10528168Y-11958320D02*
G75*
G03X10528168Y-11958320I-40000J0D01*
G01*
X10528168Y-12212320D02*
G75*
G03X10528168Y-12212320I-40000J0D01*
G01*
X10528168Y-12466320D02*
G75*
G03X10528168Y-12466320I-40000J0D01*
G01*
X10528168Y-12720320D02*
G75*
G03X10528168Y-12720320I-40000J0D01*
G01*
X10528168Y-12974320D02*
G75*
G03X10528168Y-12974320I-40000J0D01*
G01*
X10528168Y-13228320D02*
G75*
G03X10528168Y-13228320I-40000J0D01*
G01*
X10528168Y-13482320D02*
G75*
G03X10528168Y-13482320I-40000J0D01*
G01*
X10528168Y-13736320D02*
G75*
G03X10528168Y-13736320I-40000J0D01*
G01*
X10528168Y-13990320D02*
G75*
G03X10528168Y-13990320I-40000J0D01*
G01*
X10528168Y-14244320D02*
G75*
G03X10528168Y-14244320I-40000J0D01*
G01*
X10528168Y-14498320D02*
G75*
G03X10528168Y-14498320I-40000J0D01*
G01*
X11221588Y-10378948D02*
G75*
G03X11221588Y-10378948I-40000J0D01*
G01*
X11221588Y-10632948D02*
G75*
G03X11221588Y-10632948I-40000J0D01*
G01*
X11221588Y-10886948D02*
G75*
G03X11221588Y-10886948I-40000J0D01*
G01*
X11221588Y-11140948D02*
G75*
G03X11221588Y-11140948I-40000J0D01*
G01*
X11221588Y-11394948D02*
G75*
G03X11221588Y-11394948I-40000J0D01*
G01*
X11221588Y-11648948D02*
G75*
G03X11221588Y-11648948I-40000J0D01*
G01*
X11221588Y-11902948D02*
G75*
G03X11221588Y-11902948I-40000J0D01*
G01*
X11221588Y-12156948D02*
G75*
G03X11221588Y-12156948I-40000J0D01*
G01*
X11221588Y-12410948D02*
G75*
G03X11221588Y-12410948I-40000J0D01*
G01*
X11792072Y-10295428D02*
G75*
G03X11792072Y-10295428I-40000J0D01*
G01*
X11792072Y-10549428D02*
G75*
G03X11792072Y-10549428I-40000J0D01*
G01*
X11792072Y-10803428D02*
G75*
G03X11792072Y-10803428I-40000J0D01*
G01*
X11792072Y-11057428D02*
G75*
G03X11792072Y-11057428I-40000J0D01*
G01*
X11792072Y-11311428D02*
G75*
G03X11792072Y-11311428I-40000J0D01*
G01*
X11792072Y-11565428D02*
G75*
G03X11792072Y-11565428I-40000J0D01*
G01*
X11792072Y-11819428D02*
G75*
G03X11792072Y-11819428I-40000J0D01*
G01*
X11792072Y-12073428D02*
G75*
G03X11792072Y-12073428I-40000J0D01*
G01*
X11792072Y-12327428D02*
G75*
G03X11792072Y-12327428I-40000J0D01*
G01*
X11792072Y-12581428D02*
G75*
G03X11792072Y-12581428I-40000J0D01*
G01*
X11792072Y-12835428D02*
G75*
G03X11792072Y-12835428I-40000J0D01*
G01*
X11792072Y-13089428D02*
G75*
G03X11792072Y-13089428I-40000J0D01*
G01*
X11792072Y-13343428D02*
G75*
G03X11792072Y-13343428I-40000J0D01*
G01*
X11792072Y-13597428D02*
G75*
G03X11792072Y-13597428I-40000J0D01*
G01*
X11792072Y-13851428D02*
G75*
G03X11792072Y-13851428I-40000J0D01*
G01*
X11792072Y-14105428D02*
G75*
G03X11792072Y-14105428I-40000J0D01*
G01*
X11792072Y-14359428D02*
G75*
G03X11792072Y-14359428I-40000J0D01*
G01*
X11792072Y-14613428D02*
G75*
G03X11792072Y-14613428I-40000J0D01*
G01*
X11792072Y-14867428D02*
G75*
G03X11792072Y-14867428I-40000J0D01*
G01*
X11792072Y-15121428D02*
G75*
G03X11792072Y-15121428I-40000J0D01*
G01*
X12552040Y-10037064D02*
G75*
G03X12552040Y-10037064I-40000J0D01*
G01*
X12552040Y-10291064D02*
G75*
G03X12552040Y-10291064I-40000J0D01*
G01*
X12552040Y-10545064D02*
G75*
G03X12552040Y-10545064I-40000J0D01*
G01*
X12552040Y-10799064D02*
G75*
G03X12552040Y-10799064I-40000J0D01*
G01*
X12552040Y-11053064D02*
G75*
G03X12552040Y-11053064I-40000J0D01*
G01*
X12552040Y-11307064D02*
G75*
G03X12552040Y-11307064I-40000J0D01*
G01*
X12552040Y-11561064D02*
G75*
G03X12552040Y-11561064I-40000J0D01*
G01*
X12552040Y-11815064D02*
G75*
G03X12552040Y-11815064I-40000J0D01*
G01*
X12552040Y-12069064D02*
G75*
G03X12552040Y-12069064I-40000J0D01*
G01*
X12552040Y-12323064D02*
G75*
G03X12552040Y-12323064I-40000J0D01*
G01*
X12552040Y-12577064D02*
G75*
G03X12552040Y-12577064I-40000J0D01*
G01*
X12552040Y-12831064D02*
G75*
G03X12552040Y-12831064I-40000J0D01*
G01*
X12552040Y-13085064D02*
G75*
G03X12552040Y-13085064I-40000J0D01*
G01*
X12552040Y-13339064D02*
G75*
G03X12552040Y-13339064I-40000J0D01*
G01*
X12552040Y-13593064D02*
G75*
G03X12552040Y-13593064I-40000J0D01*
G01*
X12552040Y-13847064D02*
G75*
G03X12552040Y-13847064I-40000J0D01*
G01*
X12552040Y-14101064D02*
G75*
G03X12552040Y-14101064I-40000J0D01*
G01*
X12552040Y-14355064D02*
G75*
G03X12552040Y-14355064I-40000J0D01*
G01*
X12552040Y-14609064D02*
G75*
G03X12552040Y-14609064I-40000J0D01*
G01*
X12552040Y-14863064D02*
G75*
G03X12552040Y-14863064I-40000J0D01*
G01*
X12552040Y-15117064D02*
G75*
G03X12552040Y-15117064I-40000J0D01*
G01*
X13316072Y-10295428D02*
G75*
G03X13316072Y-10295428I-40000J0D01*
G01*
X13316072Y-10549428D02*
G75*
G03X13316072Y-10549428I-40000J0D01*
G01*
X13316072Y-10803428D02*
G75*
G03X13316072Y-10803428I-40000J0D01*
G01*
X13316072Y-11057428D02*
G75*
G03X13316072Y-11057428I-40000J0D01*
G01*
X13316072Y-11311428D02*
G75*
G03X13316072Y-11311428I-40000J0D01*
G01*
X13316072Y-11565428D02*
G75*
G03X13316072Y-11565428I-40000J0D01*
G01*
X13316072Y-11819428D02*
G75*
G03X13316072Y-11819428I-40000J0D01*
G01*
X13316072Y-12073428D02*
G75*
G03X13316072Y-12073428I-40000J0D01*
G01*
X13316072Y-12327428D02*
G75*
G03X13316072Y-12327428I-40000J0D01*
G01*
X13316072Y-12581428D02*
G75*
G03X13316072Y-12581428I-40000J0D01*
G01*
X13316072Y-12835428D02*
G75*
G03X13316072Y-12835428I-40000J0D01*
G01*
X13316072Y-13089428D02*
G75*
G03X13316072Y-13089428I-40000J0D01*
G01*
X13316072Y-13343428D02*
G75*
G03X13316072Y-13343428I-40000J0D01*
G01*
X13316072Y-13597428D02*
G75*
G03X13316072Y-13597428I-40000J0D01*
G01*
X13316072Y-13851428D02*
G75*
G03X13316072Y-13851428I-40000J0D01*
G01*
X13316072Y-14105428D02*
G75*
G03X13316072Y-14105428I-40000J0D01*
G01*
X13316072Y-14359428D02*
G75*
G03X13316072Y-14359428I-40000J0D01*
G01*
X13316072Y-14613428D02*
G75*
G03X13316072Y-14613428I-40000J0D01*
G01*
X13316072Y-14867428D02*
G75*
G03X13316072Y-14867428I-40000J0D01*
G01*
X13316072Y-15121428D02*
G75*
G03X13316072Y-15121428I-40000J0D01*
G01*
X14076040Y-10037064D02*
G75*
G03X14076040Y-10037064I-40000J0D01*
G01*
X14076040Y-10291064D02*
G75*
G03X14076040Y-10291064I-40000J0D01*
G01*
X14076040Y-10545064D02*
G75*
G03X14076040Y-10545064I-40000J0D01*
G01*
X14076040Y-10799064D02*
G75*
G03X14076040Y-10799064I-40000J0D01*
G01*
X14076040Y-11053064D02*
G75*
G03X14076040Y-11053064I-40000J0D01*
G01*
X14076040Y-11307064D02*
G75*
G03X14076040Y-11307064I-40000J0D01*
G01*
X14076040Y-11561064D02*
G75*
G03X14076040Y-11561064I-40000J0D01*
G01*
X14076040Y-11815064D02*
G75*
G03X14076040Y-11815064I-40000J0D01*
G01*
X14076040Y-12069064D02*
G75*
G03X14076040Y-12069064I-40000J0D01*
G01*
X14076040Y-12323064D02*
G75*
G03X14076040Y-12323064I-40000J0D01*
G01*
X14076040Y-12577064D02*
G75*
G03X14076040Y-12577064I-40000J0D01*
G01*
X14076040Y-12831064D02*
G75*
G03X14076040Y-12831064I-40000J0D01*
G01*
X14076040Y-13085064D02*
G75*
G03X14076040Y-13085064I-40000J0D01*
G01*
X14076040Y-13339064D02*
G75*
G03X14076040Y-13339064I-40000J0D01*
G01*
X14076040Y-13593064D02*
G75*
G03X14076040Y-13593064I-40000J0D01*
G01*
X14076040Y-13847064D02*
G75*
G03X14076040Y-13847064I-40000J0D01*
G01*
X14076040Y-14101064D02*
G75*
G03X14076040Y-14101064I-40000J0D01*
G01*
X14076040Y-14355064D02*
G75*
G03X14076040Y-14355064I-40000J0D01*
G01*
X14076040Y-14609064D02*
G75*
G03X14076040Y-14609064I-40000J0D01*
G01*
X14076040Y-14863064D02*
G75*
G03X14076040Y-14863064I-40000J0D01*
G01*
X14076040Y-15117064D02*
G75*
G03X14076040Y-15117064I-40000J0D01*
G01*
X14647032Y-10041636D02*
G75*
G03X14647032Y-10041636I-40000J0D01*
G01*
X14647032Y-10295636D02*
G75*
G03X14647032Y-10295636I-40000J0D01*
G01*
X14647032Y-10549636D02*
G75*
G03X14647032Y-10549636I-40000J0D01*
G01*
X14647032Y-10803636D02*
G75*
G03X14647032Y-10803636I-40000J0D01*
G01*
X14647032Y-11057636D02*
G75*
G03X14647032Y-11057636I-40000J0D01*
G01*
X14647032Y-11311636D02*
G75*
G03X14647032Y-11311636I-40000J0D01*
G01*
X14647032Y-11565636D02*
G75*
G03X14647032Y-11565636I-40000J0D01*
G01*
X14647032Y-11819636D02*
G75*
G03X14647032Y-11819636I-40000J0D01*
G01*
X14647032Y-12073636D02*
G75*
G03X14647032Y-12073636I-40000J0D01*
G01*
X14647032Y-12327636D02*
G75*
G03X14647032Y-12327636I-40000J0D01*
G01*
X8681212Y-10695216D02*
X8681212Y-10795216D01*
X8631212Y-10745216D02*
X8731212Y-10745216D01*
X8681212Y-10949216D02*
X8681212Y-11049216D01*
X8631212Y-10999216D02*
X8731212Y-10999216D01*
X8681212Y-11203216D02*
X8681212Y-11303216D01*
X8631212Y-11253216D02*
X8731212Y-11253216D01*
X8681212Y-11457216D02*
X8681212Y-11557216D01*
X8631212Y-11507216D02*
X8731212Y-11507216D01*
X8681212Y-11711216D02*
X8681212Y-11811216D01*
X8631212Y-11761216D02*
X8731212Y-11761216D01*
X8681212Y-11965216D02*
X8681212Y-12065216D01*
X8631212Y-12015216D02*
X8731212Y-12015216D01*
X8681212Y-12219216D02*
X8681212Y-12319216D01*
X8631212Y-12269216D02*
X8731212Y-12269216D01*
X8681212Y-12473216D02*
X8681212Y-12573216D01*
X8631212Y-12523216D02*
X8731212Y-12523216D01*
X8681212Y-12727216D02*
X8681212Y-12827216D01*
X8631212Y-12777216D02*
X8731212Y-12777216D01*
X8681212Y-12981216D02*
X8681212Y-13081216D01*
X8631212Y-13031216D02*
X8731212Y-13031216D01*
X8935212Y-10695216D02*
X8935212Y-10795216D01*
X8885212Y-10745216D02*
X8985212Y-10745216D01*
X8935212Y-10949216D02*
X8935212Y-11049216D01*
X8885212Y-10999216D02*
X8985212Y-10999216D01*
X8935212Y-11203216D02*
X8935212Y-11303216D01*
X8885212Y-11253216D02*
X8985212Y-11253216D01*
X8935212Y-11457216D02*
X8935212Y-11557216D01*
X8885212Y-11507216D02*
X8985212Y-11507216D01*
X8935212Y-11711216D02*
X8935212Y-11811216D01*
X8885212Y-11761216D02*
X8985212Y-11761216D01*
X8935212Y-11965216D02*
X8935212Y-12065216D01*
X8885212Y-12015216D02*
X8985212Y-12015216D01*
X8935212Y-12219216D02*
X8935212Y-12319216D01*
X8885212Y-12269216D02*
X8985212Y-12269216D01*
X8935212Y-12473216D02*
X8935212Y-12573216D01*
X8885212Y-12523216D02*
X8985212Y-12523216D01*
X8935212Y-12727216D02*
X8935212Y-12827216D01*
X8885212Y-12777216D02*
X8985212Y-12777216D01*
X8935212Y-12981216D02*
X8935212Y-13081216D01*
X8885212Y-13031216D02*
X8985212Y-13031216D01*
D13*
X7911614Y-16169906D02*
X7911614Y-15869906D01*
X7983043Y-15869906D01*
X8025900Y-15884192D01*
X8054472Y-15912763D01*
X8068757Y-15941335D01*
X8083043Y-15998478D01*
X8083043Y-16041335D01*
X8068757Y-16098478D01*
X8054472Y-16127049D01*
X8025900Y-16155621D01*
X7983043Y-16169906D01*
X7911614Y-16169906D01*
X8211614Y-16169906D02*
X8211614Y-15969906D01*
X8211614Y-16027049D02*
X8225900Y-15998478D01*
X8240186Y-15984192D01*
X8268757Y-15969906D01*
X8297329Y-15969906D01*
X8397329Y-16169906D02*
X8397329Y-15969906D01*
X8397329Y-15869906D02*
X8383043Y-15884192D01*
X8397329Y-15898478D01*
X8411615Y-15884192D01*
X8397329Y-15869906D01*
X8397329Y-15898478D01*
X8583043Y-16169906D02*
X8554472Y-16155621D01*
X8540186Y-16127049D01*
X8540186Y-15869906D01*
X8740186Y-16169906D02*
X8711615Y-16155621D01*
X8697329Y-16127049D01*
X8697329Y-15869906D01*
X9083043Y-16169906D02*
X9083043Y-15869906D01*
X9183043Y-16084192D01*
X9283043Y-15869906D01*
X9283043Y-16169906D01*
X9554472Y-16169906D02*
X9554472Y-16012763D01*
X9540186Y-15984192D01*
X9511615Y-15969906D01*
X9454472Y-15969906D01*
X9425900Y-15984192D01*
X9554472Y-16155621D02*
X9525900Y-16169906D01*
X9454472Y-16169906D01*
X9425900Y-16155621D01*
X9411615Y-16127049D01*
X9411615Y-16098478D01*
X9425900Y-16069906D01*
X9454472Y-16055621D01*
X9525900Y-16055621D01*
X9554472Y-16041335D01*
X9697329Y-15969906D02*
X9697329Y-16269906D01*
X9697329Y-15984192D02*
X9725900Y-15969906D01*
X9783043Y-15969906D01*
X9811615Y-15984192D01*
X9825900Y-15998478D01*
X9840186Y-16027049D01*
X9840186Y-16112763D01*
X9825900Y-16141335D01*
X9811615Y-16155621D01*
X9783043Y-16169906D01*
X9725900Y-16169906D01*
X9697329Y-16155621D01*
X9968757Y-16141335D02*
X9983043Y-16155621D01*
X9968757Y-16169906D01*
X9954472Y-16155621D01*
X9968757Y-16141335D01*
X9968757Y-16169906D01*
X9968757Y-15984192D02*
X9983043Y-15998478D01*
X9968757Y-16012763D01*
X9954472Y-15998478D01*
X9968757Y-15984192D01*
X9968757Y-16012763D01*
X7600186Y-16644192D02*
X7640186Y-16684192D01*
X7640186Y-16644192D02*
X7600186Y-16684192D01*
X7968757Y-16499906D02*
X7997329Y-16499906D01*
X8025900Y-16514192D01*
X8040186Y-16528478D01*
X8054472Y-16557049D01*
X8068757Y-16614192D01*
X8068757Y-16685621D01*
X8054472Y-16742763D01*
X8040186Y-16771335D01*
X8025900Y-16785621D01*
X7997329Y-16799906D01*
X7968757Y-16799906D01*
X7940186Y-16785621D01*
X7925900Y-16771335D01*
X7911614Y-16742763D01*
X7897329Y-16685621D01*
X7897329Y-16614192D01*
X7911614Y-16557049D01*
X7925900Y-16528478D01*
X7940186Y-16514192D01*
X7968757Y-16499906D01*
X8197329Y-16771335D02*
X8211614Y-16785621D01*
X8197329Y-16799906D01*
X8183043Y-16785621D01*
X8197329Y-16771335D01*
X8197329Y-16799906D01*
X8468757Y-16599906D02*
X8468757Y-16799906D01*
X8397329Y-16485621D02*
X8325900Y-16699906D01*
X8511614Y-16699906D01*
X8683043Y-16499906D02*
X8711615Y-16499906D01*
X8740186Y-16514192D01*
X8754472Y-16528478D01*
X8768757Y-16557049D01*
X8783043Y-16614192D01*
X8783043Y-16685621D01*
X8768757Y-16742763D01*
X8754472Y-16771335D01*
X8740186Y-16785621D01*
X8711615Y-16799906D01*
X8683043Y-16799906D01*
X8654472Y-16785621D01*
X8640186Y-16771335D01*
X8625900Y-16742763D01*
X8611615Y-16685621D01*
X8611615Y-16614192D01*
X8625900Y-16557049D01*
X8640186Y-16528478D01*
X8654472Y-16514192D01*
X8683043Y-16499906D01*
X8911615Y-16799906D02*
X8911615Y-16599906D01*
X8911615Y-16628478D02*
X8925900Y-16614192D01*
X8954472Y-16599906D01*
X8997329Y-16599906D01*
X9025900Y-16614192D01*
X9040186Y-16642763D01*
X9040186Y-16799906D01*
X9040186Y-16642763D02*
X9054472Y-16614192D01*
X9083043Y-16599906D01*
X9125900Y-16599906D01*
X9154472Y-16614192D01*
X9168757Y-16642763D01*
X9168757Y-16799906D01*
X9311615Y-16799906D02*
X9311615Y-16599906D01*
X9311615Y-16628478D02*
X9325900Y-16614192D01*
X9354472Y-16599906D01*
X9397329Y-16599906D01*
X9425900Y-16614192D01*
X9440186Y-16642763D01*
X9440186Y-16799906D01*
X9440186Y-16642763D02*
X9454472Y-16614192D01*
X9483043Y-16599906D01*
X9525900Y-16599906D01*
X9554472Y-16614192D01*
X9568757Y-16642763D01*
X9568757Y-16799906D01*
X10154472Y-16485621D02*
X9897329Y-16871335D01*
X10540186Y-16499906D02*
X10568757Y-16499906D01*
X10597329Y-16514192D01*
X10611614Y-16528478D01*
X10625900Y-16557049D01*
X10640186Y-16614192D01*
X10640186Y-16685621D01*
X10625900Y-16742763D01*
X10611614Y-16771335D01*
X10597329Y-16785621D01*
X10568757Y-16799906D01*
X10540186Y-16799906D01*
X10511614Y-16785621D01*
X10497329Y-16771335D01*
X10483043Y-16742763D01*
X10468757Y-16685621D01*
X10468757Y-16614192D01*
X10483043Y-16557049D01*
X10497329Y-16528478D01*
X10511614Y-16514192D01*
X10540186Y-16499906D01*
X10768757Y-16771335D02*
X10783043Y-16785621D01*
X10768757Y-16799906D01*
X10754472Y-16785621D01*
X10768757Y-16771335D01*
X10768757Y-16799906D01*
X10968757Y-16499906D02*
X10997329Y-16499906D01*
X11025900Y-16514192D01*
X11040186Y-16528478D01*
X11054472Y-16557049D01*
X11068757Y-16614192D01*
X11068757Y-16685621D01*
X11054472Y-16742763D01*
X11040186Y-16771335D01*
X11025900Y-16785621D01*
X10997329Y-16799906D01*
X10968757Y-16799906D01*
X10940186Y-16785621D01*
X10925900Y-16771335D01*
X10911614Y-16742763D01*
X10897329Y-16685621D01*
X10897329Y-16614192D01*
X10911614Y-16557049D01*
X10925900Y-16528478D01*
X10940186Y-16514192D01*
X10968757Y-16499906D01*
X11354471Y-16799906D02*
X11183043Y-16799906D01*
X11268757Y-16799906D02*
X11268757Y-16499906D01*
X11240186Y-16542763D01*
X11211614Y-16571335D01*
X11183043Y-16585621D01*
X11611614Y-16499906D02*
X11554471Y-16499906D01*
X11525900Y-16514192D01*
X11511614Y-16528478D01*
X11483043Y-16571335D01*
X11468757Y-16628478D01*
X11468757Y-16742763D01*
X11483043Y-16771335D01*
X11497329Y-16785621D01*
X11525900Y-16799906D01*
X11583043Y-16799906D01*
X11611614Y-16785621D01*
X11625900Y-16771335D01*
X11640186Y-16742763D01*
X11640186Y-16671335D01*
X11625900Y-16642763D01*
X11611614Y-16628478D01*
X11583043Y-16614192D01*
X11525900Y-16614192D01*
X11497329Y-16628478D01*
X11483043Y-16642763D01*
X11468757Y-16671335D01*
X11754472Y-16499906D02*
X11754472Y-16557049D01*
X11868757Y-16499906D02*
X11868757Y-16557049D01*
X12311614Y-16914192D02*
X12297329Y-16899906D01*
X12268757Y-16857049D01*
X12254471Y-16828478D01*
X12240186Y-16785621D01*
X12225900Y-16714192D01*
X12225900Y-16657049D01*
X12240186Y-16585621D01*
X12254471Y-16542763D01*
X12268757Y-16514192D01*
X12297329Y-16471335D01*
X12311614Y-16457049D01*
X12583043Y-16799906D02*
X12411614Y-16799906D01*
X12497329Y-16799906D02*
X12497329Y-16499906D01*
X12468757Y-16542763D01*
X12440186Y-16571335D01*
X12411614Y-16585621D01*
X12854471Y-16499906D02*
X12711614Y-16499906D01*
X12697329Y-16642763D01*
X12711614Y-16628478D01*
X12740186Y-16614192D01*
X12811614Y-16614192D01*
X12840186Y-16628478D01*
X12854471Y-16642763D01*
X12868757Y-16671335D01*
X12868757Y-16742763D01*
X12854471Y-16771335D01*
X12840186Y-16785621D01*
X12811614Y-16799906D01*
X12740186Y-16799906D01*
X12711614Y-16785621D01*
X12697329Y-16771335D01*
X13225900Y-16799906D02*
X13225900Y-16499906D01*
X13354471Y-16799906D02*
X13354471Y-16642763D01*
X13340186Y-16614192D01*
X13311614Y-16599906D01*
X13268757Y-16599906D01*
X13240186Y-16614192D01*
X13225900Y-16628478D01*
X13540186Y-16799906D02*
X13511614Y-16785621D01*
X13497329Y-16771335D01*
X13483043Y-16742763D01*
X13483043Y-16657049D01*
X13497329Y-16628478D01*
X13511614Y-16614192D01*
X13540186Y-16599906D01*
X13583043Y-16599906D01*
X13611614Y-16614192D01*
X13625900Y-16628478D01*
X13640186Y-16657049D01*
X13640186Y-16742763D01*
X13625900Y-16771335D01*
X13611614Y-16785621D01*
X13583043Y-16799906D01*
X13540186Y-16799906D01*
X13811614Y-16799906D02*
X13783043Y-16785621D01*
X13768757Y-16757049D01*
X13768757Y-16499906D01*
X14040186Y-16785621D02*
X14011614Y-16799906D01*
X13954472Y-16799906D01*
X13925900Y-16785621D01*
X13911614Y-16757049D01*
X13911614Y-16642763D01*
X13925900Y-16614192D01*
X13954472Y-16599906D01*
X14011614Y-16599906D01*
X14040186Y-16614192D01*
X14054472Y-16642763D01*
X14054472Y-16671335D01*
X13911614Y-16699906D01*
X14168757Y-16785621D02*
X14197329Y-16799906D01*
X14254472Y-16799906D01*
X14283043Y-16785621D01*
X14297329Y-16757049D01*
X14297329Y-16742763D01*
X14283043Y-16714192D01*
X14254472Y-16699906D01*
X14211614Y-16699906D01*
X14183043Y-16685621D01*
X14168757Y-16657049D01*
X14168757Y-16642763D01*
X14183043Y-16614192D01*
X14211614Y-16599906D01*
X14254472Y-16599906D01*
X14283043Y-16614192D01*
X14397329Y-16914192D02*
X14411614Y-16899906D01*
X14440186Y-16857049D01*
X14454472Y-16828478D01*
X14468757Y-16785621D01*
X14483043Y-16714192D01*
X14483043Y-16657049D01*
X14468757Y-16585621D01*
X14454472Y-16542763D01*
X14440186Y-16514192D01*
X14411614Y-16471335D01*
X14397329Y-16457049D01*
X7640186Y-17060192D02*
G75*
G03X7640186Y-17060192I-40000J0D01*
G01*
X7968757Y-16895906D02*
X7997329Y-16895906D01*
X8025900Y-16910192D01*
X8040186Y-16924478D01*
X8054472Y-16953049D01*
X8068757Y-17010192D01*
X8068757Y-17081621D01*
X8054472Y-17138764D01*
X8040186Y-17167335D01*
X8025900Y-17181621D01*
X7997329Y-17195906D01*
X7968757Y-17195906D01*
X7940186Y-17181621D01*
X7925900Y-17167335D01*
X7911614Y-17138764D01*
X7897329Y-17081621D01*
X7897329Y-17010192D01*
X7911614Y-16953049D01*
X7925900Y-16924478D01*
X7940186Y-16910192D01*
X7968757Y-16895906D01*
X8197329Y-17167335D02*
X8211614Y-17181621D01*
X8197329Y-17195906D01*
X8183043Y-17181621D01*
X8197329Y-17167335D01*
X8197329Y-17195906D01*
X8383043Y-17024478D02*
X8354472Y-17010192D01*
X8340186Y-16995906D01*
X8325900Y-16967335D01*
X8325900Y-16953049D01*
X8340186Y-16924478D01*
X8354472Y-16910192D01*
X8383043Y-16895906D01*
X8440186Y-16895906D01*
X8468757Y-16910192D01*
X8483043Y-16924478D01*
X8497329Y-16953049D01*
X8497329Y-16967335D01*
X8483043Y-16995906D01*
X8468757Y-17010192D01*
X8440186Y-17024478D01*
X8383043Y-17024478D01*
X8354472Y-17038764D01*
X8340186Y-17053049D01*
X8325900Y-17081621D01*
X8325900Y-17138764D01*
X8340186Y-17167335D01*
X8354472Y-17181621D01*
X8383043Y-17195906D01*
X8440186Y-17195906D01*
X8468757Y-17181621D01*
X8483043Y-17167335D01*
X8497329Y-17138764D01*
X8497329Y-17081621D01*
X8483043Y-17053049D01*
X8468757Y-17038764D01*
X8440186Y-17024478D01*
X8683043Y-16895906D02*
X8711615Y-16895906D01*
X8740186Y-16910192D01*
X8754472Y-16924478D01*
X8768757Y-16953049D01*
X8783043Y-17010192D01*
X8783043Y-17081621D01*
X8768757Y-17138764D01*
X8754472Y-17167335D01*
X8740186Y-17181621D01*
X8711615Y-17195906D01*
X8683043Y-17195906D01*
X8654472Y-17181621D01*
X8640186Y-17167335D01*
X8625900Y-17138764D01*
X8611615Y-17081621D01*
X8611615Y-17010192D01*
X8625900Y-16953049D01*
X8640186Y-16924478D01*
X8654472Y-16910192D01*
X8683043Y-16895906D01*
X8911615Y-17195906D02*
X8911615Y-16995906D01*
X8911615Y-17024478D02*
X8925900Y-17010192D01*
X8954472Y-16995906D01*
X8997329Y-16995906D01*
X9025900Y-17010192D01*
X9040186Y-17038764D01*
X9040186Y-17195906D01*
X9040186Y-17038764D02*
X9054472Y-17010192D01*
X9083043Y-16995906D01*
X9125900Y-16995906D01*
X9154472Y-17010192D01*
X9168757Y-17038764D01*
X9168757Y-17195906D01*
X9311615Y-17195906D02*
X9311615Y-16995906D01*
X9311615Y-17024478D02*
X9325900Y-17010192D01*
X9354472Y-16995906D01*
X9397329Y-16995906D01*
X9425900Y-17010192D01*
X9440186Y-17038764D01*
X9440186Y-17195906D01*
X9440186Y-17038764D02*
X9454472Y-17010192D01*
X9483043Y-16995906D01*
X9525900Y-16995906D01*
X9554472Y-17010192D01*
X9568757Y-17038764D01*
X9568757Y-17195906D01*
X10154472Y-16881621D02*
X9897329Y-17267335D01*
X10540186Y-16895906D02*
X10568757Y-16895906D01*
X10597329Y-16910192D01*
X10611614Y-16924478D01*
X10625900Y-16953049D01*
X10640186Y-17010192D01*
X10640186Y-17081621D01*
X10625900Y-17138764D01*
X10611614Y-17167335D01*
X10597329Y-17181621D01*
X10568757Y-17195906D01*
X10540186Y-17195906D01*
X10511614Y-17181621D01*
X10497329Y-17167335D01*
X10483043Y-17138764D01*
X10468757Y-17081621D01*
X10468757Y-17010192D01*
X10483043Y-16953049D01*
X10497329Y-16924478D01*
X10511614Y-16910192D01*
X10540186Y-16895906D01*
X10768757Y-17167335D02*
X10783043Y-17181621D01*
X10768757Y-17195906D01*
X10754472Y-17181621D01*
X10768757Y-17167335D01*
X10768757Y-17195906D01*
X10968757Y-16895906D02*
X10997329Y-16895906D01*
X11025900Y-16910192D01*
X11040186Y-16924478D01*
X11054472Y-16953049D01*
X11068757Y-17010192D01*
X11068757Y-17081621D01*
X11054472Y-17138764D01*
X11040186Y-17167335D01*
X11025900Y-17181621D01*
X10997329Y-17195906D01*
X10968757Y-17195906D01*
X10940186Y-17181621D01*
X10925900Y-17167335D01*
X10911614Y-17138764D01*
X10897329Y-17081621D01*
X10897329Y-17010192D01*
X10911614Y-16953049D01*
X10925900Y-16924478D01*
X10940186Y-16910192D01*
X10968757Y-16895906D01*
X11168757Y-16895906D02*
X11354471Y-16895906D01*
X11254471Y-17010192D01*
X11297329Y-17010192D01*
X11325900Y-17024478D01*
X11340186Y-17038764D01*
X11354471Y-17067335D01*
X11354471Y-17138764D01*
X11340186Y-17167335D01*
X11325900Y-17181621D01*
X11297329Y-17195906D01*
X11211614Y-17195906D01*
X11183043Y-17181621D01*
X11168757Y-17167335D01*
X11640186Y-17195906D02*
X11468757Y-17195906D01*
X11554471Y-17195906D02*
X11554471Y-16895906D01*
X11525900Y-16938764D01*
X11497329Y-16967335D01*
X11468757Y-16981621D01*
X11754472Y-16895906D02*
X11754472Y-16953049D01*
X11868757Y-16895906D02*
X11868757Y-16953049D01*
X12311614Y-17310192D02*
X12297329Y-17295906D01*
X12268757Y-17253049D01*
X12254471Y-17224478D01*
X12240186Y-17181621D01*
X12225900Y-17110192D01*
X12225900Y-17053049D01*
X12240186Y-16981621D01*
X12254471Y-16938764D01*
X12268757Y-16910192D01*
X12297329Y-16867335D01*
X12311614Y-16853049D01*
X12583043Y-17195906D02*
X12411614Y-17195906D01*
X12497329Y-17195906D02*
X12497329Y-16895906D01*
X12468757Y-16938764D01*
X12440186Y-16967335D01*
X12411614Y-16981621D01*
X12683043Y-16895906D02*
X12868757Y-16895906D01*
X12768757Y-17010192D01*
X12811614Y-17010192D01*
X12840186Y-17024478D01*
X12854471Y-17038764D01*
X12868757Y-17067335D01*
X12868757Y-17138764D01*
X12854471Y-17167335D01*
X12840186Y-17181621D01*
X12811614Y-17195906D01*
X12725900Y-17195906D01*
X12697329Y-17181621D01*
X12683043Y-17167335D01*
X13154471Y-17195906D02*
X12983043Y-17195906D01*
X13068757Y-17195906D02*
X13068757Y-16895906D01*
X13040186Y-16938764D01*
X13011614Y-16967335D01*
X12983043Y-16981621D01*
X13511614Y-17195906D02*
X13511614Y-16895906D01*
X13640186Y-17195906D02*
X13640186Y-17038764D01*
X13625900Y-17010192D01*
X13597329Y-16995906D01*
X13554471Y-16995906D01*
X13525900Y-17010192D01*
X13511614Y-17024478D01*
X13825900Y-17195906D02*
X13797329Y-17181621D01*
X13783043Y-17167335D01*
X13768757Y-17138764D01*
X13768757Y-17053049D01*
X13783043Y-17024478D01*
X13797329Y-17010192D01*
X13825900Y-16995906D01*
X13868757Y-16995906D01*
X13897329Y-17010192D01*
X13911614Y-17024478D01*
X13925900Y-17053049D01*
X13925900Y-17138764D01*
X13911614Y-17167335D01*
X13897329Y-17181621D01*
X13868757Y-17195906D01*
X13825900Y-17195906D01*
X14097329Y-17195906D02*
X14068757Y-17181621D01*
X14054472Y-17153049D01*
X14054472Y-16895906D01*
X14325900Y-17181621D02*
X14297329Y-17195906D01*
X14240186Y-17195906D01*
X14211614Y-17181621D01*
X14197329Y-17153049D01*
X14197329Y-17038764D01*
X14211614Y-17010192D01*
X14240186Y-16995906D01*
X14297329Y-16995906D01*
X14325900Y-17010192D01*
X14340186Y-17038764D01*
X14340186Y-17067335D01*
X14197329Y-17095906D01*
X14454472Y-17181621D02*
X14483043Y-17195906D01*
X14540186Y-17195906D01*
X14568757Y-17181621D01*
X14583043Y-17153049D01*
X14583043Y-17138764D01*
X14568757Y-17110192D01*
X14540186Y-17095906D01*
X14497329Y-17095906D01*
X14468757Y-17081621D01*
X14454472Y-17053049D01*
X14454472Y-17038764D01*
X14468757Y-17010192D01*
X14497329Y-16995906D01*
X14540186Y-16995906D01*
X14568757Y-17010192D01*
X14683043Y-17310192D02*
X14697329Y-17295906D01*
X14725900Y-17253049D01*
X14740186Y-17224478D01*
X14754472Y-17181621D01*
X14768757Y-17110192D01*
X14768757Y-17053049D01*
X14754472Y-16981621D01*
X14740186Y-16938764D01*
X14725900Y-16910192D01*
X14697329Y-16867335D01*
X14683043Y-16853049D01*
X7590186Y-17406192D02*
X7590186Y-17506192D01*
X7540186Y-17456192D02*
X7640186Y-17456192D01*
X8068757Y-17591906D02*
X7897329Y-17591906D01*
X7983043Y-17591906D02*
X7983043Y-17291906D01*
X7954472Y-17334764D01*
X7925900Y-17363335D01*
X7897329Y-17377621D01*
X8197329Y-17563335D02*
X8211614Y-17577621D01*
X8197329Y-17591906D01*
X8183043Y-17577621D01*
X8197329Y-17563335D01*
X8197329Y-17591906D01*
X8397329Y-17291906D02*
X8425900Y-17291906D01*
X8454472Y-17306192D01*
X8468757Y-17320478D01*
X8483043Y-17349049D01*
X8497329Y-17406192D01*
X8497329Y-17477621D01*
X8483043Y-17534764D01*
X8468757Y-17563335D01*
X8454472Y-17577621D01*
X8425900Y-17591906D01*
X8397329Y-17591906D01*
X8368757Y-17577621D01*
X8354472Y-17563335D01*
X8340186Y-17534764D01*
X8325900Y-17477621D01*
X8325900Y-17406192D01*
X8340186Y-17349049D01*
X8354472Y-17320478D01*
X8368757Y-17306192D01*
X8397329Y-17291906D01*
X8683043Y-17291906D02*
X8711615Y-17291906D01*
X8740186Y-17306192D01*
X8754472Y-17320478D01*
X8768757Y-17349049D01*
X8783043Y-17406192D01*
X8783043Y-17477621D01*
X8768757Y-17534764D01*
X8754472Y-17563335D01*
X8740186Y-17577621D01*
X8711615Y-17591906D01*
X8683043Y-17591906D01*
X8654472Y-17577621D01*
X8640186Y-17563335D01*
X8625900Y-17534764D01*
X8611615Y-17477621D01*
X8611615Y-17406192D01*
X8625900Y-17349049D01*
X8640186Y-17320478D01*
X8654472Y-17306192D01*
X8683043Y-17291906D01*
X8911615Y-17591906D02*
X8911615Y-17391906D01*
X8911615Y-17420478D02*
X8925900Y-17406192D01*
X8954472Y-17391906D01*
X8997329Y-17391906D01*
X9025900Y-17406192D01*
X9040186Y-17434764D01*
X9040186Y-17591906D01*
X9040186Y-17434764D02*
X9054472Y-17406192D01*
X9083043Y-17391906D01*
X9125900Y-17391906D01*
X9154472Y-17406192D01*
X9168757Y-17434764D01*
X9168757Y-17591906D01*
X9311615Y-17591906D02*
X9311615Y-17391906D01*
X9311615Y-17420478D02*
X9325900Y-17406192D01*
X9354472Y-17391906D01*
X9397329Y-17391906D01*
X9425900Y-17406192D01*
X9440186Y-17434764D01*
X9440186Y-17591906D01*
X9440186Y-17434764D02*
X9454472Y-17406192D01*
X9483043Y-17391906D01*
X9525900Y-17391906D01*
X9554472Y-17406192D01*
X9568757Y-17434764D01*
X9568757Y-17591906D01*
X10154472Y-17277621D02*
X9897329Y-17663335D01*
X10540186Y-17291906D02*
X10568757Y-17291906D01*
X10597329Y-17306192D01*
X10611614Y-17320478D01*
X10625900Y-17349049D01*
X10640186Y-17406192D01*
X10640186Y-17477621D01*
X10625900Y-17534764D01*
X10611614Y-17563335D01*
X10597329Y-17577621D01*
X10568757Y-17591906D01*
X10540186Y-17591906D01*
X10511614Y-17577621D01*
X10497329Y-17563335D01*
X10483043Y-17534764D01*
X10468757Y-17477621D01*
X10468757Y-17406192D01*
X10483043Y-17349049D01*
X10497329Y-17320478D01*
X10511614Y-17306192D01*
X10540186Y-17291906D01*
X10768757Y-17563335D02*
X10783043Y-17577621D01*
X10768757Y-17591906D01*
X10754472Y-17577621D01*
X10768757Y-17563335D01*
X10768757Y-17591906D01*
X10968757Y-17291906D02*
X10997329Y-17291906D01*
X11025900Y-17306192D01*
X11040186Y-17320478D01*
X11054472Y-17349049D01*
X11068757Y-17406192D01*
X11068757Y-17477621D01*
X11054472Y-17534764D01*
X11040186Y-17563335D01*
X11025900Y-17577621D01*
X10997329Y-17591906D01*
X10968757Y-17591906D01*
X10940186Y-17577621D01*
X10925900Y-17563335D01*
X10911614Y-17534764D01*
X10897329Y-17477621D01*
X10897329Y-17406192D01*
X10911614Y-17349049D01*
X10925900Y-17320478D01*
X10940186Y-17306192D01*
X10968757Y-17291906D01*
X11168757Y-17291906D02*
X11354471Y-17291906D01*
X11254471Y-17406192D01*
X11297329Y-17406192D01*
X11325900Y-17420478D01*
X11340186Y-17434764D01*
X11354471Y-17463335D01*
X11354471Y-17534764D01*
X11340186Y-17563335D01*
X11325900Y-17577621D01*
X11297329Y-17591906D01*
X11211614Y-17591906D01*
X11183043Y-17577621D01*
X11168757Y-17563335D01*
X11497329Y-17591906D02*
X11554471Y-17591906D01*
X11583043Y-17577621D01*
X11597329Y-17563335D01*
X11625900Y-17520478D01*
X11640186Y-17463335D01*
X11640186Y-17349049D01*
X11625900Y-17320478D01*
X11611614Y-17306192D01*
X11583043Y-17291906D01*
X11525900Y-17291906D01*
X11497329Y-17306192D01*
X11483043Y-17320478D01*
X11468757Y-17349049D01*
X11468757Y-17420478D01*
X11483043Y-17449049D01*
X11497329Y-17463335D01*
X11525900Y-17477621D01*
X11583043Y-17477621D01*
X11611614Y-17463335D01*
X11625900Y-17449049D01*
X11640186Y-17420478D01*
X11754472Y-17291906D02*
X11754472Y-17349049D01*
X11868757Y-17291906D02*
X11868757Y-17349049D01*
X12311614Y-17706192D02*
X12297329Y-17691906D01*
X12268757Y-17649049D01*
X12254471Y-17620478D01*
X12240186Y-17577621D01*
X12225900Y-17506192D01*
X12225900Y-17449049D01*
X12240186Y-17377621D01*
X12254471Y-17334764D01*
X12268757Y-17306192D01*
X12297329Y-17263335D01*
X12311614Y-17249049D01*
X12411614Y-17320478D02*
X12425900Y-17306192D01*
X12454471Y-17291906D01*
X12525900Y-17291906D01*
X12554471Y-17306192D01*
X12568757Y-17320478D01*
X12583043Y-17349049D01*
X12583043Y-17377621D01*
X12568757Y-17420478D01*
X12397329Y-17591906D01*
X12583043Y-17591906D01*
X12768757Y-17291906D02*
X12797329Y-17291906D01*
X12825900Y-17306192D01*
X12840186Y-17320478D01*
X12854471Y-17349049D01*
X12868757Y-17406192D01*
X12868757Y-17477621D01*
X12854471Y-17534764D01*
X12840186Y-17563335D01*
X12825900Y-17577621D01*
X12797329Y-17591906D01*
X12768757Y-17591906D01*
X12740186Y-17577621D01*
X12725900Y-17563335D01*
X12711614Y-17534764D01*
X12697329Y-17477621D01*
X12697329Y-17406192D01*
X12711614Y-17349049D01*
X12725900Y-17320478D01*
X12740186Y-17306192D01*
X12768757Y-17291906D01*
X13225900Y-17591906D02*
X13225900Y-17291906D01*
X13354471Y-17591906D02*
X13354471Y-17434764D01*
X13340186Y-17406192D01*
X13311614Y-17391906D01*
X13268757Y-17391906D01*
X13240186Y-17406192D01*
X13225900Y-17420478D01*
X13540186Y-17591906D02*
X13511614Y-17577621D01*
X13497329Y-17563335D01*
X13483043Y-17534764D01*
X13483043Y-17449049D01*
X13497329Y-17420478D01*
X13511614Y-17406192D01*
X13540186Y-17391906D01*
X13583043Y-17391906D01*
X13611614Y-17406192D01*
X13625900Y-17420478D01*
X13640186Y-17449049D01*
X13640186Y-17534764D01*
X13625900Y-17563335D01*
X13611614Y-17577621D01*
X13583043Y-17591906D01*
X13540186Y-17591906D01*
X13811614Y-17591906D02*
X13783043Y-17577621D01*
X13768757Y-17549049D01*
X13768757Y-17291906D01*
X14040186Y-17577621D02*
X14011614Y-17591906D01*
X13954472Y-17591906D01*
X13925900Y-17577621D01*
X13911614Y-17549049D01*
X13911614Y-17434764D01*
X13925900Y-17406192D01*
X13954472Y-17391906D01*
X14011614Y-17391906D01*
X14040186Y-17406192D01*
X14054472Y-17434764D01*
X14054472Y-17463335D01*
X13911614Y-17491906D01*
X14168757Y-17577621D02*
X14197329Y-17591906D01*
X14254472Y-17591906D01*
X14283043Y-17577621D01*
X14297329Y-17549049D01*
X14297329Y-17534764D01*
X14283043Y-17506192D01*
X14254472Y-17491906D01*
X14211614Y-17491906D01*
X14183043Y-17477621D01*
X14168757Y-17449049D01*
X14168757Y-17434764D01*
X14183043Y-17406192D01*
X14211614Y-17391906D01*
X14254472Y-17391906D01*
X14283043Y-17406192D01*
X14397329Y-17706192D02*
X14411614Y-17691906D01*
X14440186Y-17649049D01*
X14454472Y-17620478D01*
X14468757Y-17577621D01*
X14483043Y-17506192D01*
X14483043Y-17449049D01*
X14468757Y-17377621D01*
X14454472Y-17334764D01*
X14440186Y-17306192D01*
X14411614Y-17263335D01*
X14397329Y-17249049D01*
M02*
