G04 #@! TF.FileFunction,Soldermask,Bot*
%FSLAX46Y46*%
G04 Gerber Fmt 4.6, Leading zero omitted, Abs format (unit mm)*
G04 Created by KiCad (PCBNEW 4.0.7) date 05/26/18 16:35:29*
%MOMM*%
%LPD*%
G01*
G04 APERTURE LIST*
%ADD10C,0.100000*%
%ADD11R,2.100000X2.100000*%
%ADD12O,2.100000X2.100000*%
%ADD13R,1.460000X1.050000*%
%ADD14R,2.000000X2.000000*%
%ADD15O,2.000000X2.000000*%
%ADD16C,1.900000*%
G04 APERTURE END LIST*
D10*
D11*
X89344500Y-118948200D03*
D12*
X86804500Y-118948200D03*
X89344500Y-116408200D03*
X86804500Y-116408200D03*
X89344500Y-113868200D03*
X86804500Y-113868200D03*
X89344500Y-111328200D03*
X86804500Y-111328200D03*
D13*
X95348880Y-153111240D03*
X95348880Y-152161240D03*
X95348880Y-151211240D03*
X97548880Y-151211240D03*
X97548880Y-153111240D03*
X104345560Y-153111240D03*
X104345560Y-152161240D03*
X104345560Y-151211240D03*
X106545560Y-151211240D03*
X106545560Y-153111240D03*
D14*
X97261680Y-111963200D03*
D15*
X104881680Y-144983200D03*
X97261680Y-114503200D03*
X104881680Y-142443200D03*
X97261680Y-117043200D03*
X104881680Y-139903200D03*
X97261680Y-119583200D03*
X104881680Y-137363200D03*
X97261680Y-122123200D03*
X104881680Y-134823200D03*
X97261680Y-124663200D03*
X104881680Y-132283200D03*
X97261680Y-127203200D03*
X104881680Y-129743200D03*
X97261680Y-129743200D03*
X104881680Y-127203200D03*
X97261680Y-132283200D03*
X104881680Y-124663200D03*
X97261680Y-134823200D03*
X104881680Y-122123200D03*
X97261680Y-137363200D03*
X104881680Y-119583200D03*
X97261680Y-139903200D03*
X104881680Y-117043200D03*
X97261680Y-142443200D03*
X104881680Y-114503200D03*
X97261680Y-144983200D03*
X104881680Y-111963200D03*
D14*
X112765840Y-103000000D03*
D15*
X128005840Y-151260000D03*
X112765840Y-105540000D03*
X128005840Y-148720000D03*
X112765840Y-108080000D03*
X128005840Y-146180000D03*
X112765840Y-110620000D03*
X128005840Y-143640000D03*
X112765840Y-113160000D03*
X128005840Y-141100000D03*
X112765840Y-115700000D03*
X128005840Y-138560000D03*
X112765840Y-118240000D03*
X128005840Y-136020000D03*
X112765840Y-120780000D03*
X128005840Y-133480000D03*
X112765840Y-123320000D03*
X128005840Y-130940000D03*
X112765840Y-125860000D03*
X128005840Y-128400000D03*
X112765840Y-128400000D03*
X128005840Y-125860000D03*
X112765840Y-130940000D03*
X128005840Y-123320000D03*
X112765840Y-133480000D03*
X128005840Y-120780000D03*
X112765840Y-136020000D03*
X128005840Y-118240000D03*
X112765840Y-138560000D03*
X128005840Y-115700000D03*
X112765840Y-141100000D03*
X128005840Y-113160000D03*
X112765840Y-143640000D03*
X128005840Y-110620000D03*
X112765840Y-146180000D03*
X128005840Y-108080000D03*
X112765840Y-148720000D03*
X128005840Y-105540000D03*
X112765840Y-151260000D03*
X128005840Y-103000000D03*
D14*
X120365520Y-100416360D03*
D15*
X135605520Y-151216360D03*
X120365520Y-102956360D03*
X135605520Y-148676360D03*
X120365520Y-105496360D03*
X135605520Y-146136360D03*
X120365520Y-108036360D03*
X135605520Y-143596360D03*
X120365520Y-110576360D03*
X135605520Y-141056360D03*
X120365520Y-113116360D03*
X135605520Y-138516360D03*
X120365520Y-115656360D03*
X135605520Y-135976360D03*
X120365520Y-118196360D03*
X135605520Y-133436360D03*
X120365520Y-120736360D03*
X135605520Y-130896360D03*
X120365520Y-123276360D03*
X135605520Y-128356360D03*
X120365520Y-125816360D03*
X135605520Y-125816360D03*
X120365520Y-128356360D03*
X135605520Y-123276360D03*
X120365520Y-130896360D03*
X135605520Y-120736360D03*
X120365520Y-133436360D03*
X135605520Y-118196360D03*
X120365520Y-135976360D03*
X135605520Y-115656360D03*
X120365520Y-138516360D03*
X135605520Y-113116360D03*
X120365520Y-141056360D03*
X135605520Y-110576360D03*
X120365520Y-143596360D03*
X135605520Y-108036360D03*
X120365520Y-146136360D03*
X135605520Y-105496360D03*
X120365520Y-148676360D03*
X135605520Y-102956360D03*
X120365520Y-151216360D03*
X135605520Y-100416360D03*
D16*
X90919300Y-130378200D03*
X90919300Y-135258200D03*
M02*
